<svg width="36" height="37" viewBox="0 0 36 37" fill="none" xmlns="http://www.w3.org/2000/svg">
<path fill-rule="evenodd" clip-rule="evenodd" d="M17.9995 36.0942C27.9407 36.0942 35.9995 28.0143 35.9995 18.0471C35.9995 8.07997 27.9407 0 17.9995 0C8.05842 0 -0.000457764 8.07997 -0.000457764 18.0471C-0.000457764 28.0143 8.05842 36.0942 17.9995 36.0942ZM18.9996 10.1516C18.9996 9.59933 18.5519 9.15161 17.9996 9.15161C17.4473 9.15161 16.9996 9.59933 16.9996 10.1516V10.1877V10.2238V10.2597V10.2957V10.3315V10.3673V10.403V10.4387V10.4743V10.5099V10.5454V10.5808V10.6162V10.6515V10.6868V10.722V10.7571V10.7922V10.8272V10.8622V10.8971V10.932V10.9668V11.0015V11.0362V11.0708V11.1054V11.1399V11.1744V11.2088V11.2432V11.2775V11.3117V11.3459V11.38V11.4141V11.4482V11.4821V11.5161V11.5499V11.5838V11.6175V11.6513V11.6849V11.7185V11.7521V11.7856V11.8191V11.8525V11.8858V11.9192V11.9524V11.9856V12.0188V12.0519V12.085V12.118V12.151V12.1839V12.2167V12.2496V12.2824V12.3151V12.3478V12.3804V12.413V12.4455V12.478V12.5105V12.5429V12.5753V12.6076V12.6399V12.6721V12.7043V12.7364V12.7685V12.8006V12.8326V12.8646V12.8965V12.9284V12.9602V12.992V13.0238V13.0555V13.0872V13.1188V13.1504V13.1819V13.2135V13.2449V13.2764V13.3078V13.3391V13.3704V13.4017V13.433V13.4642V13.4953V13.5264V13.5575V13.5886V13.6196V13.6506V13.6815V13.7124V13.7433V13.7741V13.8049V13.8357V13.8664V13.8971V13.9277V13.9584V13.9889V14.0195V14.05V14.0805V14.111V14.1414V14.1718V14.2021V14.2324V14.2627V14.293V14.3232V14.3534V14.3836V14.4137V14.4438V14.4739V14.5039V14.534V14.5639V14.5939V14.6238V14.6537V14.6836V14.7134V14.7432V14.773V14.8028V14.8325V14.8622V14.8919V14.9215V14.9512V14.9808V15.0103V15.0399V15.0694V15.0989V15.1283V15.1578V15.1872V15.2166V15.246V15.2753V15.3047V15.334V15.3632V15.3925V15.4217V15.4509V15.4801V15.5093V15.5384V15.5676V15.5967V15.6257V15.6548V15.6838V15.7129V15.7419V15.7708V15.7998V15.8287V15.8577V15.8866V15.9155V15.9443V15.9732V16.002V16.0308V16.0596V16.0884V16.1172V16.1459V16.1747V16.2034V16.2321V16.2608V16.2894V16.3181V16.3467V16.3753V16.404V16.4326V16.4611V16.4897V16.5183V16.5468V16.5753V16.6039V16.6324V16.6609V16.6893V16.7178V16.7463V16.7747V16.8031V16.8316V16.86V16.8884V16.9168V16.9452V16.9735V17.0019V17.0303V17.0472H10.1246C9.57232 17.0472 9.12461 17.4949 9.12461 18.0472C9.12461 18.5995 9.57232 19.0472 10.1246 19.0472H16.9996V19.0642V19.0925V19.1209V19.1493V19.1777V19.2061V19.2345V19.2629V19.2913V19.3197V19.3482V19.3766V19.4051V19.4336V19.4621V19.4906V19.5191V19.5476V19.5762V19.6047V19.6333V19.6619V19.6905V19.7191V19.7477V19.7764V19.805V19.8337V19.8624V19.8911V19.9198V19.9485V19.9773V20.006V20.0348V20.0636V20.0924V20.1213V20.1501V20.179V20.2079V20.2368V20.2657V20.2946V20.3236V20.3526V20.3816V20.4106V20.4397V20.4687V20.4978V20.5269V20.556V20.5852V20.6143V20.6435V20.6727V20.702V20.7312V20.7605V20.7898V20.8191V20.8485V20.8778V20.9072V20.9367V20.9661V20.9956V21.0251V21.0546V21.0841V21.1137V21.1433V21.1729V21.2026V21.2322V21.2619V21.2917V21.3214V21.3512V21.381V21.4109V21.4407V21.4706V21.5006V21.5305V21.5605V21.5905V21.6206V21.6506V21.6807V21.7109V21.741V21.7712V21.8015V21.8317V21.862V21.8923V21.9227V21.9531V21.9835V22.0139V22.0444V22.0749V22.1055V22.1361V22.1667V22.1974V22.2281V22.2588V22.2895V22.3203V22.3512V22.382V22.4129V22.4439V22.4749V22.5059V22.5369V22.568V22.5991V22.6303V22.6615V22.6927V22.724V22.7553V22.7867V22.8181V22.8495V22.881V22.9125V22.9441V22.9757V23.0073V23.039V23.0707V23.1024V23.1342V23.1661V23.198V23.2299V23.2619V23.2939V23.3259V23.358V23.3902V23.4224V23.4546V23.4869V23.5192V23.5515V23.584V23.6164V23.6489V23.6815V23.714V23.7467V23.7794V23.8121V23.8449V23.8777V23.9106V23.9435V23.9765V24.0095V24.0425V24.0757V24.1088V24.142V24.1753V24.2086V24.242V24.2754V24.3088V24.3424V24.3759V24.4095V24.4432V24.4769V24.5107V24.5445V24.5784V24.6123V24.6463V24.6803V24.7144V24.7485V24.7827V24.817V24.8513V24.8856V24.92V24.9545V24.989V25.0236V25.0582V25.0929V25.1277V25.1625V25.1973V25.2322V25.2672V25.3022V25.3373V25.3725V25.4077V25.4429V25.4782V25.5136V25.5491V25.5846V25.6201V25.6557V25.6914V25.7271V25.7629V25.7988V25.8347V25.8707V25.9067V25.9428C16.9996 26.4951 17.4473 26.9428 17.9996 26.9428C18.5519 26.9428 18.9996 26.4951 18.9996 25.9428V25.9067V25.8707V25.8347V25.7988V25.7629V25.7271V25.6914V25.6557V25.6201V25.5846V25.5491V25.5136V25.4782V25.4429V25.4077V25.3725V25.3373V25.3022V25.2672V25.2322V25.1973V25.1625V25.1277V25.0929V25.0582V25.0236V24.989V24.9545V24.92V24.8856V24.8513V24.817V24.7827V24.7485V24.7144V24.6803V24.6463V24.6123V24.5784V24.5445V24.5107V24.4769V24.4432V24.4095V24.3759V24.3424V24.3088V24.2754V24.242V24.2086V24.1753V24.142V24.1088V24.0757V24.0425V24.0095V23.9765V23.9435V23.9106V23.8777V23.8449V23.8121V23.7794V23.7467V23.714V23.6815V23.6489V23.6164V23.584V23.5515V23.5192V23.4869V23.4546V23.4224V23.3902V23.358V23.3259V23.2939V23.2619V23.2299V23.198V23.1661V23.1342V23.1024V23.0707V23.039V23.0073V22.9757V22.9441V22.9125V22.881V22.8495V22.8181V22.7867V22.7553V22.724V22.6927V22.6615V22.6303V22.5991V22.568V22.5369V22.5059V22.4749V22.4439V22.4129V22.382V22.3512V22.3203V22.2895V22.2588V22.2281V22.1974V22.1667V22.1361V22.1055V22.0749V22.0444V22.0139V21.9835V21.9531V21.9227V21.8923V21.862V21.8317V21.8015V21.7712V21.741V21.7109V21.6807V21.6506V21.6206V21.5905V21.5605V21.5305V21.5006V21.4706V21.4407V21.4109V21.381V21.3512V21.3214V21.2917V21.2619V21.2322V21.2026V21.1729V21.1433V21.1137V21.0841V21.0546V21.0251V20.9956V20.9661V20.9367V20.9072V20.8778V20.8485V20.8191V20.7898V20.7605V20.7312V20.702V20.6727V20.6435V20.6143V20.5852V20.556V20.5269V20.4978V20.4687V20.4397V20.4106V20.3816V20.3526V20.3236V20.2946V20.2657V20.2368V20.2079V20.179V20.1501V20.1213V20.0924V20.0636V20.0348V20.006V19.9773V19.9485V19.9198V19.8911V19.8624V19.8337V19.805V19.7764V19.7477V19.7191V19.6905V19.6619V19.6333V19.6047V19.5762V19.5476V19.5191V19.4906V19.4621V19.4336V19.4051V19.3766V19.3482V19.3197V19.2913V19.2629V19.2345V19.2061V19.1777V19.1493V19.1209V19.0925V19.0642V19.0472H25.8746C26.4269 19.0472 26.8746 18.5995 26.8746 18.0472C26.8746 17.4949 26.4269 17.0472 25.8746 17.0472H18.9996V17.0303V17.0019V16.9735V16.9452V16.9168V16.8884V16.86V16.8316V16.8031V16.7747V16.7463V16.7178V16.6893V16.6609V16.6324V16.6039V16.5753V16.5468V16.5183V16.4897V16.4611V16.4326V16.404V16.3753V16.3467V16.3181V16.2894V16.2608V16.2321V16.2034V16.1747V16.1459V16.1172V16.0884V16.0596V16.0308V16.002V15.9732V15.9443V15.9155V15.8866V15.8577V15.8287V15.7998V15.7708V15.7419V15.7129V15.6838V15.6548V15.6257V15.5967V15.5676V15.5384V15.5093V15.4801V15.4509V15.4217V15.3925V15.3632V15.334V15.3047V15.2753V15.246V15.2166V15.1872V15.1578V15.1283V15.0989V15.0694V15.0399V15.0103V14.9808V14.9512V14.9215V14.8919V14.8622V14.8325V14.8028V14.773V14.7432V14.7134V14.6836V14.6537V14.6238V14.5939V14.5639V14.534V14.5039V14.4739V14.4438V14.4137V14.3836V14.3534V14.3232V14.293V14.2627V14.2324V14.2021V14.1718V14.1414V14.111V14.0805V14.05V14.0195V13.9889V13.9584V13.9277V13.8971V13.8664V13.8357V13.8049V13.7741V13.7433V13.7124V13.6815V13.6506V13.6196V13.5886V13.5575V13.5264V13.4953V13.4642V13.433V13.4017V13.3704V13.3391V13.3078V13.2764V13.2449V13.2135V13.1819V13.1504V13.1188V13.0872V13.0555V13.0238V12.992V12.9602V12.9284V12.8965V12.8646V12.8326V12.8006V12.7685V12.7364V12.7043V12.6721V12.6399V12.6076V12.5753V12.5429V12.5105V12.478V12.4455V12.413V12.3804V12.3478V12.3151V12.2824V12.2496V12.2167V12.1839V12.151V12.118V12.085V12.0519V12.0188V11.9856V11.9524V11.9192V11.8858V11.8525V11.8191V11.7856V11.7521V11.7185V11.6849V11.6513V11.6175V11.5838V11.5499V11.5161V11.4821V11.4482V11.4141V11.38V11.3459V11.3117V11.2775V11.2432V11.2088V11.1744V11.1399V11.1054V11.0708V11.0362V11.0015V10.9668V10.932V10.8971V10.8622V10.8272V10.7922V10.7571V10.722V10.6868V10.6515V10.6162V10.5808V10.5454V10.5099V10.4743V10.4387V10.403V10.3673V10.3315V10.2957V10.2597V10.2238V10.1877V10.1516Z" fill="#4C9789"/>
</svg>
