<svg width="32" height="33" viewBox="0 0 32 33" fill="none" xmlns="http://www.w3.org/2000/svg">
<mask id="path-1-inside-1" fill="white">
<path fill-rule="evenodd" clip-rule="evenodd" d="M2.42323 0.587636C2.79845 0.211432 3.30795 0 3.83929 0H10.8904C11.4217 0 11.9312 0.211431 12.3065 0.587636L14.1854 2.47154C14.5594 2.84646 14.7694 3.35438 14.7694 3.8839V10.8615C14.7694 11.391 14.5594 11.8989 14.1854 12.2738L12.2441 14.2203C11.8689 14.5965 11.3594 14.8079 10.828 14.8079H3.87944C3.3481 14.8079 2.8386 14.5965 2.46338 14.2203L0.584084 12.336C0.210141 11.9611 0.000144958 11.4532 0.000144958 10.9237V3.84396C0.000144958 3.31443 0.210142 2.80652 0.584084 2.4316L2.42323 0.587636Z"/>
</mask>
<path d="M0.584084 2.4316L2.00015 3.84396L0.584084 2.4316ZM12.2441 14.2203L10.828 12.8079L12.2441 14.2203ZM14.1854 12.2738L12.7694 10.8615L14.1854 12.2738ZM14.1854 2.47154L12.7694 3.8839L14.1854 2.47154ZM2.42323 0.587636L1.00717 -0.824727L2.42323 0.587636ZM12.3065 0.587636L13.7225 -0.824728L12.3065 0.587636ZM10.8904 -2H3.83929V2H10.8904V-2ZM15.6015 1.05918L13.7225 -0.824728L10.8904 2L12.7694 3.8839L15.6015 1.05918ZM16.7694 10.8615V3.8839H12.7694V10.8615H16.7694ZM13.6602 15.6326L15.6015 13.6862L12.7694 10.8615L10.828 12.8079L13.6602 15.6326ZM3.87944 16.8079H10.828V12.8079H3.87944V16.8079ZM-0.831977 13.7484L1.04732 15.6326L3.87944 12.8079L2.00014 10.9237L-0.831977 13.7484ZM-1.99986 3.84396V10.9237H2.00014V3.84396H-1.99986ZM1.00717 -0.824727L-0.831977 1.01923L2.00015 3.84396L3.83929 2L1.00717 -0.824727ZM2.00014 3.84396L2.00015 3.84396L-0.831977 1.01923C-1.57986 1.76908 -1.99986 2.78491 -1.99986 3.84396H2.00014ZM2.00014 10.9237L2.00014 10.9237H-1.99986C-1.99986 11.9827 -1.57986 12.9986 -0.831977 13.7484L2.00014 10.9237ZM3.87944 12.8079L3.87944 12.8079L1.04732 15.6326C1.79776 16.385 2.81676 16.8079 3.87944 16.8079V12.8079ZM10.828 12.8079L10.828 12.8079V16.8079C11.8907 16.8079 12.9097 16.385 13.6602 15.6326L10.828 12.8079ZM12.7694 10.8615L12.7694 10.8615L15.6015 13.6862C16.3494 12.9364 16.7694 11.9205 16.7694 10.8615H12.7694ZM12.7694 3.8839L12.7694 3.8839H16.7694C16.7694 2.82485 16.3494 1.80902 15.6015 1.05918L12.7694 3.8839ZM3.83929 -2C2.77661 -2 1.75761 -1.57714 1.00717 -0.824727L3.83929 2L3.83929 2V-2ZM10.8904 2L10.8904 2L13.7225 -0.824728C12.9721 -1.57714 11.9531 -2 10.8904 -2V2Z" fill="#4C9789" mask="url(#path-1-inside-1)"/>
<mask id="path-3-inside-2" fill="white">
<path fill-rule="evenodd" clip-rule="evenodd" d="M2.42309 17.8635C2.79831 17.4873 3.30781 17.2759 3.83915 17.2759H10.8902C11.4216 17.2759 11.9311 17.4873 12.3063 17.8635L14.1853 19.7474C14.5592 20.1223 14.7692 20.6303 14.7692 21.1598V28.1373C14.7692 28.6669 14.5592 29.1748 14.1853 29.5497L12.244 31.4961C11.8687 31.8723 11.3592 32.0838 10.8279 32.0838H3.8793C3.34796 32.0838 2.83846 31.8723 2.46324 31.4961L0.583942 29.6119C0.209999 29.237 2.86102e-06 28.7291 2.86102e-06 28.1996V21.1198C2.86102e-06 20.5903 0.21 20.0824 0.583942 19.7075L2.42309 17.8635Z"/>
</mask>
<path d="M0.583942 19.7075L2 21.1198L0.583942 19.7075ZM12.244 31.4961L10.8279 30.0838L12.244 31.4961ZM14.1853 29.5497L12.7692 28.1373L14.1853 29.5497ZM14.1853 19.7474L12.7692 21.1598L14.1853 19.7474ZM2.42309 17.8635L1.00703 16.4512L2.42309 17.8635ZM12.3063 17.8635L13.7224 16.4512L12.3063 17.8635ZM10.8902 15.2759H3.83915V19.2759H10.8902V15.2759ZM15.6014 18.3351L13.7224 16.4512L10.8902 19.2759L12.7692 21.1598L15.6014 18.3351ZM16.7692 28.1373V21.1598H12.7692V28.1373H16.7692ZM13.66 32.9085L15.6014 30.9621L12.7692 28.1373L10.8279 30.0838L13.66 32.9085ZM3.8793 34.0838H10.8279V30.0838H3.8793V34.0838ZM-0.832119 31.0243L1.04718 32.9085L3.8793 30.0838L2 28.1996L-0.832119 31.0243ZM-2 21.1198V28.1996H2V21.1198H-2ZM1.00703 16.4512L-0.832119 18.2951L2 21.1198L3.83915 19.2759L1.00703 16.4512ZM2 21.1198L2 21.1198L-0.832119 18.2951C-1.58 19.045 -2 20.0608 -2 21.1198H2ZM2 28.1996L2 28.1996H-2C-2 29.2586 -1.58 30.2744 -0.832119 31.0243L2 28.1996ZM3.8793 30.0838L3.8793 30.0838L1.04718 32.9085C1.79762 33.6609 2.81662 34.0838 3.8793 34.0838V30.0838ZM10.8279 30.0838L10.8279 30.0838V34.0838C11.8906 34.0838 12.9096 33.6609 13.66 32.9085L10.8279 30.0838ZM12.7692 28.1373L12.7692 28.1373L15.6014 30.9621C16.3492 30.2122 16.7692 29.1964 16.7692 28.1373H12.7692ZM12.7692 21.1598L12.7692 21.1598H16.7692C16.7692 20.1007 16.3492 19.0849 15.6014 18.3351L12.7692 21.1598ZM3.83915 15.2759C2.77647 15.2759 1.75747 15.6987 1.00703 16.4512L3.83915 19.2759L3.83915 19.2759V15.2759ZM10.8902 19.2759L10.8902 19.2759L13.7224 16.4512C12.9719 15.6987 11.9529 15.2759 10.8902 15.2759V19.2759Z" fill="#4C9789" mask="url(#path-3-inside-2)"/>
<mask id="path-5-inside-3" fill="white">
<path fill-rule="evenodd" clip-rule="evenodd" d="M19.6538 0.587636C20.0291 0.211432 20.5386 0 21.0699 0H28.121C28.6523 0 29.1618 0.211432 29.5371 0.587636L32.0001 3.05717C32.0001 3.05717 32.0001 3.05717 32.0001 3.05717V3.05717C32.0002 3.05716 32.0002 3.05717 32.0002 3.05717V10.8613C32.0002 11.3908 31.7902 11.8987 31.4162 12.2736L29.4747 14.2203C29.0995 14.5965 28.59 14.8079 28.0586 14.8079H21.1096C20.5782 14.8079 20.0687 14.5965 19.6935 14.2203L17.8149 12.3367C17.4409 11.9618 17.2309 11.4539 17.2309 10.9243V3.84378C17.2309 3.31425 17.4409 2.80633 17.8149 2.43141L19.6538 0.587636Z"/>
</mask>
<path d="M17.8149 12.3367L16.3988 13.7491L17.8149 12.3367ZM29.4747 14.2203L28.0586 12.8079L29.4747 14.2203ZM31.4162 12.2736L30.0002 10.8613L31.4162 12.2736ZM32.0001 3.05717L30.5841 4.46953L32.0001 3.05717ZM29.5371 0.587636L28.121 2L29.5371 0.587636ZM28.121 -2H21.0699V2H28.121V-2ZM33.4162 1.6448L30.9531 -0.824728L28.121 2L30.5841 4.46953L33.4162 1.6448ZM34.0002 10.8613V3.05717H30.0002V10.8613H34.0002ZM30.8908 15.6326L32.8323 13.686L30.0002 10.8613L28.0586 12.8079L30.8908 15.6326ZM21.1096 16.8079H28.0586V12.8079H21.1096V16.8079ZM16.3988 13.7491L18.2774 15.6326L21.1096 12.8079L19.2309 10.9243L16.3988 13.7491ZM15.2309 3.84378V10.9243H19.2309V3.84378H15.2309ZM18.2378 -0.824728L16.3988 1.01905L19.2309 3.84378L21.0699 2L18.2378 -0.824728ZM19.2309 3.84378L19.2309 3.84378L16.3988 1.01905C15.6509 1.76889 15.2309 2.78472 15.2309 3.84378H19.2309ZM19.2309 10.9243L19.2309 10.9243H15.2309C15.2309 11.9834 15.6509 12.9992 16.3988 13.7491L19.2309 10.9243ZM21.1096 12.8079L21.1096 12.8079L18.2774 15.6326C19.0279 16.385 20.0469 16.8079 21.1096 16.8079V12.8079ZM28.0586 12.8079L28.0586 12.8079V16.8079C29.1213 16.8079 30.1403 16.385 30.8908 15.6326L28.0586 12.8079ZM30.0002 10.8613L30.0002 10.8613L32.8323 13.686C33.5802 12.9362 34.0002 11.9203 34.0002 10.8613H30.0002ZM33.4144 4.47138C32.1665 5.71921 30.0002 4.85606 30.0002 3.05717H34.0002C34.0002 1.25827 31.8338 0.395113 30.5859 1.64295L33.4144 4.47138ZM30.5841 4.46953C31.3648 5.25232 32.6326 5.25316 33.4144 4.47138L30.5859 1.64295C31.3677 0.861185 32.6355 0.862016 33.4162 1.6448L30.5841 4.46953ZM21.0699 -2C20.0072 -2 18.9882 -1.57714 18.2378 -0.824728L21.0699 2L21.0699 2V-2ZM28.121 2L28.121 2L30.9531 -0.824728C30.2027 -1.57714 29.1837 -2 28.121 -2V2Z" fill="#4C9789" mask="url(#path-5-inside-3)"/>
<mask id="path-7-inside-4" fill="white">
<path fill-rule="evenodd" clip-rule="evenodd" d="M19.6538 17.8635C20.0291 17.4873 20.5386 17.2759 21.0699 17.2759H28.121C28.6523 17.2759 29.1618 17.4873 29.5371 17.8635L32.0001 20.333C32.0001 20.333 32.0001 20.333 32.0001 20.333V20.333C32.0002 20.333 32.0002 20.333 32.0002 20.3331V28.1372C32.0002 28.6667 31.7902 29.1746 31.4162 29.5495L29.4747 31.4961C29.0995 31.8723 28.59 32.0838 28.0586 32.0838H21.1096C20.5782 32.0838 20.0687 31.8723 19.6935 31.4961L17.8149 29.6126C17.4409 29.2377 17.2309 28.7298 17.2309 28.2002V21.1197C17.2309 20.5901 17.4409 20.0822 17.8149 19.7073L19.6538 17.8635Z"/>
</mask>
<path d="M17.8149 29.6126L16.3988 31.025L17.8149 29.6126ZM29.4747 31.4961L28.0586 30.0838L29.4747 31.4961ZM31.4162 29.5495L30.0002 28.1372L31.4162 29.5495ZM32.0001 20.333L30.5841 21.7454L32.0001 20.333ZM29.5371 17.8635L28.121 19.2759L29.5371 17.8635ZM28.121 15.2759H21.0699V19.2759H28.121V15.2759ZM33.4162 18.9207L30.9531 16.4512L28.121 19.2759L30.5841 21.7454L33.4162 18.9207ZM34.0002 28.1372V20.3331H30.0002V28.1372H34.0002ZM30.8908 32.9085L32.8323 30.9619L30.0002 28.1372L28.0586 30.0838L30.8908 32.9085ZM21.1096 34.0838H28.0586V30.0838H21.1096V34.0838ZM16.3988 31.025L18.2774 32.9085L21.1096 30.0838L19.2309 28.2002L16.3988 31.025ZM15.2309 21.1197V28.2002H19.2309V21.1197H15.2309ZM18.2378 16.4512L16.3988 18.2949L19.2309 21.1197L21.0699 19.2759L18.2378 16.4512ZM19.2309 21.1197L19.2309 21.1197L16.3988 18.2949C15.6509 19.0448 15.2309 20.0606 15.2309 21.1197H19.2309ZM19.2309 28.2002L19.2309 28.2002H15.2309C15.2309 29.2593 15.6509 30.2751 16.3988 31.025L19.2309 28.2002ZM21.1096 30.0838L21.1096 30.0838L18.2774 32.9085C19.0279 33.6609 20.0469 34.0838 21.1096 34.0838V30.0838ZM28.0586 30.0838L28.0586 30.0838V34.0838C29.1213 34.0838 30.1403 33.6609 30.8908 32.9085L28.0586 30.0838ZM30.0002 28.1372L30.0002 28.1372L32.8323 30.9619C33.5802 30.212 34.0002 29.1962 34.0002 28.1372H30.0002ZM33.4144 21.7473C32.1665 22.9951 30.0002 22.1319 30.0002 20.3331H34.0002C34.0002 18.5341 31.8338 17.671 30.5859 18.9188L33.4144 21.7473ZM30.5841 21.7454C31.3648 22.5282 32.6326 22.529 33.4144 21.7473L30.5859 18.9188C31.3677 18.1371 32.6355 18.1379 33.4162 18.9207L30.5841 21.7454ZM21.0699 15.2759C20.0072 15.2759 18.9882 15.6987 18.2378 16.4512L21.0699 19.2759L21.0699 19.2759V15.2759ZM28.121 19.2759L28.121 19.2759L30.9531 16.4512C30.2027 15.6987 29.1837 15.2759 28.121 15.2759V19.2759Z" fill="#4C9789" mask="url(#path-7-inside-4)"/>
</svg>
