<svg width="146" height="175" viewBox="0 0 146 175" fill="none" xmlns="http://www.w3.org/2000/svg">
<path d="M130.943 91.4893L124.548 91.4603C122.369 91.4312 120.596 90.0942 120.567 88.4957V87.9434C120.537 86.3449 122.281 85.0661 124.432 85.0661L130.826 85.0951C133.006 85.1242 134.779 86.4611 134.808 88.0597V88.6119C134.837 90.2105 133.093 91.5184 130.943 91.4893Z" fill="#F8CDBA"/>
<path d="M20.0907 91.1115L13.6965 91.0824C11.5167 91.0534 9.74378 89.7164 9.71471 88.1179V87.5656C9.68565 85.9671 11.4295 84.6882 13.5802 84.6882L19.9744 84.7173C22.1543 84.7464 23.9272 86.0833 23.9563 87.6819V88.2341C23.9854 89.8326 22.2415 91.1405 20.0907 91.1115Z" fill="#F8CDBA"/>
<path d="M0.414196 134.941C0.733906 133.749 2.09992 133.575 2.94279 134.272C4.51227 135.58 5.32604 137.382 6.16891 139.155C7.0699 141.044 8.17437 142.759 9.45321 144.387C12.069 147.729 14.9755 150.81 16.8937 154.646C20.614 162.058 21.515 170.777 18.9283 178.712C18.8411 178.944 19.3351 177.695 18.5504 179.903C17.8238 181.88 15.0045 180.834 15.0336 178.508C15.0626 176.241 14.4523 174.12 13.4641 172.114C11.4877 168.132 8.98816 164.383 7.04084 160.372C5.06446 156.303 3.34965 152.147 1.95456 147.845C0.617591 143.718 -0.690253 139.3 0.414196 134.941Z" fill="#4C9789"/>
<path d="M18.6666 111.689C19.6839 109.858 22.5904 111.108 22.0382 113.113C20.3233 118.984 21.5441 125.175 22.6194 131.046C23.6948 137.033 24.9737 142.963 25.7003 149.008C27.0082 159.733 26.5722 171.765 19.8002 180.746C19.0736 181.705 17.5332 180.921 18.1435 179.758C18.812 178.479 17.1263 170.138 16.3706 167.464C15.6149 164.703 14.8301 161.942 14.1617 159.18C12.7956 153.745 11.6912 148.223 11.4296 142.614C10.7611 131.715 13.4641 121.193 18.6666 111.689Z" fill="#548582"/>
<path d="M21.8929 171.271C22.6776 167.638 22.0963 163.744 22.881 160.14C23.6367 156.565 24.6831 152.961 26.3397 149.705C27.9092 146.625 30.3216 144.416 33.1699 142.497C35.8438 140.695 38.9828 138.923 39.9419 135.609C40.4942 133.633 43.8366 133.923 43.6331 136.103C43.1681 140.521 41.3079 144.416 39.1571 148.252C36.832 152.321 34.8266 156.216 33.6931 160.779C31.7457 168.597 30.06 178.741 21.1662 181.153C20.0327 181.415 20.1781 179.09 21.8929 171.271Z" fill="#B6D5C6"/>
<path d="M20.0036 91.9834C26.485 95.2968 33.0827 97.215 40.436 97.0697C47.3242 96.9244 54.009 95.0933 57.9037 88.9026C60.4613 84.8045 53.98 81.0261 51.4223 85.1242C48.8065 89.3095 43.5749 89.6001 39.099 89.5711C33.5767 89.542 28.6648 88.0016 23.782 85.5021C19.5095 83.3222 15.7021 89.8036 20.0036 91.9834Z" fill="#F8CDBA"/>
<path d="M119.956 85.5311C115.073 88.0306 110.19 89.542 104.639 89.6001C99.9307 89.6292 95.6582 89.106 93.0133 84.8045C90.4847 80.7064 84.0033 84.4848 86.5319 88.5829C88.1886 91.2568 90.4557 93.611 93.275 95.0352C96.443 96.6337 99.7854 97.0116 103.302 97.0697C110.656 97.215 117.224 95.2967 123.734 91.9834C128.036 89.8036 124.229 83.3222 119.956 85.5311Z" fill="#F8CDBA"/>
<path d="M142.656 116.02L140.098 129.971L128.879 120.699L142.656 116.02Z" fill="#F5B75B"/>
<path d="M41.5983 15.3985C45.7545 15.3985 49.126 12.027 49.126 7.87082C49.126 3.7146 45.7545 0.343147 41.5983 0.343147C37.4421 0.343147 34.0706 3.7146 34.0706 7.87082C34.0706 12.027 37.4421 15.3985 41.5983 15.3985Z" fill="#FFE6C2"/>
<path d="M48.7485 22.9843C48.6903 22.9843 48.6323 22.9553 48.5741 22.8681C48.5451 22.7809 48.5741 22.6937 48.6613 22.6356L49.4461 22.2868L49.0973 21.5021C49.0682 21.4149 49.0972 21.3277 49.1844 21.2696C49.2716 21.2405 49.3588 21.2695 49.417 21.3567L49.882 22.4612L48.7485 22.9843C48.8066 22.9843 48.7775 22.9843 48.7485 22.9843Z" fill="#3C4047"/>
<path d="M32.7626 29.9598C32.7045 29.9598 32.6464 29.9308 32.5883 29.8436C32.5592 29.7564 32.5883 29.6692 32.6755 29.6111L34.6809 28.7391C34.7681 28.7101 34.8553 28.7392 34.9134 28.8263C34.9425 28.9135 34.9134 29.0007 34.8262 29.0588L32.8208 29.9308C32.8208 29.9598 32.7917 29.9598 32.7626 29.9598ZM36.7735 28.216C36.7154 28.216 36.6573 28.1869 36.5992 28.0997C36.5701 28.0125 36.5991 27.9253 36.6863 27.8672L38.6918 26.9953C38.779 26.9662 38.8662 26.9953 38.9244 27.0825C38.9534 27.1697 38.9243 27.2568 38.8372 27.315L36.8317 28.1869C36.8026 28.216 36.8026 28.216 36.7735 28.216ZM40.7554 26.4721C40.6972 26.4721 40.6391 26.4431 40.581 26.3559C40.552 26.2687 40.581 26.1815 40.6682 26.1233L42.6736 25.2514C42.7608 25.2223 42.848 25.2514 42.9062 25.3386C42.9352 25.4258 42.9062 25.513 42.819 25.5711L40.8135 26.443C40.8135 26.4721 40.7844 26.4721 40.7554 26.4721ZM44.7663 24.6992C44.7081 24.6992 44.6501 24.6701 44.5919 24.5829C44.5629 24.4957 44.5919 24.4085 44.6791 24.3504L46.6846 23.4785C46.7718 23.4494 46.859 23.4785 46.9171 23.5656C46.9462 23.6528 46.9171 23.7401 46.8299 23.7982L44.8244 24.6701C44.7953 24.6992 44.7953 24.6992 44.7663 24.6992Z" fill="#3C4047"/>
<path d="M29.7401 31.2968L29.2751 30.1923C29.246 30.1051 29.2751 30.0179 29.3623 29.9598C29.4495 29.9307 29.5367 29.9598 29.5948 30.047L29.9436 30.8317L30.7283 30.483C30.8155 30.4539 30.9027 30.483 30.9608 30.5702C30.9899 30.6574 30.9608 30.7446 30.8736 30.8027L29.7401 31.2968Z" fill="#3C4047"/>
<path d="M28.6066 28.4485C28.5485 28.4485 28.4903 28.4194 28.4322 28.3322L27.6184 26.4721C27.5893 26.3849 27.6184 26.2977 27.7056 26.2396C27.7928 26.2105 27.88 26.2396 27.9381 26.3268L28.752 28.1869C28.781 28.2741 28.7519 28.3613 28.6647 28.4194C28.6647 28.4485 28.6357 28.4485 28.6066 28.4485ZM26.979 24.7282C26.9209 24.7282 26.8627 24.6992 26.8046 24.612L25.9908 22.7519C25.9618 22.6647 25.9908 22.5775 26.078 22.5193C26.1652 22.4903 26.2524 22.5193 26.3105 22.6065L27.1243 24.4667C27.1534 24.5539 27.1243 24.641 27.0371 24.6992C27.0371 24.7282 27.0081 24.7282 26.979 24.7282ZM25.3514 21.037C25.2932 21.037 25.2351 21.008 25.177 20.9208L24.3632 19.0606C24.3341 18.9734 24.3632 18.8863 24.4504 18.8281C24.5376 18.7991 24.6248 18.8281 24.6829 18.9153L25.4967 20.7755C25.5257 20.8626 25.4967 20.9499 25.4095 21.008C25.4095 21.037 25.3804 21.037 25.3514 21.037Z" fill="#3C4047"/>
<path d="M23.7529 17.3168C23.6948 17.3168 23.6367 17.2878 23.5786 17.2006L23.1135 16.0961L24.218 15.6311C24.3052 15.602 24.3924 15.6311 24.4505 15.7183C24.4796 15.8054 24.4505 15.8927 24.3633 15.9508L23.5786 16.2995L23.9273 17.0843C23.9564 17.1715 23.9273 17.2587 23.8401 17.3168C23.782 17.3168 23.7529 17.3168 23.7529 17.3168Z" fill="#3C4047"/>
<path d="M26.2527 15.1079C26.1946 15.1079 26.1364 15.0788 26.0783 14.9916C26.0492 14.9044 26.0783 14.8173 26.1655 14.7591L28.171 13.8872C28.2582 13.8581 28.3453 13.8872 28.4034 13.9744C28.4325 14.0616 28.4035 14.1488 28.3163 14.2069L26.3108 15.0788C26.3108 15.0788 26.2818 15.1079 26.2527 15.1079ZM30.2636 13.335C30.2055 13.335 30.1473 13.3059 30.0892 13.2187C30.0601 13.1315 30.0892 13.0443 30.1764 12.9862L32.1818 12.1143C32.269 12.0852 32.3562 12.1143 32.4143 12.2015C32.4434 12.2887 32.4143 12.3759 32.3271 12.434L30.3217 13.3059C30.3217 13.335 30.2636 13.335 30.2636 13.335ZM34.2454 11.5911C34.1873 11.5911 34.1291 11.562 34.071 11.4748C34.0419 11.3877 34.071 11.3005 34.1582 11.2424L36.1637 10.3704C36.2509 10.3414 36.338 10.3704 36.3962 10.4576C36.4252 10.5448 36.3962 10.632 36.309 10.6901L34.3035 11.5621C34.3035 11.5911 34.3036 11.5911 34.2454 11.5911ZM38.2563 9.84724C38.1982 9.84724 38.14 9.81817 38.0819 9.73098C38.0529 9.64378 38.0819 9.55661 38.1691 9.49848L40.1745 8.62655C40.2617 8.59748 40.349 8.62653 40.4071 8.71372C40.4361 8.80091 40.4071 8.88812 40.3199 8.94625L38.3145 9.81819C38.3145 9.84725 38.2854 9.84724 38.2563 9.84724Z" fill="#3C4047"/>
<path d="M43.6041 8.62651C43.5459 8.62651 43.4878 8.59744 43.4297 8.51025L43.0809 7.72549L42.2962 8.07428C42.209 8.10335 42.1218 8.07427 42.0636 7.98707C42.0346 7.89988 42.0636 7.81271 42.1508 7.75458L43.2553 7.28952L43.7204 8.39398C43.7494 8.48118 43.7203 8.56839 43.6332 8.62651C43.6622 8.62651 43.6331 8.62651 43.6041 8.62651Z" fill="#3C4047"/>
<path d="M48.4577 19.7873C48.3995 19.7873 48.3415 19.7582 48.2833 19.671L47.4695 17.8109C47.4404 17.7237 47.4695 17.6365 47.5567 17.5784C47.6439 17.5202 47.7311 17.5784 47.7892 17.6656L48.603 19.5257C48.6321 19.6129 48.603 19.7001 48.5159 19.7582C48.5449 19.7582 48.4867 19.7873 48.4577 19.7873ZM46.8591 16.038C46.801 16.038 46.7429 16.0089 46.6848 15.9217L45.871 14.0616C45.8419 13.9744 45.871 13.8872 45.9582 13.8291C46.0454 13.8 46.1326 13.8291 46.1907 13.9163L47.0044 15.7764C47.0335 15.8636 47.0045 15.9508 46.9173 16.0089C46.8882 16.038 46.8591 16.038 46.8591 16.038ZM45.2316 12.3468C45.1734 12.3468 45.1153 12.3177 45.0571 12.2305L44.2433 10.3704C44.2143 10.2832 44.2433 10.196 44.3305 10.1379C44.4177 10.1088 44.5049 10.1379 44.5631 10.2251L45.3769 12.0852C45.4059 12.1724 45.3769 12.2596 45.2897 12.3177C45.2606 12.3468 45.2606 12.3468 45.2316 12.3468Z" fill="#3C4047"/>
<path d="M132.192 134.185L131.262 133.836C131.175 133.807 131.146 133.72 131.175 133.662C131.204 133.575 131.291 133.546 131.349 133.575L132.018 133.807L132.25 133.139C132.279 133.052 132.367 133.022 132.425 133.052C132.512 133.081 132.541 133.168 132.512 133.226L132.192 134.185Z" fill="#3C4047"/>
<path d="M129.838 133.313C129.809 133.313 129.809 133.313 129.809 133.313L128.385 132.79C128.298 132.761 128.269 132.674 128.298 132.616C128.327 132.528 128.414 132.499 128.472 132.528L129.896 133.052C129.983 133.081 130.012 133.168 129.983 133.226C129.983 133.284 129.925 133.313 129.838 133.313ZM126.99 132.238C126.961 132.238 126.961 132.238 126.961 132.238L125.537 131.715C125.449 131.686 125.42 131.598 125.449 131.54C125.478 131.453 125.566 131.424 125.624 131.453L127.048 131.976C127.135 132.005 127.164 132.092 127.135 132.151C127.077 132.18 127.048 132.238 126.99 132.238ZM124.083 131.162C124.054 131.162 124.054 131.162 124.054 131.162L122.63 130.639C122.543 130.61 122.514 130.523 122.543 130.465C122.572 130.378 122.659 130.349 122.717 130.378L124.141 130.901C124.229 130.93 124.258 131.017 124.229 131.075C124.229 131.133 124.141 131.162 124.083 131.162ZM121.206 130.087C121.177 130.087 121.177 130.087 121.177 130.087L119.753 129.564C119.665 129.535 119.636 129.448 119.665 129.389C119.695 129.302 119.782 129.273 119.84 129.302L121.264 129.825C121.351 129.854 121.38 129.942 121.351 130C121.322 130.029 121.264 130.087 121.206 130.087Z" fill="#3C4047"/>
<path d="M118.329 129.012C118.3 129.012 118.3 129.012 118.3 129.012L117.37 128.663L117.718 127.733C117.747 127.646 117.835 127.617 117.893 127.646C117.98 127.675 118.009 127.762 117.98 127.82L117.747 128.488L118.416 128.721C118.503 128.75 118.532 128.837 118.503 128.895C118.445 128.983 118.387 129.012 118.329 129.012Z" fill="#3C4047"/>
<path d="M118.387 126.483C118.358 126.483 118.358 126.483 118.358 126.483C118.27 126.454 118.241 126.367 118.27 126.309L118.794 124.884C118.823 124.797 118.91 124.768 118.968 124.797C119.055 124.826 119.084 124.913 119.055 124.972L118.532 126.396C118.474 126.425 118.416 126.483 118.387 126.483ZM119.433 123.606C119.404 123.606 119.404 123.606 119.404 123.606C119.317 123.577 119.288 123.489 119.317 123.431L119.84 122.007C119.869 121.92 119.956 121.891 120.014 121.92C120.101 121.949 120.13 122.036 120.101 122.094L119.578 123.518C119.549 123.577 119.491 123.606 119.433 123.606ZM120.508 120.728C120.479 120.728 120.479 120.728 120.479 120.728C120.392 120.699 120.363 120.612 120.392 120.554L120.915 119.13C120.944 119.042 121.032 119.013 121.09 119.042C121.177 119.072 121.206 119.159 121.177 119.217L120.654 120.641C120.625 120.67 120.567 120.728 120.508 120.728ZM121.584 117.822C121.555 117.822 121.555 117.822 121.555 117.822C121.467 117.793 121.438 117.705 121.468 117.647L121.991 116.223C122.02 116.136 122.107 116.107 122.165 116.136C122.252 116.165 122.281 116.252 122.252 116.31L121.729 117.735C121.7 117.822 121.642 117.822 121.584 117.822Z" fill="#3C4047"/>
<path d="M122.659 114.973C122.63 114.973 122.63 114.973 122.63 114.973C122.543 114.944 122.514 114.857 122.543 114.799L122.892 113.869L123.822 114.218C123.909 114.247 123.938 114.334 123.909 114.392C123.88 114.479 123.793 114.508 123.735 114.479L123.066 114.247L122.834 114.915C122.776 114.915 122.717 114.973 122.659 114.973Z" fill="#3C4047"/>
<path d="M135.273 118.752C135.244 118.752 135.244 118.752 135.244 118.752L133.82 118.229C133.733 118.2 133.704 118.112 133.733 118.054C133.762 117.967 133.849 117.938 133.907 117.967L135.331 118.49C135.419 118.519 135.448 118.606 135.419 118.665C135.39 118.723 135.331 118.752 135.273 118.752ZM132.396 117.676C132.367 117.676 132.367 117.676 132.367 117.676L130.943 117.153C130.855 117.124 130.826 117.037 130.855 116.979C130.885 116.892 130.972 116.863 131.03 116.892L132.454 117.415C132.541 117.444 132.57 117.531 132.541 117.589C132.512 117.647 132.454 117.676 132.396 117.676ZM129.519 116.601C129.489 116.601 129.489 116.601 129.489 116.601L128.065 116.078C127.978 116.049 127.949 115.962 127.978 115.903C128.007 115.816 128.094 115.787 128.153 115.816L129.577 116.339C129.664 116.369 129.693 116.456 129.664 116.514C129.635 116.572 129.577 116.601 129.519 116.601ZM126.641 115.526C126.612 115.526 126.612 115.526 126.612 115.526L125.188 115.003C125.101 114.973 125.072 114.886 125.101 114.828C125.13 114.741 125.217 114.712 125.275 114.741L126.699 115.264C126.786 115.293 126.815 115.38 126.786 115.438C126.757 115.497 126.699 115.526 126.641 115.526Z" fill="#3C4047"/>
<path d="M137.221 120.379C137.192 120.379 137.192 120.379 137.192 120.379C137.104 120.35 137.075 120.263 137.104 120.205L137.337 119.537L136.668 119.304C136.581 119.275 136.552 119.188 136.581 119.13C136.61 119.042 136.697 119.013 136.756 119.042L137.686 119.391L137.337 120.321C137.337 120.35 137.279 120.379 137.221 120.379Z" fill="#3C4047"/>
<path d="M132.919 131.918C132.89 131.918 132.89 131.918 132.89 131.918C132.803 131.889 132.774 131.802 132.803 131.744L133.326 130.319C133.355 130.232 133.442 130.203 133.5 130.232C133.588 130.261 133.617 130.349 133.588 130.407L133.064 131.831C133.035 131.86 132.977 131.918 132.919 131.918ZM133.995 129.012C133.965 129.012 133.965 129.012 133.965 129.012C133.878 128.983 133.849 128.895 133.878 128.837L134.401 127.413C134.431 127.326 134.518 127.297 134.576 127.326C134.663 127.355 134.692 127.442 134.663 127.5L134.14 128.924C134.111 128.983 134.053 129.012 133.995 129.012ZM135.07 126.163C135.041 126.163 135.041 126.163 135.041 126.163C134.954 126.134 134.925 126.047 134.954 125.989L135.477 124.565C135.506 124.478 135.593 124.448 135.651 124.478C135.738 124.507 135.767 124.594 135.738 124.652L135.215 126.076C135.186 126.105 135.128 126.163 135.07 126.163ZM136.145 123.257C136.116 123.257 136.116 123.257 136.116 123.257C136.029 123.228 136 123.141 136.029 123.082L136.552 121.658C136.581 121.571 136.668 121.542 136.727 121.571C136.814 121.6 136.843 121.687 136.814 121.745L136.291 123.17C136.262 123.228 136.203 123.257 136.145 123.257Z" fill="#3C4047"/>
<path d="M93.0136 65.7964C93.0136 65.7964 89.3806 54.2578 88.1889 49.3749C86.2998 41.8472 81.1844 37.3422 73.9474 37.3422C66.6231 37.3422 61.4496 41.9635 59.4151 49.433C57.3515 57.1351 54.6195 65.186 54.6195 65.186C54.2998 66.2033 54.7939 67.3077 55.7821 67.7146C58.1072 68.6447 62.99 70.2723 73.9183 70.156C83.6839 70.0398 88.7121 68.6737 91.2407 68.3831C92.5196 68.2378 93.3333 66.988 93.0136 65.7964Z" fill="#3C4047"/>
<path d="M78.1035 62.1342H69.762V76.3176C69.762 77.5093 70.7211 78.4684 71.9128 78.4684H75.9527C77.1444 78.4684 78.1035 77.5093 78.1035 76.3176V62.1342Z" fill="#F8CDBA"/>
<path d="M73.8019 36.2378C76.6793 36.2378 79.0045 33.9126 79.0045 31.0352C79.0045 28.1579 76.6793 25.8327 73.8019 25.8327C70.9246 25.8327 68.5994 28.1579 68.5994 31.0352C68.5994 33.9126 70.9536 36.2378 73.8019 36.2378Z" fill="#3C4047"/>
<path d="M61.5658 63.8199C60.1997 63.8199 60.1707 59.2568 60.1707 58.7627C60.1707 58.2686 60.1997 53.7055 61.5658 53.7055C62.9318 53.7055 62.9609 58.2396 62.9609 58.7627C62.9318 59.2859 62.9027 63.8199 61.5658 63.8199ZM61.5658 54.4902C61.3332 54.8099 60.9264 56.2632 60.9264 58.7627C60.9264 61.2332 61.3042 62.6864 61.5658 63.0352C61.7983 62.7155 62.2052 61.2623 62.2052 58.7627C62.2052 56.2632 61.7983 54.839 61.5658 54.4902Z" fill="white"/>
<path d="M86.0379 63.8199C84.6719 63.8199 84.6428 59.2568 84.6428 58.7627C84.6428 58.2686 84.6719 53.7055 86.0379 53.7055C87.404 53.7055 87.433 58.2396 87.433 58.7627C87.433 59.2859 87.3749 63.8199 86.0379 63.8199ZM86.0379 54.4902C85.8054 54.8099 85.3985 56.2632 85.3985 58.7627C85.3985 61.2332 85.7764 62.6864 86.0379 63.0352C86.2704 62.7155 86.6773 61.2623 86.6773 58.7627C86.6773 56.2632 86.2995 54.839 86.0379 54.4902Z" fill="white"/>
<path d="M73.9473 65.2441C81.5621 65.2441 87.7238 59.0824 87.7238 51.4675C87.7238 43.8526 81.5621 37.691 73.9473 37.691C66.3324 37.691 60.1707 43.8526 60.1707 51.4675C60.1707 59.0824 66.3324 65.2441 73.9473 65.2441Z" fill="#F8CDBA"/>
<path d="M59.8508 52.4557C59.8799 52.6882 59.8799 52.8917 59.9089 53.1242C59.9089 53.1533 59.9089 53.1823 59.9089 53.2114C59.938 53.4439 59.967 53.6764 60.0252 53.938V53.9671C60.0542 54.1996 60.1414 54.4612 60.1705 54.7227C61.1006 50.9153 64.5011 48.096 68.5992 48.096C69.1224 48.096 69.6165 48.1251 70.0815 48.2123C70.4593 48.2995 70.8081 48.3286 71.215 48.3286C73.7727 48.3286 75.8944 46.3812 76.185 43.8817C76.185 43.8817 76.2141 43.8817 76.2141 43.8526C76.185 44.1142 76.156 44.3758 76.156 44.6374C76.156 47.5729 78.5393 49.9562 81.4748 49.9562H81.5039C84.3812 50.5375 86.6773 52.6592 87.5202 55.4203C87.6946 54.8099 87.8399 54.1705 87.9271 53.5311C87.9271 53.502 87.9271 53.502 87.9271 53.4439C87.9561 53.1823 87.9852 52.9207 88.0143 52.6301C88.0143 52.572 88.0434 52.4848 88.0434 52.4266C88.0724 52.1069 88.0724 51.8163 88.0724 51.4966C88.0724 51.235 88.0724 50.9734 88.0434 50.7409C88.0434 50.6537 88.0143 50.5956 88.0143 50.5084C87.9852 50.334 87.9852 50.1305 87.9852 49.9852C87.9852 49.898 87.9562 49.8109 87.9562 49.7527C87.9271 49.5783 87.9271 49.4039 87.898 49.2296C87.869 49.1424 87.869 49.0552 87.869 48.997C87.8399 48.8226 87.8109 48.6483 87.7527 48.4739C87.7237 48.3867 87.7236 48.3285 87.7236 48.2414C87.6946 48.067 87.6364 47.8926 87.5783 47.7182C87.5492 47.6601 87.5493 47.6019 87.5202 47.5438C87.4621 47.3694 87.4039 47.166 87.3458 46.9916C87.3167 46.9625 87.3168 46.8753 87.3168 46.8463C87.2586 46.6428 87.1714 46.4394 87.0842 46.265C87.0552 46.2359 87.0551 46.2069 87.0551 46.1778C86.9679 45.9453 86.8807 45.7127 86.7645 45.5093C85.5438 42.9226 83.5674 40.7427 81.0969 39.3186C80.3122 38.8826 79.4984 38.4757 78.6264 38.1851C78.5974 38.1851 78.5683 38.156 78.5392 38.156C78.3067 38.0688 78.0452 37.9816 77.7836 37.9235C77.7545 37.8944 77.6964 37.8944 77.6673 37.8944C77.1151 37.7491 76.5338 37.6328 75.9816 37.5457C75.8944 37.5166 75.8363 37.5166 75.7491 37.5166C75.5166 37.4875 75.3131 37.4875 75.0806 37.4584C74.9934 37.4584 74.9062 37.4294 74.8481 37.4294C74.5574 37.4003 74.2668 37.4003 73.9761 37.4003C66.1868 37.4003 59.8799 43.7073 59.8799 51.4966C59.8799 51.7582 59.8799 52.0197 59.9089 52.2813C59.8508 52.3685 59.8508 52.4266 59.8508 52.4557Z" fill="#3C4047"/>
<path d="M87.3752 74.3703C83.8584 72.2777 79.8474 71.5511 78.1036 71.2895C77.5513 73.5856 76.3888 74.8644 73.8021 74.8644C71.1863 74.8644 70.2853 73.5565 69.7912 71.2023C69.268 71.2314 67.6404 71.5511 67.2626 71.6383C62.496 72.5683 60.5777 73.789 58.1944 75.562C54.5323 78.294 50.9283 83.9907 50.1726 85.2986C50.0564 85.473 50.0564 85.6764 50.1726 85.8217C50.6086 86.4902 51.8002 88.176 53.486 89.2804C55.8693 90.8499 58.6885 91.7218 58.6885 91.7218C58.6885 91.7218 59.822 89.6292 60.1708 88.8445C60.6068 87.7981 61.7984 84.2813 61.7984 84.2813C61.7984 84.2813 60.723 86.6355 60.6359 89.077C60.5777 91.3149 61.3334 93.8435 61.2753 95.2968C61.1009 98.6682 60.1127 101.575 59.7639 102.912C59.6767 103.231 59.8802 103.551 60.1999 103.609C62.0309 104.016 67.466 105.237 73.0173 105.237C80.1962 105.237 85.1372 104.452 86.8811 104.19C87.2008 104.132 87.4042 103.813 87.3171 103.493C87.0264 102.359 86.5323 100.383 86.0382 95.9943C85.6603 92.5647 86.0672 91.8962 86.0382 89.4839C86.0382 87.7109 85.3116 84.136 85.3116 84.136L86.0092 90.9371C86.0092 90.9371 88.5377 91.0533 92.1417 89.4839C93.3915 88.9316 94.961 87.5075 95.6294 86.8681C95.8038 86.6937 95.862 86.403 95.7457 86.1705C94.8157 84.2813 90.8048 76.4339 87.3752 74.3703Z" fill="#FCF5F3"/>
<path d="M73.9475 65.2441C72.4943 65.2441 71.0992 65.0116 69.7913 64.6047V67.1915C71.0992 67.5984 72.5233 67.6274 74.0056 67.4821C75.9529 67.3077 76.7958 66.9299 78.1037 66.3486V64.6047C76.7958 65.0116 75.4007 65.2441 73.9475 65.2441Z" fill="#D85F47"/>
<path d="M62.0889 104.045C62.0889 104.045 68.89 105.179 73.6565 105.179C78.6847 105.179 84.9335 104.452 84.9335 104.452C84.9335 104.452 85.4858 108.027 85.7183 108.812C85.9508 109.597 81.5911 111.137 73.86 110.992C63.7165 110.817 61.3041 109.364 61.3041 108.957C61.246 108.666 62.0889 104.045 62.0889 104.045Z" fill="#F8CDBA"/>
<path d="M88.1889 111.195C94.4668 123.693 97.4314 131.54 99.1171 148.31C100.541 162.407 98.7392 181.24 98.4486 191.994C98.4486 192.314 98.3614 192.663 98.187 192.924C97.6639 193.738 94.4086 194.407 93.5076 194.494C88.9736 194.814 84.7302 194.145 84.3233 192.547C81.9981 183.072 80.1671 173.102 78.8592 163.22C77.7838 155.024 76.534 145.898 75.8074 139.155C75.7493 138.603 74.9355 138.574 74.8774 139.155C74.7611 140.289 74.6158 146.567 74.4414 148.427C73.9764 153.716 73.1044 158.919 72.2616 164.151C70.8955 172.463 67.6984 184.205 65.257 192.111C65.0826 192.634 64.5304 193.389 63.9201 193.477C62.8447 193.651 60.2288 193.854 58.8628 193.767C56.8283 193.593 52.5849 193.012 52.3524 191.994C49.2716 179.177 49.1843 154.501 53.6312 128.837C54.7066 122.734 57.148 115.904 59.4151 111.805C59.4151 111.805 66.6812 113.23 73.366 113.23C81.3878 113.171 88.1889 111.195 88.1889 111.195Z" fill="#B6D5C6"/>
<path d="M32.1527 35.2786L23.1136 32.3722C22.5904 32.1978 22.2707 31.6165 22.4451 31.0643L24.3634 25.1642C24.5378 24.641 25.1191 24.3213 25.6713 24.4957L34.7104 27.4022C35.2335 27.5765 35.5532 28.1578 35.3788 28.7101L33.4606 34.6101C33.2571 35.1624 32.6759 35.4821 32.1527 35.2786Z" fill="#4C9789"/>
<path d="M36.3378 30.3377C35.96 30.3377 35.6403 30.5702 35.5531 30.919L35.2334 31.9072L34.9137 32.8954C34.7974 33.2441 34.9137 33.622 35.2334 33.8254L37.6748 35.6565C38.1399 36.0343 38.8374 35.8018 39.0117 35.2205L39.6512 33.2732L40.2906 31.3259C40.465 30.7446 40.0581 30.1924 39.4477 30.1924L36.3378 30.3377Z" fill="#4C9789"/>
<path d="M61.2463 108.986C61.2463 108.986 60.4616 109.161 59.9675 110.003C59.5025 110.817 59.3862 111.805 59.3862 111.805C59.3862 111.805 64.6469 113.375 74.616 113.636C84.2654 113.869 88.1892 111.224 88.1892 111.224C88.1892 111.224 87.8404 110.149 87.0266 109.655C86.2128 109.19 85.6605 108.87 85.6605 108.87C85.6605 108.87 82.6378 111.544 73.4534 110.904C64.269 110.178 61.2463 108.986 61.2463 108.986Z" fill="#548582"/>
<path d="M19.3643 49.7527L16.2253 49.9852L17.6205 69.0515L20.7594 68.819L19.3643 49.7527Z" fill="#FCEAE0"/>
<path d="M17.446 52.4557L16.3706 52.5429L16.3997 52.7754L17.4751 52.6882L17.446 52.4557Z" fill="#B6D5C6"/>
<path d="M17.6203 54.5775L16.5449 54.6646L16.5739 54.8972L17.6493 54.8099L17.6203 54.5775Z" fill="#B6D5C6"/>
<path d="M17.7946 56.7282L16.7192 56.8154L16.7483 57.0479L17.8237 56.9607L17.7946 56.7282Z" fill="#B6D5C6"/>
<path d="M17.9401 58.8499L16.8647 58.9371L16.8938 59.1696L17.9692 59.0824L17.9401 58.8499Z" fill="#B6D5C6"/>
<path d="M18.0851 61.0007L17.0098 61.0879L17.0389 61.3204L18.1142 61.2332L18.0851 61.0007Z" fill="#B6D5C6"/>
<path d="M18.2306 63.1224L17.1553 63.2096L17.1844 63.4421L18.2597 63.3549L18.2306 63.1224Z" fill="#B6D5C6"/>
<path d="M18.4052 65.2441L17.3298 65.3313L17.3589 65.5638L18.4343 65.4766L18.4052 65.2441Z" fill="#B6D5C6"/>
<path d="M16.138 56.2923L14.1326 56.641L16.7774 71.6965L18.7829 71.3477L16.138 56.2923Z" fill="#F68069"/>
<path d="M16.138 56.2923L14.1326 56.641L14.4522 53.7636L14.8592 53.6765L16.138 56.2923Z" fill="#FCEAE0"/>
<path d="M14.5685 55.1006L14.8591 54.9262L15.0916 54.9553L15.4113 54.8099L14.8881 53.7346L14.4813 53.8218L14.3359 54.9553L14.5685 55.1006Z" fill="#F68069"/>
<path d="M20.7882 68.5575C20.4394 68.4993 20.2069 68.1796 20.265 67.8309L21.8345 57.7746C21.8636 57.6874 21.8636 57.6002 21.8926 57.542L22.7937 55.0134C22.9099 54.7228 23.2296 54.5484 23.5203 54.6065L23.6656 54.6356C23.9853 54.6937 24.1887 54.9844 24.1887 55.3041L23.9853 57.978C23.9853 58.0652 23.9562 58.1524 23.9562 58.2396L21.5729 68.1215C21.4566 68.4121 21.137 68.6447 20.7882 68.5575Z" fill="#548582"/>
<path d="M32.5594 75.4457H19.5095V79.8054H32.5594V75.4457Z" fill="#FCEAE0"/>
<path d="M33.1117 75.126V75.4457H19.4804V79.8054H33.1117V80.1251H5.09351V75.097H33.1117V75.126Z" fill="#F68069"/>
<path d="M15.4116 87.6237H34.6813V80.5901H15.4116C14.4524 80.5901 13.6968 81.3749 13.6968 82.305V85.8799C13.6968 86.8681 14.4524 87.6237 15.4116 87.6237Z" fill="#FCEAE0"/>
<path d="M4.01826 80.1542H35.5532C35.6695 80.1542 35.7857 80.2704 35.7857 80.3867C35.7857 80.503 35.6695 80.6192 35.5532 80.6192H31.6876H17.2135C15.2662 80.6192 13.6967 82.1887 13.6967 84.136C13.6967 86.0833 15.2662 87.6528 17.2135 87.6528H35.0882H35.5532C35.6695 87.6528 35.7857 87.7691 35.7857 87.8853C35.7857 88.0016 35.6695 88.1179 35.5532 88.1179H3.98917C2.04185 88.1179 0.472412 86.5484 0.472412 84.601V83.7291C0.501477 81.7237 2.07094 80.1542 4.01826 80.1542Z" fill="#548582"/>
<path d="M34.7103 81.7237H16.4287V81.9562H34.7103V81.7237Z" fill="#FFE6C2"/>
<path d="M34.7103 84.6301H15.0918V84.8626H34.7103V84.6301Z" fill="#FFE6C2"/>
<path d="M34.7101 86.1415H17.5039V86.374H34.7101V86.1415Z" fill="#FFE6C2"/>
<path d="M34.7101 83.2641H15.6729V83.4966H34.7101V83.2641Z" fill="#FFE6C2"/>
<path d="M19.7419 74.9516H7.73828V72.423H19.7419C20.0907 72.423 20.3522 72.6846 20.3522 73.0334V74.3122C20.3522 74.661 20.0907 74.9516 19.7419 74.9516Z" fill="#F5B75B"/>
<path d="M27.2117 72.2486H7.24443C7.21537 72.2486 7.15723 72.2777 7.15723 72.3358C7.15723 72.394 7.18631 72.423 7.24443 72.423H19.0737C19.7712 72.423 20.3234 73.0043 20.3234 73.6728C20.3234 74.3703 19.7421 74.9226 19.0737 74.9226H7.24443C7.21537 74.9226 7.15723 74.9516 7.15723 75.0098C7.15723 75.0388 7.18631 75.097 7.24443 75.097H27.2117C27.9093 75.097 28.4615 74.5157 28.4615 73.8472V73.4694C28.4615 72.8009 27.9093 72.2486 27.2117 72.2486Z" fill="#B6D5C6"/>
<path d="M14.743 61.6983H23.5205C23.7531 61.6983 23.9274 61.9017 23.8983 62.1342L22.6195 72.2486H15.5859L14.3652 62.1342C14.3362 61.9017 14.5105 61.6983 14.743 61.6983Z" fill="#4C9789"/>
<path d="M23.6948 54.5193L23.5495 54.4902C23.2298 54.4321 22.9101 54.6065 22.7939 54.8971L21.8637 57.4839C21.8347 57.513 21.8347 57.542 21.8347 57.6002C22.1254 57.8327 22.5032 58.0361 22.9101 58.0942C23.2879 58.1524 23.6658 58.1233 23.9855 58.0361C23.9855 58.0071 24.0146 57.978 24.0146 57.9199L24.218 55.1878C24.2471 54.8681 24.0145 54.6065 23.6948 54.5193Z" fill="#FFE6C2"/>
<path d="M23.7239 50.6247C23.8111 50.4503 24.0436 50.4503 24.1307 50.6247C24.2761 50.9153 24.4505 51.2641 24.5958 51.4966C24.8283 51.9326 24.9737 52.9208 24.8283 53.4149C24.683 53.9962 24.2761 54.5774 24.1598 54.7809C24.1308 54.81 24.1017 54.839 24.0435 54.8681C23.9273 54.8972 23.6948 54.9553 23.3751 54.8972C22.9391 54.7809 22.9101 54.5193 22.9101 54.5193C22.9101 54.5193 22.6776 53.5893 22.7066 53.008C22.7357 52.4267 23.0554 51.7001 23.2007 51.5838C23.2879 51.4385 23.5495 50.9735 23.7239 50.6247Z" fill="#D85F47"/>
<path d="M129.228 56.641C127.194 57.1932 125.072 55.9725 124.52 53.9671L123.531 50.3631C122.979 48.3286 124.2 46.2068 126.205 45.6546C128.24 45.1024 130.362 46.3231 130.914 48.3286L131.902 51.9326C132.483 53.9671 131.292 56.0888 129.228 56.641Z" fill="#4C9789"/>
<path d="M129.838 58.879C126.467 59.8091 123.008 57.8036 122.107 54.4612L121.991 53.9962C121.875 53.6183 122.107 53.2115 122.514 53.0952C122.892 52.9789 123.299 53.2114 123.415 53.6183L123.531 54.0834C124.229 56.641 126.903 58.1815 129.46 57.4549C132.018 56.7573 133.559 54.0834 132.832 51.5257L132.716 51.0607C132.599 50.6828 132.832 50.2759 133.239 50.1597C133.617 50.0434 134.024 50.2759 134.14 50.6828L134.256 51.1479C135.186 54.4903 133.181 57.9489 129.838 58.879Z" fill="#4C9789"/>
<path d="M134.227 59.8381C134.605 59.7218 134.721 59.3149 134.459 59.0243C133.239 57.6582 131.32 56.9898 129.46 57.5129C127.571 58.0361 126.263 59.5475 125.914 61.3785C125.856 61.7564 126.176 62.047 126.554 61.9598L134.227 59.8381Z" fill="#4C9789"/>
<path d="M110.598 78.1197C111.324 76.5502 113.359 75.2423 114.899 75.3586C116.44 75.4748 115.945 75.533 116.44 75.4748C116.934 75.4458 117.689 74.9226 118.707 75.2423C119.84 75.5911 122.281 76.8699 122.311 79.6892C122.34 82.1015 120.596 84.8627 117.399 85.5021C114.202 86.1415 112.051 84.9498 111.092 83.5838C109.987 81.9852 109.9 79.602 110.598 78.1197Z" fill="#F68069"/>
<path d="M115.597 77.3349C115.597 77.3349 115.364 73.7019 116.817 72.1614C118.445 70.4466 120.596 68.8771 120.45 69.8944C120.421 70.1269 120.77 73.6437 119.782 74.9516C118.271 76.9861 115.597 77.3349 115.597 77.3349Z" fill="#548582"/>
<path d="M115.19 77.1896C115.19 77.1896 114.899 75.6201 114.637 74.7482C114.056 72.9462 113.707 72.0743 113.707 72.0743L115.306 71.7255C115.306 71.7255 115.887 73.8472 116.003 74.6901C116.207 76.1433 116.091 77.1024 116.091 77.1024C116.091 77.1024 115.887 77.4221 115.596 77.3931C115.248 77.4221 115.19 77.1896 115.19 77.1896Z" fill="#3C4047"/>
<path d="M114.551 72.3358C114.987 72.2486 115.335 72.0161 115.277 71.8126C115.248 71.6092 114.841 71.493 114.405 71.5802C113.969 71.6673 113.621 71.8998 113.679 72.1033C113.708 72.3067 114.115 72.3939 114.551 72.3358Z" fill="#959FA6"/>
<path d="M145.446 88.0597H108.156C107.836 88.0597 107.575 87.7981 107.575 87.4784V85.9961C107.575 85.6764 107.836 85.4149 108.156 85.4149H145.417C145.736 85.4149 145.998 85.6764 145.998 85.9961V87.4784C146.027 87.7981 145.736 88.0597 145.446 88.0597Z" fill="#B6D5C6"/>
<path d="M126.496 84.9789H118.329V82.1015H126.496C126.728 82.1015 126.874 82.2759 126.874 82.4794V84.5429C126.932 84.7754 126.728 84.9789 126.496 84.9789Z" fill="#FFE6C2"/>
<path d="M141.202 81.6365H125.013H117.893H117.66C117.544 81.6365 117.427 81.7527 117.427 81.869C117.427 81.9853 117.544 82.1015 117.66 82.1015H118.329H126.06C126.525 82.1015 126.844 82.4794 126.844 82.8863V84.1651C126.844 84.6301 126.467 84.9789 126.06 84.9789H124.287H117.689C117.573 84.9789 117.457 85.0952 117.457 85.2114C117.457 85.3277 117.573 85.4439 117.689 85.4439H117.863H125.013H141.144C141.609 85.4439 141.929 85.0661 141.929 84.6592V82.5084C141.987 81.9852 141.638 81.6365 141.202 81.6365Z" fill="#F68069"/>
<path d="M130.477 81.433H117.311V78.6719H130.477C130.855 78.6719 131.175 78.9916 131.175 79.3694V80.7355C131.175 81.1424 130.884 81.433 130.477 81.433Z" fill="#F5B75B"/>
<path d="M138.732 78.4684H116.759C116.701 78.4684 116.643 78.4975 116.643 78.5847C116.643 78.6428 116.672 78.7009 116.759 78.7009H129.78C130.536 78.7009 131.175 79.3113 131.175 80.096C131.175 80.8517 130.565 81.4911 129.78 81.4911H116.759C116.701 81.4911 116.643 81.5202 116.643 81.6074C116.643 81.6655 116.672 81.7237 116.759 81.7237H138.732C139.488 81.7237 140.127 81.1133 140.127 80.3285V79.9216C140.098 79.0788 139.488 78.4684 138.732 78.4684Z" fill="#548582"/>
<path d="M127.339 80.6192H117.311V80.5029H127.339C127.368 80.5029 127.397 80.532 127.397 80.5611C127.397 80.5901 127.368 80.6192 127.339 80.6192Z" fill="#548582"/>
<path d="M129.635 79.7182H117.311V79.602H129.635C129.664 79.602 129.693 79.631 129.693 79.6601C129.693 79.6891 129.693 79.7182 129.635 79.7182Z" fill="#548582"/>
<path d="M111.498 37.8363C111.905 37.0225 110.539 35.5112 108.447 34.4358C106.354 33.3604 104.29 33.1279 103.883 33.9417C103.477 34.7555 104.843 36.2668 106.935 37.3422C109.057 38.4176 111.091 38.6501 111.498 37.8363Z" fill="#F5B75B"/>
<path d="M104.668 32.5756C105.453 31.1515 106.093 29.6982 106.412 28.1288C107.081 24.7282 106.18 20.7755 108.331 18.1015C109.9 16.1542 112.661 15.5729 115.132 15.9217C118.154 16.3577 121.003 18.1015 122.398 20.8045C123.764 23.5075 123.415 27.1115 121.264 29.2332C119.433 31.0061 116.701 31.5874 114.812 33.2732C113.737 34.2032 112.981 35.453 112.196 36.6446L111.935 37.0225C106.093 36.3831 104.668 32.5756 104.668 32.5756Z" fill="#FFE6C2"/>
<path d="M114.957 27.3149C114.724 26.4139 113.94 26.443 113.242 26.7627C113.068 26.2686 112.806 25.6292 112.312 25.4258C111.731 25.1932 111.091 25.6002 110.626 25.9489C109.638 26.7046 108.882 27.8091 108.447 28.9716C107.981 30.1052 107.778 31.3549 107.371 32.5175C107.197 32.9825 107.952 33.186 108.127 32.7209C108.65 31.2386 108.853 29.6401 109.667 28.2741C110.103 27.5184 110.772 26.6465 111.615 26.2977C111.876 26.1814 112.08 26.1524 112.254 26.414C112.399 26.6174 112.486 26.879 112.574 27.0824C112.574 27.1115 112.603 27.1115 112.603 27.1406C112.487 27.1987 112.428 27.2568 112.341 27.3149C111.527 27.8962 110.481 28.9716 110.51 30.047C110.51 30.5411 110.83 30.948 111.324 30.9771C111.876 31.0061 112.428 30.5992 112.777 30.1923C113.446 29.4367 113.649 28.4484 113.504 27.4893C113.678 27.3731 113.853 27.3149 114.027 27.3149C114.521 27.2859 114.288 28.0706 114.23 28.3322C113.998 29.2041 113.475 29.9889 112.981 30.7446C112.603 31.3259 112.283 31.9362 111.847 32.4303C111.353 33.0116 110.714 33.3894 110.074 33.7963C109.638 34.0579 110.045 34.7264 110.452 34.4648C111.179 33.9998 111.934 33.5347 112.486 32.8372C113.068 32.1106 113.562 31.2968 114.056 30.512C114.492 29.6692 115.248 28.3613 114.957 27.3149ZM112.632 28.6519C112.516 29.0588 112.341 29.4367 112.05 29.7564C111.876 29.9308 111.12 30.5411 111.179 29.9889C111.208 29.6401 111.498 29.2623 111.702 28.9716C111.963 28.5938 112.312 28.2741 112.69 27.9834C112.69 28.1869 112.69 28.4194 112.632 28.6519Z" fill="#F5B75B"/>
<path d="M106.964 37.3422C105.046 36.3831 103.767 35.017 103.825 34.1742L102.866 37.5747C102.547 38.2432 103.651 39.4639 105.337 40.3359C107.023 41.2078 108.708 41.4112 109.028 40.7428C109.057 40.7137 109.057 40.6846 109.057 40.6265L111.324 38.0107C110.714 38.592 108.883 38.3304 106.964 37.3422Z" fill="#FFE6C2"/>
<path d="M85.8056 11.2132C85.7766 11.2132 85.7766 11.2132 85.7475 11.1842C85.6603 11.1551 85.6312 11.0389 85.6603 10.9517C85.8056 10.632 85.98 10.3122 86.1835 10.0216C86.2416 9.93441 86.3579 9.90535 86.416 9.99255C86.5032 10.0507 86.5323 10.1669 86.4451 10.2251C86.2417 10.4867 86.0672 10.7773 85.951 11.097C85.951 11.1842 85.8928 11.2132 85.8056 11.2132Z" fill="#3C4047"/>
<path d="M113.475 21.7637C113.446 21.7637 113.446 21.7637 113.417 21.7346L113.184 21.6474C112.632 21.4439 112.051 21.2114 111.441 20.9789C111.353 20.9499 111.324 20.8336 111.324 20.7464C111.353 20.6592 111.47 20.6301 111.557 20.6301C112.138 20.8626 112.719 21.0952 113.272 21.2986L113.504 21.3858C113.591 21.4149 113.649 21.5311 113.62 21.6183C113.62 21.7346 113.562 21.7637 113.475 21.7637ZM109.58 20.136C109.551 20.136 109.522 20.1361 109.493 20.107C108.825 19.7582 108.214 19.3804 107.662 19.0025C107.575 18.9444 107.546 18.8281 107.633 18.77C107.691 18.6828 107.807 18.6537 107.866 18.7409C108.418 19.1188 108.999 19.4676 109.668 19.8163C109.755 19.8454 109.784 19.9616 109.755 20.0488C109.697 20.0779 109.638 20.136 109.58 20.136ZM106.151 17.6946C106.122 17.6946 106.064 17.6656 106.034 17.6365C105.511 17.1134 105.075 16.5611 104.668 15.9508C104.61 15.8636 104.639 15.7764 104.727 15.7182C104.814 15.6601 104.901 15.6892 104.959 15.7764C105.337 16.3577 105.744 16.8808 106.267 17.404C106.325 17.4621 106.325 17.5784 106.267 17.6365C106.238 17.6656 106.18 17.6946 106.151 17.6946ZM103.884 14.1488C103.826 14.1488 103.738 14.1197 103.709 14.0325C103.477 13.364 103.273 12.6665 103.186 11.9398C103.157 11.8236 103.244 11.7655 103.331 11.7364C103.448 11.7073 103.506 11.7945 103.535 11.8817C103.651 12.5502 103.797 13.2478 104.058 13.8872C104.087 13.9744 104.029 14.0616 103.942 14.1197C103.913 14.1487 103.884 14.1488 103.884 14.1488ZM105.017 11.9108C104.639 11.9108 104.232 11.8817 103.855 11.8236C103.738 11.7946 103.68 11.7073 103.709 11.6201C103.738 11.5039 103.826 11.4458 103.913 11.4748C104.291 11.533 104.668 11.562 105.046 11.562C105.366 11.562 105.686 11.5329 105.976 11.5039C106.093 11.4748 106.151 11.562 106.18 11.6492C106.209 11.7364 106.122 11.8236 106.034 11.8527C105.686 11.8817 105.337 11.9108 105.017 11.9108ZM101.82 11.3004C101.791 11.3004 101.791 11.3004 101.762 11.3004C101.181 11.097 100.57 10.8354 99.7856 10.4866C99.6984 10.4576 99.6694 10.3413 99.6984 10.2541C99.7275 10.1669 99.8438 10.1379 99.9309 10.1669C100.687 10.5157 101.297 10.7773 101.878 10.9807C101.965 11.0098 102.024 11.097 101.995 11.2132C101.965 11.2423 101.878 11.3004 101.82 11.3004ZM107.982 11.2132C107.924 11.2132 107.866 11.1842 107.836 11.1261C107.807 11.0389 107.807 10.9517 107.895 10.8935C108.214 10.7191 108.505 10.5157 108.767 10.2541C108.999 10.0507 109.202 9.81816 109.348 9.52752C109.377 9.44032 109.522 9.41124 109.58 9.46937C109.668 9.49843 109.697 9.64377 109.638 9.7019C109.464 10.0216 109.232 10.2832 108.97 10.4866C108.679 10.7482 108.389 10.9807 108.04 11.1551C108.04 11.2132 108.011 11.2132 107.982 11.2132ZM103.331 9.99254C103.215 9.96348 103.157 9.87629 103.157 9.81816C103.244 9.06248 103.448 8.36492 103.738 7.7255C103.767 7.6383 103.884 7.60926 103.971 7.63833C104.058 7.66739 104.087 7.78363 104.058 7.87082C103.767 8.45211 103.564 9.12061 103.477 9.84722C103.477 9.93441 103.39 9.99254 103.331 9.99254ZM97.9545 9.58563C97.9255 9.58563 97.9255 9.58564 97.8673 9.55657C97.6348 9.44032 97.4314 9.35313 97.1989 9.23687C96.7629 9.03342 96.327 8.85902 95.9491 8.7137C95.8619 8.68463 95.8038 8.5684 95.8328 8.4812C95.8619 8.39401 95.9782 8.33587 96.0654 8.36494C96.4723 8.53932 96.8792 8.68463 97.3442 8.88808C97.5768 9.00433 97.8092 9.09156 98.0127 9.20781C98.0999 9.23688 98.1289 9.35312 98.0999 9.44031C98.0708 9.5275 98.0127 9.58563 97.9545 9.58563ZM87.8401 8.88808C87.782 8.88808 87.7238 8.85903 87.6948 8.8009C87.6366 8.71371 87.6658 8.6265 87.753 8.56837C88.3343 8.19054 89.0317 7.89989 89.7293 7.69644C89.8455 7.66738 89.9037 7.72551 89.9328 7.81271C89.9619 7.92896 89.9037 7.98708 89.8165 8.01614C89.148 8.19053 88.5086 8.45212 87.9273 8.82996C87.9273 8.88809 87.8982 8.88808 87.8401 8.88808ZM94.0018 8.10335C93.9728 8.10335 93.9727 8.10335 93.9727 8.10335C93.2461 7.92896 92.5485 7.87083 91.9091 7.84176C91.7929 7.84176 91.7348 7.75458 91.7348 7.66738C91.7348 7.55113 91.8219 7.493 91.9091 7.493C92.5776 7.52207 93.3042 7.60927 94.0308 7.75459C94.1471 7.78366 94.1762 7.87083 94.1471 7.95803C94.1471 8.04522 94.089 8.10335 94.0018 8.10335ZM110.045 7.78365C109.929 7.78365 109.871 7.69646 109.871 7.60927C109.842 7.02798 109.638 6.50479 109.29 6.12695C109.202 6.03976 109.115 5.95259 109.057 5.89446C108.97 5.83633 108.97 5.72006 109.028 5.66193C109.086 5.57473 109.203 5.57474 109.261 5.63287C109.377 5.72006 109.464 5.80726 109.551 5.89446C109.987 6.35949 110.22 6.91172 110.249 7.60927C110.249 7.69646 110.162 7.78365 110.045 7.78365C110.074 7.78365 110.045 7.78365 110.045 7.78365ZM105.192 6.30137C105.134 6.30137 105.075 6.27228 105.046 6.24322C104.988 6.15602 105.017 6.06885 105.075 6.01072C105.657 5.57476 106.383 5.25505 107.081 5.13879C107.197 5.10972 107.255 5.19692 107.284 5.28411C107.313 5.40037 107.226 5.45848 107.139 5.48755C106.47 5.57474 105.831 5.86537 105.308 6.27227C105.279 6.30134 105.25 6.30137 105.192 6.30137Z" fill="#3C4047"/>
<path d="M116.294 23.1297C116.265 23.1297 116.207 23.1006 116.178 23.1006C116.004 22.9262 115.713 22.7519 115.364 22.5775C115.277 22.5484 115.248 22.4321 115.277 22.3449C115.306 22.2578 115.422 22.2287 115.51 22.2577C115.887 22.4612 116.178 22.6356 116.41 22.839C116.469 22.8972 116.498 23.0134 116.44 23.0716C116.411 23.1006 116.352 23.1297 116.294 23.1297Z" fill="#3C4047"/>
<path d="M114.783 1.09882C115.916 4.99346 115.829 8.59745 115.713 12.5793C115.684 13.6837 119.288 13.3349 119.549 12.3758C120.508 8.51024 119.84 4.35404 118.619 0.662852C118.212 -0.528791 114.463 0.0524981 114.783 1.09882Z" fill="#FFE6C2"/>
<path d="M130.158 8.77184C128.414 11.9108 126.234 14.4975 123.996 17.2587C123.008 18.4794 126.467 18.2759 127.077 17.6946C129.809 15.2823 131.96 12.0271 133.588 8.77184C134.082 7.84178 130.681 7.84178 130.158 8.77184Z" fill="#FFE6C2"/>
<path d="M129.548 25.1061C132.018 25.1642 134.459 25.2805 136.901 25.4258C137.773 25.4839 139.168 25.1351 139.429 24.1469C139.691 23.1587 138.528 22.6356 137.744 22.5775C135.273 22.4322 132.861 22.3449 130.39 22.2577C129.518 22.2287 128.152 22.5193 127.862 23.5366C127.6 24.5248 128.734 25.077 129.548 25.1061Z" fill="#FFE6C2"/>
<path d="M85.4277 84.0197C85.4277 84.0197 85.9509 87.0424 86.009 88.5247C86.0381 89.4257 86.009 90.8499 86.009 90.8499C86.009 90.8499 86.6775 90.8499 87.0263 90.8208C87.3751 90.7918 87.7819 90.7046 87.7819 90.7046C87.7819 90.7046 87.375 89.3386 86.9391 88.0016C86.5322 86.839 85.4277 84.0197 85.4277 84.0197Z" fill="#959FA6"/>
<path d="M61.8857 83.8744C61.8857 83.8744 61.159 85.9961 60.8102 87.3331C60.5777 88.3504 60.6649 89.2514 60.6068 89.5129C60.5196 89.9489 60.0836 91.1405 59.8802 91.6928C59.822 91.8672 59.6477 91.9544 59.4733 91.9253C59.1826 91.8672 58.7467 91.7509 58.4269 91.6637C57.9038 91.4893 57.5259 91.344 57.6131 91.3731C57.6131 91.3731 58.7467 89.7455 59.5895 88.3504C60.2871 87.1296 61.8857 83.8744 61.8857 83.8744Z" fill="#959FA6"/>
<path d="M85.8638 111.718C90.5141 120.932 93.3624 130.988 94.9028 141.161C96.5304 151.943 96.6758 162.901 96.1817 173.771C95.8911 180.049 95.3679 186.327 94.7575 192.605C94.6994 193.331 95.8039 193.302 95.862 192.605C96.9374 181.357 97.7803 170.08 97.4896 158.774C97.228 148.223 95.9783 137.644 93.1299 127.5C91.5605 121.891 89.4678 116.398 86.852 111.166C86.5032 110.527 85.5441 111.079 85.8638 111.718Z" fill="white"/>
<path d="M60.4905 111.922C56.4215 121.28 54.1834 131.279 52.9627 141.393C51.6839 151.769 51.3933 162.319 51.5095 172.754C51.5967 178.973 51.8874 185.135 52.614 191.326C52.7012 192.023 53.8056 192.052 53.7184 191.326C52.4687 180.543 52.4106 169.673 52.7884 158.832C53.1372 148.717 54.0091 138.603 56.247 128.692C57.4968 123.17 59.2117 117.676 61.4496 112.474C61.7403 111.834 60.7811 111.282 60.4905 111.922Z" fill="white"/>
<path d="M35.553 87.6237H35.0879H33.5475C33.4313 87.7981 33.315 87.9434 33.1697 88.0597H35.5239C35.6401 88.0597 35.7564 87.9435 35.7564 87.8272C35.7564 87.74 35.6692 87.6237 35.553 87.6237Z" fill="#548582"/>
<path d="M35.5531 80.5902C35.6694 80.5902 35.7857 80.4739 35.7857 80.3576C35.7857 80.2414 35.6694 80.1251 35.5531 80.1251H33.9546V80.5611L35.5531 80.5902Z" fill="#548582"/>
<path d="M32.6467 88.8445C31.7167 88.641 30.7575 88.3794 29.8275 88.0597H9.68579V88.1179C9.68579 88.5829 9.86021 89.0189 10.1509 89.4258H31.4841C31.9201 89.4258 32.298 89.2223 32.6467 88.8445Z" fill="#D85F47"/>
<path d="M111.15 88.8154C111.499 89.1932 111.906 89.4258 112.342 89.4258H134.663C134.779 89.1642 134.837 88.9026 134.808 88.5829V88.0597H113.882C112.952 88.3504 112.051 88.6119 111.15 88.8154Z" fill="#D85F47"/>
<path d="M73.6567 105.179C68.8901 105.179 62.089 104.045 62.089 104.045C62.089 104.045 61.9727 104.568 61.8564 105.295C64.9373 106.254 69.0935 106.748 73.6567 106.574C77.9582 106.399 81.8528 105.644 84.7883 104.568C84.8174 104.539 84.8465 104.539 84.9046 104.51C84.9046 104.481 84.9046 104.481 84.9046 104.481C84.9046 104.481 78.6557 105.208 73.6567 105.179Z" fill="#F5B75B"/>
</svg>
