<svg width="44" height="40" viewBox="0 0 44 40" fill="none" xmlns="http://www.w3.org/2000/svg">
<path d="M5.73913 5.71429V0H9.56522V5.71429H15.3043V9.52381H9.56522V15.2381H5.73913V9.52381H0V5.71429H5.73913ZM11.4783 17.1429V11.4286H17.2174V5.71429H30.6087L34.1096 9.52381H40.1739C42.2783 9.52381 44 11.2381 44 13.3333V36.1905C44 38.2857 42.2783 40 40.1739 40H9.56522C7.46087 40 5.73913 38.2857 5.73913 36.1905V17.1429H11.4783ZM24.8696 34.2857C30.1496 34.2857 34.4348 30.019 34.4348 24.7619C34.4348 19.5048 30.1496 15.2381 24.8696 15.2381C19.5896 15.2381 15.3043 19.5048 15.3043 24.7619C15.3043 30.019 19.5896 34.2857 24.8696 34.2857ZM18.7478 24.7619C18.7478 28.1333 21.4835 30.8571 24.8696 30.8571C28.2557 30.8571 30.9913 28.1333 30.9913 24.7619C30.9913 21.3905 28.2557 18.6667 24.8696 18.6667C21.4835 18.6667 18.7478 21.3905 18.7478 24.7619Z" fill="#F68069"/>
</svg>
