<svg width="300" height="300" viewBox="0 0 300 300" fill="none" xmlns="http://www.w3.org/2000/svg">
<g clip-path="url(#clip0)">
<path d="M133.971 99.2044C147.555 99.2044 158.574 88.1856 158.574 74.6021C158.574 61.0187 147.555 50 133.971 50C120.388 50 109.369 61.0187 109.369 74.6021C109.369 88.1856 120.388 99.2044 133.971 99.2044Z" fill="#FCEAE0"/>
<path d="M105.67 146.27C105.488 146.27 105.306 146.174 105.124 145.887C105.033 145.599 105.124 145.312 105.397 145.121L111.675 142.247C111.948 142.152 112.221 142.247 112.403 142.535C112.494 142.822 112.403 143.109 112.13 143.301L105.852 146.174C105.852 146.27 105.761 146.27 105.67 146.27ZM118.226 140.523C118.044 140.523 117.863 140.428 117.68 140.14C117.589 139.853 117.68 139.566 117.953 139.374L124.232 136.501C124.505 136.405 124.778 136.501 124.96 136.788C125.051 137.076 124.96 137.363 124.686 137.554L118.408 140.428C118.317 140.523 118.317 140.523 118.226 140.523ZM130.692 134.777C130.51 134.777 130.328 134.681 130.146 134.394C130.055 134.107 130.146 133.819 130.419 133.628L136.697 130.754C136.97 130.659 137.243 130.755 137.425 131.042C137.516 131.329 137.425 131.617 137.152 131.808L130.874 134.681C130.874 134.777 130.783 134.777 130.692 134.777ZM143.248 128.935C143.066 128.935 142.884 128.839 142.702 128.552C142.611 128.264 142.702 127.977 142.975 127.786L149.254 124.912C149.526 124.817 149.8 124.912 149.981 125.2C150.073 125.487 149.981 125.774 149.709 125.966L143.43 128.839C143.339 128.935 143.339 128.935 143.248 128.935Z" fill="#3C4047"/>
<path d="M91.7232 139.851C91.5258 139.851 91.3283 139.761 91.131 139.49L88.3678 133.705C88.2691 133.434 88.3678 133.163 88.6639 132.982C88.9599 132.892 89.256 132.982 89.4534 133.253L92.2166 139.038C92.3153 139.309 92.2165 139.58 91.9205 139.761C91.9205 139.851 91.8218 139.851 91.7232 139.851ZM86.1968 128.282C85.9994 128.282 85.802 128.192 85.6046 127.921L82.8417 122.136C82.743 121.865 82.8415 121.594 83.1375 121.413C83.4336 121.323 83.7297 121.413 83.9271 121.685L86.6902 127.469C86.7889 127.74 86.6902 128.011 86.3941 128.192C86.3941 128.282 86.2955 128.282 86.1968 128.282ZM80.6704 116.804C80.4731 116.804 80.2759 116.713 80.0785 116.442L77.3153 110.658C77.2166 110.387 77.3154 110.116 77.6114 109.935C77.9075 109.844 78.2036 109.935 78.4009 110.206L81.1639 115.99C81.2626 116.261 81.1641 116.533 80.868 116.714C80.868 116.804 80.7691 116.804 80.6704 116.804Z" fill="#3C4047"/>
<path d="M77.1703 105.622C76.9858 105.622 76.8014 105.512 76.6169 105.182L75.1406 101.004L78.6466 99.2453C78.9233 99.1355 79.2002 99.2453 79.3847 99.5751C79.4769 99.9049 79.3846 100.235 79.1079 100.455L76.6169 101.774L77.724 104.743C77.8162 105.072 77.7239 105.402 77.4471 105.622C77.2626 105.622 77.1703 105.622 77.1703 105.622Z" fill="#3C4047"/>
<path d="M84.3031 97.0651C84.1124 97.0651 83.9217 96.9788 83.731 96.7203C83.6357 96.4618 83.7311 96.2032 84.0171 96.0309L90.5944 93.4449C90.8804 93.3588 91.1661 93.4449 91.3568 93.7034C91.4521 93.9622 91.357 94.2207 91.071 94.3932L84.4937 96.979C84.4937 96.979 84.3984 97.0651 84.3031 97.0651ZM97.4574 91.8072C97.2668 91.8072 97.0762 91.7211 96.8855 91.4624C96.7901 91.2038 96.8855 90.9453 97.1716 90.773L103.749 88.1872C104.035 88.1009 104.321 88.187 104.511 88.4455C104.607 88.7043 104.511 88.9628 104.225 89.1353L97.648 91.7211C97.648 91.8072 97.4574 91.8072 97.4574 91.8072ZM110.517 86.6355C110.326 86.6355 110.135 86.5493 109.945 86.2907C109.849 86.0322 109.945 85.7736 110.231 85.6011L116.808 83.0153C117.094 82.929 117.379 83.0153 117.57 83.2738C117.666 83.5324 117.57 83.7911 117.284 83.9634L110.707 86.5493C110.707 86.6355 110.707 86.6355 110.517 86.6355ZM123.671 81.4638C123.48 81.4638 123.29 81.3776 123.099 81.119C123.004 80.8603 123.099 80.6018 123.385 80.4295L129.962 77.8436C130.248 77.7574 130.534 77.8436 130.725 78.1022C130.82 78.3607 130.725 78.6193 130.439 78.7918L123.862 81.3776C123.862 81.4638 123.766 81.4638 123.671 81.4638Z" fill="#3C4047"/>
<path d="M103.433 163.178L75.2349 153.474C73.6028 152.892 72.6054 150.951 73.1494 149.107L79.1338 129.407C79.6778 127.661 81.4912 126.593 83.2139 127.176L111.413 136.88C113.045 137.462 114.042 139.403 113.498 141.247L107.514 160.946C106.879 162.79 105.065 163.857 103.433 163.178Z" fill="#4C9789"/>
<path d="M118.248 148.849C117.064 148.849 116.062 149.553 115.789 150.61L114.787 153.604L113.785 156.599C113.421 157.656 113.785 158.8 114.787 159.417L122.438 164.965C123.895 166.11 126.081 165.406 126.627 163.644L128.631 157.744L130.635 151.843C131.181 150.082 129.906 148.408 127.993 148.408L118.248 148.849Z" fill="#4C9789"/>
<path d="M173.219 124.876L162.852 125.624L167.459 186.917L177.827 186.169L173.219 124.876Z" fill="#DADAED"/>
<path d="M167.073 133.434L164.99 134.017L165.046 135.573L167.129 134.99L167.073 133.434Z" fill="#B6D5C6"/>
<path d="M169.156 154.827L164.99 155.41L165.103 156.966L169.269 156.383L169.156 154.827Z" fill="#B6D5C6"/>
<path d="M169.156 161.245L164.99 161.828L165.103 163.384L169.269 162.8L169.156 161.245Z" fill="#B6D5C6"/>
<path d="M169.214 167.662L167.131 168.245L167.187 169.801L169.27 169.218L169.214 167.662Z" fill="#B6D5C6"/>
<path d="M162.891 146.27L156.433 147.384L164.949 195.474L171.408 194.36L162.891 146.27Z" fill="#F68069"/>
<path d="M162.851 147.15L156.433 148.409L157.456 138.027L158.758 137.712L162.851 147.15Z" fill="#FCEAE0"/>
<path d="M157.358 141.991L158.514 141.445L159.439 141.536L160.711 141.08L158.629 137.712L157.011 137.985L156.433 141.536L157.358 141.991Z" fill="#F68069"/>
<path d="M177.422 186.857C176.284 186.671 175.525 185.643 175.715 184.522L180.838 152.207C180.932 151.927 180.932 151.647 181.027 151.46L183.968 143.335C184.348 142.401 185.391 141.84 186.34 142.027L186.814 142.12C187.858 142.307 188.521 143.241 188.521 144.269L187.858 152.861C187.858 153.141 187.763 153.421 187.763 153.702L179.984 185.456C179.604 186.39 178.561 187.138 177.422 186.857Z" fill="#548582"/>
<path d="M216.333 208.309H173.547V223.285H216.333V208.309Z" fill="#F8D7BC"/>
<path d="M218.473 206.269V207.357H174.759V222.196H218.473V223.285H128.621V206.17H218.473V206.269Z" fill="#F68069"/>
<path d="M159.889 246.818H222.753V225.424H159.889C156.76 225.424 154.295 227.811 154.295 230.64V241.513C154.295 244.519 156.76 246.818 159.889 246.818Z" fill="#F8ECE2"/>
<path d="M125.033 223.285H226.285C226.658 223.285 227.032 223.659 227.032 224.034C227.032 224.409 226.658 224.784 226.285 224.784H213.873H167.4C161.147 224.784 156.108 229.843 156.108 236.121C156.108 242.398 161.147 247.457 167.4 247.457H224.792H226.285C226.658 247.457 227.032 247.832 227.032 248.207C227.032 248.582 226.658 248.957 226.285 248.957H124.939C118.687 248.957 113.647 243.897 113.647 237.62V234.809C113.741 228.344 118.78 223.285 125.033 223.285Z" fill="#548582"/>
<path d="M222.752 227.563H164.99V229.703H222.752V227.563Z" fill="#FFE6C2"/>
<path d="M173.823 206.17H137.179V197.613H173.823C174.888 197.613 175.686 198.498 175.686 199.679V204.007C175.686 205.187 174.888 206.17 173.823 206.17Z" fill="#F5AF5B"/>
<path d="M199.482 197.613H135.32C135.227 197.613 135.04 197.701 135.04 197.875C135.04 198.05 135.133 198.137 135.32 198.137H173.332C175.573 198.137 177.348 199.883 177.348 201.892C177.348 203.987 175.48 205.647 173.332 205.647H135.32C135.227 205.647 135.04 205.734 135.04 205.908C135.04 205.996 135.133 206.17 135.32 206.17H199.482C201.724 206.17 203.498 204.424 203.498 202.416V201.281C203.498 199.272 201.724 197.613 199.482 197.613Z" fill="#F68069"/>
<path d="M157.714 163.384H187.241C188.023 163.384 188.61 164.044 188.512 164.798L184.21 197.613H160.55L156.443 164.798C156.345 164.044 156.932 163.384 157.714 163.384Z" fill="#4C9789"/>
<path d="M187.11 139.993L186.719 139.891C185.859 139.686 184.999 140.3 184.687 141.323L182.185 150.432C182.106 150.534 182.106 150.636 182.106 150.841C182.888 151.66 183.905 152.376 184.999 152.581C186.016 152.785 187.032 152.683 187.892 152.376C187.892 152.274 187.971 152.171 187.971 151.967L188.518 142.347C188.596 141.221 187.97 140.3 187.11 139.993Z" fill="#D7D7E6"/>
<path d="M187.244 127.458C187.5 126.868 188.184 126.868 188.441 127.458C188.868 128.441 189.381 129.62 189.808 130.407C190.492 131.881 190.919 135.223 190.492 136.894C190.065 138.86 188.868 140.826 188.526 141.513C188.441 141.612 188.355 141.71 188.184 141.808C187.842 141.907 187.159 142.103 186.218 141.907C184.936 141.514 184.851 140.629 184.851 140.629C184.851 140.629 184.167 137.484 184.253 135.518C184.338 133.552 185.278 131.095 185.705 130.701C185.962 130.21 186.731 128.637 187.244 127.458Z" fill="#D85F47"/>
<path d="M226.358 246.818H224.819H219.724C219.339 247.673 218.954 248.387 218.474 248.957H226.262C226.646 248.957 227.031 248.387 227.031 247.816C227.031 247.388 226.743 246.818 226.358 246.818Z" fill="#548582"/>
<path d="M226.216 225.424C226.624 225.424 227.031 224.889 227.031 224.354C227.031 223.819 226.624 223.285 226.216 223.285H220.613V225.291L226.216 225.424Z" fill="#548582"/>
</g>
<defs>
<clipPath id="clip0">
<rect width="154.167" height="200" fill="white" transform="translate(73 50)"/>
</clipPath>
</defs>
</svg>
