<svg width="120" height="120" viewBox="0 0 120 120" fill="none" xmlns="http://www.w3.org/2000/svg">
<path fill-rule="evenodd" clip-rule="evenodd" d="M20.9349 3.51472C23.1853 1.26428 26.2376 0 29.4202 0H90.2552C93.4378 0 96.49 1.26429 98.7405 3.51472L116.485 21.2595C118.736 23.51 120 26.5622 120 29.7448V89.7485C120 92.9311 118.736 95.9833 116.485 98.2337L98.2337 116.485C95.9833 118.736 92.9311 120 89.7485 120H29.7446C26.562 120 23.5097 118.736 21.2593 116.485L3.51472 98.7407C1.26428 96.4903 0 93.438 0 90.2554V29.4202C0 26.2376 1.26428 23.1853 3.51472 20.9349L20.9349 3.51472Z" fill="#FFE6C2"/>
</svg>
