<svg width="102" height="122" viewBox="0 0 102 122" fill="none" xmlns="http://www.w3.org/2000/svg">
<path d="M63.227 25.3072C61.9181 22.5728 60.5624 19.7547 59.8846 16.7133C59.2067 13.6441 59.2768 10.2122 60.6792 7.50566C62.0583 4.79916 64.9567 3.09719 67.4811 4.07376C70.5899 5.30145 71.9221 9.87738 71.478 13.7558C71.0573 17.6342 69.3744 21.1219 68.3459 24.805C67.9953 26.0047 67.785 27.5115 68.5096 28.4602C69.2809 29.4646 70.66 29.1856 71.6885 28.7112C74.7505 27.2603 77.2748 24.1912 80.5238 23.4657C81.7159 23.1867 83.1417 23.354 83.8897 24.5259C84.2169 25.1119 84.404 25.8095 84.4274 26.507C84.5676 28.4322 84.2637 30.3575 83.5391 32.0595C82.8145 33.7894 81.716 35.2403 80.3369 36.2448C78.4202 37.612 76.1062 38.0864 74.2362 39.5373C73.8155 39.8721 73.3948 40.3186 73.3247 40.9045C73.2545 41.4905 73.5817 42.0764 73.9323 42.4949C75.0309 43.9179 76.4801 44.9224 77.5553 46.3454C78.6305 47.7963 79.285 50.0006 78.4436 51.6468C77.6021 53.3209 75.6386 53.5999 74.0726 53.1535C72.4831 52.735 71.0106 51.7584 69.3977 51.4794C67.8083 51.2283 65.8449 52.0095 65.4241 53.879C64.9333 55.9158 66.5462 57.8689 68.1824 58.6502C69.8185 59.4594 71.7118 59.6547 73.161 60.8545C73.9791 61.5241 74.6101 62.5007 74.9841 63.6168C75.3581 64.7329 75.4283 65.9606 75.1946 67.1325C74.9609 68.3044 74.4466 69.3646 73.722 70.1738C72.9974 70.9829 72.0624 71.541 71.0807 71.7084C69.6315 71.9874 68.159 71.4852 66.7565 70.955C59.417 68.1648 52.3581 64.3981 45.7432 59.7384C44.8316 59.0967 43.8966 58.3991 43.2187 57.3946C41.3254 54.5486 42.1436 50.4191 43.0552 46.9592C43.4993 45.2851 44.107 43.4157 45.4627 42.8297C47.3092 42.0206 49.0856 44.0016 50.9088 44.8387C51.6568 45.1735 52.4749 45.3409 53.293 45.2851C54.1111 45.2293 54.9058 44.9782 55.6304 44.5596C56.4953 44.0853 57.1731 43.2761 57.5938 42.2438C58.295 40.3464 57.5705 38.1142 56.4485 36.5238C55.3266 34.9334 53.854 33.7615 52.7087 32.199C51.3296 30.3296 50.4414 27.7626 50.8387 25.3072C51.2361 22.8518 53.2229 20.7312 55.3032 21.0382C58.2951 21.4846 59.7676 26.1443 62.7127 26.9535C63.8113 26.7302 63.227 25.3072 63.227 25.3072Z" fill="#548582"/>
<path d="M84.8484 15.7358C85.0121 13.3362 84.8952 7.9232 81.9735 7.72789C78.8647 7.50467 79.7762 13.113 80.1268 15.1219C80.6177 17.8842 81.4125 20.6466 81.6229 23.4368C81.2489 24.3575 80.9449 25.362 80.7346 26.3665C80.7346 26.4781 80.7346 26.6176 80.758 26.7292C80.7813 26.8408 80.8515 26.9524 80.9216 27.0361C80.9918 27.1198 81.0852 27.1757 81.1787 27.2036C81.2722 27.2315 81.3657 27.2315 81.4826 27.2315C81.4592 27.4268 81.4125 27.5942 81.3657 27.8174C81.2255 28.4312 81.9968 28.5429 82.137 27.9848C82.3708 27.092 82.5344 26.1991 82.6045 25.2504C83.0486 24.0227 83.4226 22.7951 83.7498 21.5116C84.3342 19.6421 84.6848 17.7168 84.8484 15.7358Z" fill="#4C9789"/>
<path d="M95.5773 17.1594C94.2917 14.4529 91.2063 15.1504 89.1962 16.0991C87.186 17.0478 84.9186 18.8335 84.2174 21.3726C83.6097 22.2655 83.189 23.2979 82.9786 24.4418C82.8384 25.251 83.937 25.7532 84.1707 24.9162C84.6616 23.2141 85.5498 21.6795 86.9522 20.8982C88.4248 20.0891 90.0376 20.3402 91.5803 20.4797C92.6788 20.5913 94.2917 20.9262 95.25 20.0891C96.0915 19.4194 96.0214 18.0801 95.5773 17.1594Z" fill="#548582"/>
<path d="M90.6452 2.09222C89.2662 1.95271 88.0508 4.2407 87.4431 5.38468C86.5782 7.0309 85.8769 8.81664 85.3861 10.6861C84.8017 12.8345 84.381 15.0109 83.8901 17.1873C83.3759 19.4194 82.6747 21.5679 82.1137 23.7721C81.8799 24.3581 81.6696 24.9161 81.4827 25.502C81.2957 26.088 81.9501 26.7577 82.3007 26.1717C83.6097 24.0791 84.5447 21.6516 85.5731 19.3636C86.6717 16.9361 87.7703 14.5365 88.8455 12.109C89.4299 10.8534 94.1046 2.42705 90.6452 2.09222Z" fill="#548582"/>
<path d="M86.9282 34.0122C88.5411 30.7756 86.7179 26.5624 84.287 24.1349C83.0949 22.9351 81.669 21.9306 80.1264 21.6795C76.9475 21.1773 73.979 23.9396 72.3896 27.2599C70.8002 30.5803 70.1924 34.4308 69.1639 38.0301C67.0836 45.0894 63.297 51.1999 60.1883 57.7011C57.1029 64.2023 54.6486 71.6521 55.7238 79.0183C55.864 79.9111 56.2614 81.0272 57.0328 80.9714C57.4068 80.8877 57.7574 80.6645 58.0145 80.3018C59.3001 78.8788 60.5857 77.4279 61.8713 75.977C68.3693 68.4992 74.2361 60.296 79.4251 51.4789C83.0014 45.3684 86.9282 34.0122 86.9282 34.0122Z" fill="#F5B75B"/>
<path d="M56.9858 80.1068C58.9025 77.7351 60.2816 74.8054 60.9594 71.5966C61.6373 68.3879 61.5906 65.0396 60.8193 61.8588C60.2349 59.4034 59.2298 57.0317 58.8325 54.5484C58.4118 52.0652 58.6922 49.2749 60.3284 47.6287C61.9646 45.9825 65.12 46.3173 66.1017 48.6332C66.7796 50.2794 66.4057 52.5953 67.8315 53.4881C68.7431 54.0462 69.8884 53.544 70.4727 52.679C71.0571 51.8141 71.2207 50.6422 71.3609 49.554L72.8336 38.1978C73.0206 36.8027 73.2075 35.3797 73.8854 34.2357C74.5632 33.0917 75.8255 32.2547 77.0643 32.6453C80.5237 33.7056 78.8641 40.9043 82.1598 42.6063C84.4505 43.7782 86.5308 41.0438 87.5359 38.5885C88.8448 35.3797 90.0135 31.8919 92.5847 29.8551C95.1325 27.8182 99.6437 28.2647 100.906 31.6408C101.771 33.9009 100.882 36.3563 99.8773 38.3932C98.732 40.7369 97.4465 42.9411 95.9973 45.0338C94.5715 47.0707 93.0287 50.0562 94.6416 52.093C95.5999 53.2928 97.2829 53.4881 98.2879 54.66C98.8489 55.3576 99.1762 56.2505 99.2697 57.2271C99.7839 61.9146 95.3896 66.072 91.2757 64.8164C88.8214 64.0631 86.4373 61.7472 84.0297 62.5005C81.669 63.226 80.9444 66.6021 81.4586 69.3365C81.9728 72.071 83.3519 74.5822 83.8428 77.3166C84.3336 80.051 83.4687 83.3992 81.0846 84.0131C77.9291 84.8222 74.5164 80.3858 71.5947 81.8925C70.7064 82.3668 70.1222 83.2876 69.5846 84.2084C68.0419 86.8033 66.5459 89.4539 65.1201 92.1325L56.9858 80.1068Z" fill="#B6D5C6"/>
<path d="M38.4275 23.4931C35.8563 21.7353 33.2384 19.9217 31.1581 17.4105C29.0778 14.8993 27.5352 11.5232 27.6053 7.97962C27.6754 4.43606 29.6621 0.864564 32.5605 0.13911C36.1368 -0.753757 39.5494 2.78978 40.9752 6.80768C42.401 10.8256 42.4011 15.3178 43.1023 19.5868C43.336 20.982 43.8269 22.5724 44.9488 22.9909C46.1643 23.4373 47.3564 22.2934 48.1277 21.0936C50.395 17.6058 51.4235 13.002 54.205 10.1281C55.2334 9.06779 56.6826 8.25859 57.9448 8.90034C58.5292 9.26306 59.0435 9.7932 59.3941 10.435C60.4459 12.1928 61.0536 14.2576 61.1471 16.406C61.264 18.5545 60.8666 20.7029 60.0251 22.6003C58.833 25.1952 56.7996 27.1762 55.6776 29.8269C55.4205 30.4128 55.2335 31.1383 55.4439 31.7522C55.6543 32.366 56.2385 32.7008 56.7761 32.8961C58.5058 33.5379 60.3758 33.5379 62.1055 34.2076C63.8118 34.8772 65.4947 36.5792 65.448 38.7277C65.4012 40.8762 63.6481 42.4666 61.9184 43.1083C60.1888 43.7501 58.3188 43.7779 56.6359 44.615C54.9529 45.4521 53.4805 47.4889 53.9246 49.5816C54.4388 51.8696 56.8697 52.6787 58.8331 52.3718C60.7966 52.037 62.7132 50.9767 64.6767 51.172C65.7986 51.2836 66.8504 51.7859 67.7386 52.623C68.6034 53.46 69.258 54.604 69.5852 55.8596C69.9125 57.1431 69.9125 58.5103 69.5852 59.7938C69.258 61.0773 68.6268 62.1933 67.7386 63.0583C66.453 64.286 64.7934 64.7882 63.1806 65.2067C54.7893 67.411 46.2344 68.4713 37.6328 68.3876C36.4407 68.3876 35.2252 68.3318 34.1032 67.8296C30.9244 66.3787 29.8024 61.8306 29.0544 57.8685C28.7038 55.9711 28.4 53.739 29.4518 52.2602C30.8543 50.2792 33.4722 50.9767 35.646 50.5861C36.5342 50.4187 37.3991 50.028 38.147 49.4421C38.9184 48.8561 39.5728 48.1028 40.0636 47.182C40.6714 46.1497 40.9519 44.894 40.8817 43.6384C40.6714 41.3505 38.9184 39.6484 37.0952 38.8951C35.272 38.1138 33.3086 37.9464 31.462 37.221C29.2415 36.3281 27.1612 34.4587 26.4366 31.808C25.6886 29.1573 26.6002 25.8091 28.7506 24.7209C31.8594 23.1584 35.4589 26.7019 38.6612 25.5021C39.6429 24.4976 38.4275 23.4931 38.4275 23.4931Z" fill="#4C9789"/>
<path d="M35.2715 64.6764C17.0631 60.7143 1.84653 36.0768 1.84653 36.0768L0 35.6025C0 35.6025 2.87497 59.8214 29.054 69.9499C60.5155 82.171 71.9222 56.6406 71.9222 56.6406L73.6753 52.7901C71.1275 57.7846 61.8011 70.4242 35.2715 64.6764Z" fill="#F5B75B"/>
<path d="M79.0042 41.8805C79.1444 41.3225 79.0977 40.7365 78.9107 40.2064C78.7003 39.6763 78.373 39.2577 77.9289 39.0066C76.7836 38.4207 76.0123 39.9553 75.8721 40.2064C75.2877 41.2946 72.5296 48.6607 71.2206 49.5536C66.2186 52.9856 56.4248 58.0637 36.2295 52.0369C25.5476 48.856 3.76291 32.8124 3.76291 32.8124L1.84619 36.0769C1.84619 36.0769 17.0393 60.7144 35.2478 64.6765C66.8028 71.5125 74.0489 52.288 74.4696 51.0324C74.5164 50.9766 78.9107 42.2712 79.0042 41.8805Z" fill="#FFD88C"/>
<path d="M0.0234375 35.6304C0.0234375 35.6304 1.7531 36.1605 1.86997 36.1047C1.98684 36.0489 3.7633 32.8402 3.7633 32.8402C3.7633 32.8402 2.40755 31.9752 1.7297 32.5612C0.794738 33.4261 0.0234375 35.6304 0.0234375 35.6304Z" fill="#3C4047"/>
<path d="M48.033 42.5781C45.0177 38.6161 38.9639 36.4397 35.224 38.1696C31.4842 39.8995 32.7464 39.5926 31.4842 39.8995C30.1986 40.2064 27.9313 39.3694 25.6172 41.183C22.976 43.2478 17.9505 49.163 19.914 57.6453C21.5969 64.8719 28.0948 71.5405 36.5329 70.6197C44.9709 69.699 49.4822 64.2022 50.8379 59.2915C52.4507 53.5157 50.9547 46.4007 48.033 42.5781Z" fill="#F68069"/>
<path d="M34.2664 44.8105C34.2664 44.8105 35.2013 34.9889 30.1291 32.2266C25.057 29.4643 16.8527 25.6138 17.1799 26.2556C17.5305 26.8694 18.8394 37.7512 22.1819 40.96C27.2541 45.787 34.2664 44.8105 34.2664 44.8105Z" fill="#B6D5C6"/>
<path d="M35.9488 43.973C35.9488 43.973 35.5047 39.118 35.5281 36.244C35.5982 30.3567 35.9021 27.4828 35.9021 27.4828L31.6714 27.9013C31.6714 27.9013 31.8116 34.7653 32.1155 37.3323C32.6765 41.8803 33.7517 44.6147 33.7517 44.6147C33.7517 44.6147 34.4997 45.4238 35.2243 45.0332C35.4113 44.9495 35.5748 44.81 35.7151 44.6426C35.8319 44.4194 35.9254 44.1962 35.9488 43.973Z" fill="#3C4047"/>
<path d="M33.9158 28.8779C35.0845 28.7105 35.9727 28.0408 35.9026 27.3433C35.8325 26.6457 34.8274 26.2551 33.6587 26.4225C32.4899 26.5899 31.6017 27.2595 31.6719 27.9571C31.7653 28.6268 32.7471 29.0453 33.9158 28.8779Z" fill="#F5B75B"/>
<path d="M86.5106 111.739H18.0479C17.0428 111.739 16.0844 111.265 15.3598 110.4C14.6352 109.563 14.2378 108.391 14.2378 107.191L4 62.5481C4 61.3483 4.39731 60.2043 5.12191 59.3393C5.84651 58.5023 6.80485 58 7.80993 58H96.7484C97.7535 58 98.7352 58.4743 99.4365 59.3393C100.138 60.1764 100.558 61.3483 100.558 62.5481L90.3206 107.191C90.3206 108.391 89.9232 109.535 89.1986 110.4C88.474 111.265 87.5157 111.739 86.5106 111.739Z" fill="#FFD88C"/>
<path d="M95.2728 84.1528C94.6417 84.7388 93.8703 85.1293 93.0522 85.213C91.1589 85.4642 89.85 84.2923 88.4008 82.9809C86.8815 81.6137 85.2453 80.1349 83.2585 80.0512C81.2249 79.9395 79.4251 81.3347 77.5318 81.9207C76.7605 82.1439 75.8021 82.3392 75.0308 81.9764C74.7269 81.809 74.4464 81.5579 74.2127 81.251C74.3763 81.4184 74.0257 80.6929 73.9789 80.6371C73.9322 80.5813 73.9321 80.5255 73.9321 80.4418C73.862 80.1349 73.7919 80.5255 73.7218 80.2186C73.4179 78.7677 73.0206 77.3168 72.5765 75.9217C72.0622 74.4987 71.4545 72.8525 70.2157 72.2107C69.047 71.5969 67.8783 72.2386 66.9433 73.1315C65.237 74.7219 63.6943 76.5355 62.2919 78.5165C61.1232 80.1349 59.3 83.0925 57.3833 83.2599C56.9859 83.2878 56.5886 83.232 56.238 83.0367C55.864 82.8693 55.5368 82.5624 55.303 82.2275C55.303 82.2275 55.1862 82.0044 55.0927 81.7811L55.0693 81.2231C55.0225 80.0791 54.9524 78.9351 54.8589 77.819C54.6486 75.5868 54.2979 73.2431 53.5032 71.2062C52.4513 68.5276 50.4646 67.2441 48.1505 68.723C46.2339 69.9506 44.995 72.8804 43.8964 75.0009C42.6576 77.3726 41.5123 79.8001 40.1333 82.0322C39.058 83.7622 37.4452 86.4686 35.4584 86.4128C33.4015 86.357 31.3445 83.8459 29.8719 82.395C26.1788 78.684 23.1169 72.8524 17.9045 72.3223C13.8607 71.9317 10.4481 74.3034 7.52637 77.3726L9.98065 88.0312C12.2713 86.4687 14.7256 85.4084 17.437 85.6874C22.2287 86.2176 25.1737 92.3839 28.3526 95.9833C30.0122 97.8527 31.8588 100.085 34.0092 101.089C36.4635 102.233 38.5438 101.145 40.3202 98.9688C41.9798 96.8482 43.4524 94.5323 44.6912 92.0491C45.8833 89.7611 46.9351 87.1941 48.3609 85.1015C48.8517 84.376 49.4361 83.7622 50.2308 83.6506C50.2542 83.6506 50.4412 83.6505 50.6048 83.6784C50.6282 84.7387 50.6282 85.799 50.7217 86.8035C50.8853 88.952 51.2826 91.0725 51.9605 93.1093C52.8487 95.6763 54.3447 98.2433 56.7289 98.913C58.9962 99.5547 61.053 97.2947 62.5022 95.509C64.115 93.5279 65.4473 91.2957 67.0368 89.3147C67.7146 88.4218 68.486 87.6406 69.3742 87.0546C69.4677 86.9988 69.5846 86.9709 69.6781 86.9709C69.7015 87.0546 69.7248 87.1383 69.7482 87.222C70.6831 91.6864 72.2025 99.0525 77.2747 98.2712C79.4485 97.9364 81.4118 96.3181 83.6324 96.5134C85.7127 96.7087 87.2321 99.0246 88.8449 100.364C89.7097 101.117 90.6914 101.62 91.7198 101.871L95.9272 83.5111C95.7636 83.6506 95.4364 84.0133 95.2728 84.1528ZM69.7482 87.222C69.8651 87.6964 69.9118 88.087 69.7482 87.222V87.222Z" fill="#FFE6C2"/>
<g opacity="0.9">
<path opacity="0.75" d="M81.8796 121.429H64.723C63.9049 121.429 63.0868 121.067 62.4791 120.369C61.8714 119.7 61.4974 118.779 61.4273 117.774L58.5757 71.8475C58.5757 71.7079 58.5756 71.5963 58.6224 71.4847C58.6457 71.3731 58.7159 71.2615 58.786 71.1778C58.8562 71.0941 58.9497 71.0104 59.0432 70.9546C59.1367 70.8988 59.2535 70.8709 59.347 70.8709H87.2556C87.3725 70.8709 87.4661 70.8988 87.5596 70.9546C87.6531 71.0104 87.7466 71.0662 87.8167 71.1778C87.8868 71.2615 87.9569 71.3731 87.9803 71.4847C88.027 71.5963 88.0271 71.7358 88.0271 71.8475L85.1754 117.774C85.1053 118.751 84.7546 119.672 84.1235 120.369C83.4924 121.067 82.6977 121.429 81.8796 121.429Z" fill="#FCF5F3"/>
<path opacity="0.75" d="M84.0764 116.379L85.993 84.2918H60.5854L62.5021 116.379C62.5488 117.272 62.8994 118.109 63.437 118.723C63.998 119.337 64.7226 119.672 65.4706 119.672H81.0845C81.8324 119.672 82.5571 119.337 83.1181 118.723C83.679 118.109 84.0297 117.272 84.0764 116.379Z" fill="white"/>
</g>
</svg>
