<svg width="44" height="44" viewBox="0 0 44 44" fill="none" xmlns="http://www.w3.org/2000/svg">
<circle cx="22" cy="22" r="22" fill="#FCEAE0"/>
<path d="M17.59 23.51L24.42 27.49M24.41 16.51L17.59 20.49M30 15C30 16.6569 28.6569 18 27 18C25.3431 18 24 16.6569 24 15C24 13.3431 25.3431 12 27 12C28.6569 12 30 13.3431 30 15ZM18 22C18 23.6569 16.6569 25 15 25C13.3431 25 12 23.6569 12 22C12 20.3431 13.3431 19 15 19C16.6569 19 18 20.3431 18 22ZM30 29C30 30.6569 28.6569 32 27 32C25.3431 32 24 30.6569 24 29C24 27.3431 25.3431 26 27 26C28.6569 26 30 27.3431 30 29Z" stroke="#3C4047" stroke-width="2" stroke-linecap="round" stroke-linejoin="round"/>
</svg>
