<svg width="360" height="282" viewBox="0 0 360 282" fill="none" xmlns="http://www.w3.org/2000/svg">
<path fill-rule="evenodd" clip-rule="evenodd" d="M19.0691 41.5147C21.3195 39.2643 24.3718 38 27.5544 38H161.149C164.332 38 167.384 39.2643 169.635 41.5147L212.847 84.7275C215.098 86.9779 216.362 90.0302 216.362 93.2127V225.122C216.362 228.304 215.098 231.357 212.847 233.607L168.607 277.847C166.357 280.098 163.304 281.362 160.122 281.362H28.2132C25.0306 281.362 21.9784 280.098 19.728 277.847L-23.4853 234.634C-25.7357 232.384 -27 229.331 -27 226.149V92.5544C-27 89.3718 -25.7357 86.3195 -23.4853 84.0691L19.0691 41.5147Z" fill="#FCEAE0"/>
<path d="M47 103.024C47 93.2762 71.1879 91.2104 80.7481 91.2104C100.136 91.2104 101.419 80.1126 117.518 80.1126C131.671 80.1126 138.871 91.5714 152.048 91.5714C180.328 91.5714 186.625 59 214.136 59C242.128 59 240.697 93.0021 266.743 93.0021C279.987 93.0021 359.551 95.5025 359.551 103.03L47 103.024Z" fill="white"/>
<path d="M79.8648 0C97.788 0 103.837 12.1514 103.837 20.5957C103.837 38.2064 100.025 34.2792 100.025 52.4799C100.025 72.0409 125.085 96.7399 125.085 130.526C125.085 176.714 84.7693 183.486 79.8648 183.486C54.4437 183.486 45 155.511 45 138.539C45 118.432 62.7076 96.9072 62.7076 77.5266C62.7076 63.35 58.0759 57.8423 58.0759 35.8642C58.0759 13.7628 70.8789 0 79.8648 0Z" fill="#B6D5C6"/>
<path d="M78.5273 221.749V29.084" stroke="#FFD88C" stroke-width="3" stroke-miterlimit="10" stroke-linecap="round"/>
<path d="M78.5273 154.129L108.377 123.535" stroke="#FFD88C" stroke-width="3" stroke-miterlimit="10" stroke-linecap="round"/>
<path d="M77.7814 68.2722L68.166 58.6567" stroke="#FFD88C" stroke-width="3" stroke-miterlimit="10" stroke-linecap="round"/>
<path d="M78.5273 42.4813L91.9511 29.062" stroke="#FFD88C" stroke-width="3" stroke-miterlimit="10" stroke-linecap="round"/>
<path d="M236.911 198.518C236.911 198.518 245.805 191.237 246.898 191.237C247.992 191.237 286.432 221.719 292.561 229.641C295.447 229.284 302.417 227.242 302.417 227.242C302.417 227.242 258.662 166.986 253.374 166.986C248.086 166.986 205.908 184.275 205.908 184.275L209.393 196.634L236.911 198.518Z" fill="#3C4047"/>
<path d="M133.469 166.43C137.934 166.43 141.554 162.815 141.554 158.355C141.554 153.896 137.934 150.281 133.469 150.281C129.004 150.281 125.385 153.896 125.385 158.355C125.385 162.815 129.004 166.43 133.469 166.43Z" fill="#F8CDBA"/>
<path d="M163.463 180.91C164.772 182.327 175.905 197.81 175.8 199.773C175.695 201.737 165.208 229.862 164.335 230.954C165.539 232.151 170.449 235.096 171.652 235.096C172.856 235.096 202.434 198.245 202.434 195.72C202.434 193.195 184.137 164.073 173.582 163.327" fill="#FADB93"/>
<path d="M118.424 149.084C118.424 142.174 124.295 139.728 127.46 139.728C133.699 139.728 143.024 142.563 149.879 142.563C161.516 142.563 168.534 134 175.662 134C187.021 134 193.113 141.586 196.104 143.681C202.149 147.913 222.749 150.937 222.749 165.548C222.749 178.93 216.315 186.175 208.446 186.175C200.577 186.175 160.239 171.9 160.239 171.9C160.239 171.9 147.308 166.86 146.436 165.763C145.563 164.666 140.038 161.983 140.333 153.541C138.914 152.538 131.365 155.861 127.076 153.394C126.13 154.733 125.554 156.298 125.404 157.93C124.364 157.967 118.424 156.297 118.424 149.084Z" fill="#3C4047"/>
<path d="M124.165 184.963C128.896 169.275 160.714 161.689 170.585 161.862C180.457 162.036 175.405 173.197 207.549 181.975C210.897 186.175 213.578 210.231 210.561 217.424H122.01C122.01 217.424 121.464 189.782 124.165 184.963Z" fill="#FFD88C"/>
<path d="M148.702 168.651C149.796 170.021 145.123 173.686 144.056 172.326L136.35 162.655L141.002 158.98L148.702 168.651Z" fill="#F8CDBA"/>
<path d="M293.607 228.738C293.823 229.484 294.89 233.93 295.736 234.482C297.271 235.479 306.37 232.177 306.68 231.615C306.99 231.053 306.985 230.072 306.523 229.925C306.06 229.778 302.149 230.098 301.55 229.893C300.951 229.688 299.721 228.056 299.694 226.99" fill="#3C4047"/>
<path d="M341.873 209.423C342.651 209.423 347.214 209.061 347.997 209.696C349.416 210.851 349.048 220.516 348.596 220.984C348.144 221.451 347.214 221.745 346.93 221.346C346.646 220.947 345.768 217.146 345.39 216.621C345.011 216.096 343.082 215.445 342.057 215.744" fill="#3C4047"/>
<path d="M126.821 163.577C127.638 163.067 128.085 162.308 127.818 161.883C127.552 161.458 126.674 161.527 125.856 162.037C125.039 162.548 124.593 163.307 124.859 163.732C125.126 164.157 126.004 164.088 126.821 163.577Z" fill="#F68069"/>
<path d="M136.11 157.774C136.927 157.264 137.374 156.505 137.107 156.08C136.841 155.655 135.963 155.724 135.146 156.234C134.328 156.745 133.882 157.504 134.148 157.929C134.415 158.354 135.293 158.285 136.11 157.774Z" fill="#F68069"/>
<path d="M128.942 158.964C128.911 159.531 128.527 162.072 130.446 161.804" stroke="#3C4047" stroke-width="0.69" stroke-miterlimit="10" stroke-linecap="round"/>
<path d="M134.635 161.873C135.071 161.584 135.418 160.618 135.471 159.894" stroke="#3C4047" stroke-width="0.69" stroke-miterlimit="10" stroke-linecap="round"/>
<path d="M139.782 155.693C140.955 155.693 141.905 154.744 141.905 153.572C141.905 152.401 140.955 151.451 139.782 151.451C138.609 151.451 137.658 152.401 137.658 153.572C137.658 154.744 138.609 155.693 139.782 155.693Z" fill="#F8CDBA"/>
<path d="M115.334 219.676C113.442 217.198 113 211.365 113 207.307C114.356 194.25 117.731 182.878 124.664 170.751C125.505 169.454 128.733 169.869 129.332 170.751C131.314 178.872 135.077 204.939 123.87 219.892C121.084 219.892 117.678 219.676 115.334 219.676Z" fill="#FFD88C"/>
<path d="M127.276 171.816C129.369 171.816 131.066 170.122 131.066 168.031C131.066 165.941 129.369 164.246 127.276 164.246C125.183 164.246 123.486 165.941 123.486 168.031C123.486 170.122 125.183 171.816 127.276 171.816Z" fill="#F8CDBA"/>
<path d="M165.849 241.632C169.004 241.632 171.562 239.077 171.562 235.925C171.562 232.773 169.004 230.218 165.849 230.218C162.693 230.218 160.135 232.773 160.135 235.925C160.135 239.077 162.693 241.632 165.849 241.632Z" fill="#F8CDBA"/>
<path d="M186.654 217.429C194.481 207.585 202.424 197.038 202.424 195.736C202.424 194.523 198.134 187.063 192.51 179.608" stroke="#3C4047" stroke-linecap="round" stroke-linejoin="round"/>
<path d="M163.463 180.91C164.772 182.327 175.905 197.81 175.8 199.773C175.742 200.823 172.646 209.502 169.708 217.434" stroke="#3C4047" stroke-linecap="round" stroke-linejoin="round"/>
<path d="M131.551 189.651C131.677 198.87 130.378 209.365 125.521 217.435" stroke="#3C4047" stroke-linecap="round" stroke-linejoin="round"/>
<path d="M211.022 194.901C213.43 194.964 342.523 208.767 342.523 208.767V216.169L210.586 217.414" fill="#548582"/>
</svg>
