<svg width="300" height="300" viewBox="0 0 300 300" fill="none" xmlns="http://www.w3.org/2000/svg">
<g clip-path="url(#clip0)">
<path d="M148.973 72.1729C152.603 75.9677 156.279 78.3384 157.183 77.4679C158.088 76.5974 155.879 72.8154 152.249 69.0205C148.619 65.2256 144.943 62.8549 144.039 63.7254C143.134 64.5959 145.343 68.3779 148.973 72.1729Z" fill="#F8CDBA"/>
<path d="M257.471 147.898C257.749 148.701 260.45 152.456 261.464 154.117C262.478 155.778 264.178 160.664 262.687 161.466C261.194 162.268 258.693 161.681 257.901 159.108C257.109 156.536 254.421 150.738 253.481 149.467C252.542 148.196 257.471 147.898 257.471 147.898Z" fill="#F8CDBA"/>
<path d="M172.552 201.612C172.582 202.173 173.583 206.779 173.139 207.358C172.334 208.409 165.378 208.322 165.035 208.011C164.691 207.699 164.461 207.024 164.739 206.814C165.018 206.604 167.75 205.889 168.106 205.609C168.463 205.329 168.911 203.913 168.676 203.176" fill="#3C4047"/>
<path d="M220.759 135.514C223.804 137.67 254.255 228.353 253.759 229.791C253.263 231.228 249.792 232.026 248.539 231.228C247.286 230.43 223.634 187.278 222.365 185.999C221.094 184.719 202.532 165.226 199.996 157.553C197.46 149.88 220.759 135.514 220.759 135.514Z" fill="#3C4047"/>
<path d="M216.519 130.361C218.445 131.377 224.044 136.934 224.044 142.845C224.044 159.546 208.819 162.917 203.39 162.82C197.961 162.723 175.527 163.666 167.036 160.786C167.401 164.025 170.25 193.246 172.913 201.757C172.269 202.958 168.919 204.018 168.319 203.51C163.499 199.566 149.278 157.898 149.553 154.971C150.17 148.363 212.991 131.219 216.519 130.361Z" fill="#F68069"/>
<path d="M198.03 101.31C197.756 102.511 204.307 104.137 204.607 102.844L206.46 94.7892L199.883 93.2729L198.03 101.31Z" fill="#F8CDBA"/>
<path d="M205.351 99.601C205.516 98.8823 204.459 96.0338 203.11 96.1609C204.781 95.9681 205.982 94.2722 206.46 94.7893L205.351 99.601Z" fill="#3C4047"/>
<path d="M201.61 96.2879C206.453 96.2879 210.38 92.3324 210.38 87.4532C210.38 82.5739 206.453 78.6184 201.61 78.6184C196.766 78.6184 192.84 82.5739 192.84 87.4532C192.84 92.3324 196.766 96.2879 201.61 96.2879Z" fill="#F8CDBA"/>
<path d="M194.131 86.9239C194.225 86.5113 193.665 86.0279 192.878 85.8443C192.092 85.6606 191.378 85.8463 191.283 86.2589C191.188 86.6715 191.749 87.1549 192.535 87.3385C193.322 87.5221 194.036 87.3365 194.131 86.9239Z" fill="#F68069"/>
<path d="M203.087 89.0137C203.182 88.6011 202.622 88.1178 201.835 87.9341C201.049 87.7505 200.334 87.9362 200.239 88.3487C200.144 88.7614 200.705 89.2447 201.491 89.4284C202.278 89.612 202.992 89.4263 203.087 89.0137Z" fill="#F68069"/>
<path d="M196.542 85.8538C196.186 86.1737 194.45 87.4621 195.742 88.4525" stroke="#3C4047" stroke-width="0.69" stroke-miterlimit="10" stroke-linecap="round"/>
<path d="M198.182 91.003C198.616 91.0862 199.395 90.7181 199.857 90.3193" stroke="#3C4047" stroke-width="0.69" stroke-miterlimit="10" stroke-linecap="round"/>
<path d="M205.895 86.134C205.916 84.1401 198.979 79.5386 195.638 80.9717C197.183 79.5395 199.187 78.7133 201.285 78.6435C203.384 78.5736 205.438 79.2647 207.074 80.5911C208.71 81.9175 209.819 83.7911 210.2 85.8714C210.58 87.9517 210.207 90.1006 209.149 91.9274C208.209 91.0817 205.895 88.014 205.895 86.134Z" fill="#3C4047"/>
<path d="M207.713 90.3585C208.78 90.3585 209.644 89.4873 209.644 88.4128C209.644 87.3382 208.78 86.467 207.713 86.467C206.646 86.467 205.781 87.3382 205.781 88.4128C205.781 89.4873 206.646 90.3585 207.713 90.3585Z" fill="#F8CDBA"/>
<path d="M155.351 70.9231C156.282 71.747 174.753 90.1439 177.871 90.9064C188.381 93.4745 222.39 103.733 233.988 113.125C246.099 120.636 258.958 147.101 258.492 148.039C258.027 148.977 252.89 151.211 251.841 150.742C250.793 150.273 236.437 130.255 234.218 128.98C232 127.705 214.734 119.12 214.734 119.12C215.548 121.118 217.884 129.585 217.531 130.759C217.179 131.933 209.658 137.03 195.946 138.283C194.546 137.46 190.461 113.598 190.461 113.598C187.542 112.283 168.228 101.928 163.973 96.5508C162.325 94.4648 149.853 75.1564 149.853 74.2011C149.853 73.2457 155.351 70.9231 155.351 70.9231Z" fill="#4C9789"/>
<path d="M199.583 118.191C198.369 117.691 190.534 113.576 190.534 113.576" stroke="#3C4047" stroke-width="0.55" stroke-miterlimit="10" stroke-linecap="round"/>
<path d="M206.69 100.201C207.518 101.213 213.372 113.431 214.734 119.269" stroke="#3C4047" stroke-width="0.55" stroke-miterlimit="10" stroke-linecap="round"/>
<path d="M253.102 229.703C253.576 230.142 254.725 232.082 254.782 232.806C255.064 236.267 251.345 241.662 250.745 241.667C249.005 241.667 248.104 240.738 248.104 239.651C248.104 238.564 249.409 237.236 249.409 236.509C249.409 235.781 249.248 231.434 249.126 230.79" fill="#3C4047"/>
<path d="M139.269 72.7301C138.039 77.8538 138.033 82.2463 139.255 82.5411C140.476 82.8359 142.463 78.9213 143.693 73.7976C144.921 68.6739 144.928 64.2813 143.707 63.9866C142.485 63.6917 140.499 67.6063 139.269 72.7301Z" fill="#F8CDBA"/>
<path d="M92.6516 240.891C92.4196 241.569 90.87 245.498 91.2202 246.364C91.8505 247.93 100.487 250.241 101.017 249.978C101.546 249.716 102.072 248.972 101.796 248.613C101.52 248.255 98.3946 246.426 98.0488 245.961C97.703 245.498 97.6373 243.604 98.1845 242.786" fill="#3C4047"/>
<path d="M37.4836 235.115C37.2516 235.789 35.7021 239.723 36.0523 240.584C36.6826 242.155 45.319 244.46 45.8486 244.203C46.3783 243.945 46.8992 243.196 46.6234 242.838C46.3477 242.479 43.2223 240.65 42.8765 240.186C42.5307 239.723 42.4694 237.828 43.0165 237.005" fill="#3C4047"/>
<path d="M94.787 171.128C93.8328 172.686 81.5063 192.947 66.7723 205.04C64.2729 209.639 47.4422 237.242 45.7307 237.898C44.0192 238.554 36.3983 235.947 36 234.634C35.6016 233.322 55.7328 193.997 57.3086 189.132C58.8845 184.267 75.8333 144.706 80.4514 140.764C85.0695 136.822 95.807 169.465 94.787 171.128Z" fill="#3C4047"/>
<path d="M107.616 153.399C109.976 157.088 120.748 189.237 119.873 195.726C118.997 202.214 99.9561 243.205 98.3366 243.647C96.717 244.089 92.436 242.614 91.6962 240.847C90.9564 239.079 100.105 191.595 100.105 191.595C98.3541 189.679 80.2277 158.273 81.3658 143.074C82.5039 127.874 107.616 153.399 107.616 153.399Z" fill="#FCF5F3"/>
<path d="M116.485 112.25C116.174 113.441 109.582 111.813 109.919 110.5L112.024 102.52L118.59 104.27L116.485 112.25Z" fill="#F8CDBA"/>
<path d="M110.769 107.315C110.957 106.602 113.224 104.585 114.367 105.329C112.966 104.375 112.695 102.315 112.025 102.546L110.769 107.315Z" fill="#3C4047"/>
<path d="M119.764 107.158C124.638 107.158 128.589 103.209 128.589 98.3373C128.589 93.4659 124.638 89.5168 119.764 89.5168C114.89 89.5168 110.939 93.4659 110.939 98.3373C110.939 103.209 114.89 107.158 119.764 107.158Z" fill="#F8CDBA"/>
<path d="M129.508 102.129C129.616 101.72 129.067 101.221 128.281 101.014C127.496 100.807 126.772 100.971 126.664 101.38C126.556 101.789 127.105 102.288 127.891 102.495C128.676 102.702 129.4 102.538 129.508 102.129Z" fill="#F68069"/>
<path d="M120.556 99.7702C120.664 99.3613 120.115 98.8621 119.329 98.655C118.544 98.4481 117.82 98.6118 117.712 99.0207C117.604 99.4295 118.153 99.9288 118.939 100.136C119.725 100.343 120.449 100.179 120.556 99.7702Z" fill="#F68069"/>
<path d="M125.017 99.3042C125.184 99.7417 126.129 101.706 124.519 101.973" stroke="#3C4047" stroke-width="0.69" stroke-miterlimit="10" stroke-linecap="round"/>
<path d="M121.156 103.08C120.718 102.953 120.211 102.262 119.987 101.689" stroke="#3C4047" stroke-width="0.69" stroke-miterlimit="10" stroke-linecap="round"/>
<path d="M116.543 95.1564C117.449 93.4063 125.77 92.5794 128.072 95.4102C127.368 93.4143 125.969 91.7383 124.131 90.6877C122.293 89.6371 120.138 89.2821 118.06 89.6875C115.982 90.0928 114.119 91.2315 112.811 92.8957C111.503 94.5599 110.837 96.6387 110.935 98.7528C112.196 98.4421 115.689 96.8408 116.543 95.1564Z" fill="#3C4047"/>
<path d="M113.881 98.2628C114.955 98.2628 115.825 97.3931 115.825 96.3203C115.825 95.2474 114.955 94.3777 113.881 94.3777C112.808 94.3777 111.938 95.2474 111.938 96.3203C111.938 97.3931 112.808 98.2628 113.881 98.2628Z" fill="#F8CDBA"/>
<path d="M78.3936 142.619C79.269 140.637 107.082 56.4009 108.076 55.6046C109.07 54.8083 114.305 56.099 114.366 57.1928C114.366 58.8991 104.53 102.258 104.736 103.08C104.942 103.903 119.991 114.158 119.991 114.158C119.991 114.158 134.554 99.6586 135.066 98.753C135.578 97.8473 137.465 74.0636 137.824 73.5167C138.183 72.9698 143.655 72.1385 143.952 72.4448C144.25 72.751 145.331 98.5648 145.025 100.048C144.719 101.531 129.323 119.736 128.828 120.612C128.334 121.487 109.906 154.349 108.426 155.114C106.947 155.88 88.9647 151.758 78.3936 142.619Z" fill="#FFD88C"/>
<path d="M104.723 103.08C103.235 102.126 99.7071 100.761 97.374 100.192" stroke="#3C4047" stroke-width="0.55" stroke-miterlimit="10" stroke-linecap="round"/>
<path d="M119.987 114.158C121.038 114.709 122.027 115.371 122.938 116.131" stroke="#3C4047" stroke-width="0.55" stroke-miterlimit="10" stroke-linecap="round"/>
<path d="M110.143 52.9181C109.197 55.5205 109.387 57.98 110.567 58.4115C111.747 58.8431 113.471 57.0834 114.417 54.4811C115.363 51.8788 115.173 49.4193 113.993 48.9877C112.813 48.5561 111.089 50.3158 110.143 52.9181Z" fill="#F8CDBA"/>
</g>
<defs>
<clipPath id="clip0">
<rect width="227.273" height="200" fill="white" transform="translate(36 50)"/>
</clipPath>
</defs>
</svg>
