<svg width="44" height="44" viewBox="0 0 44 44" fill="none" xmlns="http://www.w3.org/2000/svg">
<circle cx="22" cy="22" r="22" fill="#FCEAE0"/>
<path d="M12.1837 32C12.2795 32 12.3754 31.9887 12.4701 31.9661L17.2049 30.835C17.4132 30.7853 17.6038 30.6823 17.7553 30.5376L32.3064 16.6337C32.7538 16.2062 33 15.6384 33 15.0344C33 14.4304 32.7538 13.8627 32.3064 13.4351L30.429 11.6413C29.5342 10.7862 27.9764 10.7862 27.0816 11.6413L12.5305 25.5452C12.379 25.69 12.2715 25.8714 12.2192 26.07L11.0355 30.5941C10.9918 30.7609 10.9884 30.935 11.0257 31.1032C11.0629 31.2714 11.1398 31.4293 11.2505 31.5648C11.3612 31.7003 11.5028 31.81 11.6645 31.8854C11.8262 31.9608 12.0037 32 12.1837 32ZM28.7553 13.2406L30.6326 15.0344L28.7553 16.8282L26.878 15.0344L28.7553 13.2406ZM14.4362 26.9228L25.2042 16.6337L27.0816 18.4275L16.3124 28.7166L13.81 29.3138L14.4362 26.9228Z" fill="#3C4047"/>
</svg>
