<svg width="175" height="177" viewBox="0 0 175 177" fill="none" xmlns="http://www.w3.org/2000/svg">
<path d="M133.051 116.071C133.406 118.182 139.436 166.44 140.412 167.237C141.389 168.035 151.761 169.804 152.649 168.474C152.827 166.364 153.072 132.713 153.622 129.703" fill="#3C4047"/>
<path d="M16.3895 106.002C12.2076 103.942 20.9266 144.698 43.874 144.698C66.8215 144.698 105.448 109.797 111.702 109.797C125.507 109.797 158.189 136.862 160.751 136.862C162.713 134.904 166.637 131.476 166.637 130.129C166.637 128.782 135.347 77.358 111.934 77.358C102.856 77.3495 25.8315 110.659 16.3895 106.002Z" fill="#4C9789"/>
<path d="M29.3029 106.694C33.8907 105.656 39.599 102.966 44.652 100.214C30.9055 104.697 19.641 107.606 16.3894 106.002C14.1737 104.913 15.5776 115.821 20.7869 126.329C19.844 124.294 18.4994 109.139 29.3029 106.694Z" fill="#3C4047"/>
<path d="M39.4172 35.1961C43.0325 35.2932 61.8531 34.7402 67.0117 39.6457C70.8384 43.2806 82.7371 74.5801 84.5722 85.5691C76.5806 89.6219 18.9391 117.181 1.09957 105.061C0.706329 95.642 2.53722 58.2253 14.2034 38.5988C18.4698 35.7618 35.9415 35.1032 39.4172 35.1961Z" fill="#F68069"/>
<path d="M46.7497 26.2379H35.7559V38.0375C35.7559 40.9926 46.7497 40.9673 46.7497 38.0375V26.2379Z" fill="#F8CDBA"/>
<path d="M35.7559 33.3512C35.7559 32.0425 39.388 28.7539 41.6333 28.8678C41.6883 27.4409 36.5043 25.3301 36.5043 25.3301L35.7559 27.3438V33.3512Z" fill="#3C4047"/>
<path d="M58.2637 26.2377C58.5108 25.0975 58.6356 23.9342 58.6358 22.7675C58.6358 14.0624 51.8239 7.00381 43.4136 7.00381C35.0033 7.00381 28.1914 14.0624 28.1914 22.7675C28.1917 23.9342 28.3164 25.0975 28.5635 26.2377H58.2637Z" fill="#3C4047"/>
<path d="M54.2509 15.6203C52.3861 15.3375 50.5256 13.8725 49.2275 12.9142C41.8278 18.3264 37.0878 18.4024 36.5762 18.4024C36.0646 18.4024 33.98 21.3913 33.0201 21.7291L32.9355 21.6784C33.223 23.2496 33.8345 24.744 34.7311 26.0668C35.6277 27.3896 36.7899 28.5119 38.144 29.3624C39.498 30.213 41.0144 30.7732 42.5968 31.0077C44.1793 31.2421 45.7932 31.1456 47.3363 30.7242C48.8794 30.3029 50.318 29.5659 51.5606 28.56C52.8033 27.5542 53.8231 26.3014 54.5551 24.8813C55.2872 23.4611 55.7156 21.9045 55.8131 20.3102C55.9107 18.716 55.6753 17.1189 55.1219 15.6203C54.8327 15.6562 54.5401 15.6562 54.2509 15.6203Z" fill="#F8CDBA"/>
<path d="M35.1683 8.9668C37.6483 8.9668 39.6588 6.95951 39.6588 4.48338C39.6588 2.00726 37.6483 -3.05176e-05 35.1683 -3.05176e-05C32.6882 -3.05176e-05 30.6777 2.00726 30.6777 4.48338C30.6777 6.95951 32.6882 8.9668 35.1683 8.9668Z" fill="#3C4047"/>
<path d="M37.1679 18.1533C36.6826 18.1762 36.2248 18.3848 35.8895 18.7358C35.5542 19.0868 35.3672 19.5532 35.3672 20.0382C35.3672 20.5233 35.5542 20.9897 35.8895 21.3407C36.2248 21.6917 36.6826 21.9003 37.1679 21.9232" stroke="#3C4047" stroke-miterlimit="10" stroke-linecap="round"/>
<path d="M51.5615 18.3813C52.1154 19.1201 53.5404 20.4119 51.5615 21.784" stroke="#3C4047" stroke-miterlimit="10" stroke-linecap="round"/>
<path d="M45.5615 22.7971C45.5615 23.3501 45.7983 24.6715 46.9865 25.0135" stroke="#3C4047" stroke-miterlimit="10" stroke-linecap="round"/>
<path d="M41.8783 22.9152C42.8405 22.9152 43.6204 22.5107 43.6204 22.0117C43.6204 21.5128 42.8405 21.1083 41.8783 21.1083C40.9162 21.1083 40.1362 21.5128 40.1362 22.0117C40.1362 22.5107 40.9162 22.9152 41.8783 22.9152Z" fill="#F68069"/>
<path d="M54.83 22.9152C55.7921 22.9152 56.5721 22.5107 56.5721 22.0117C56.5721 21.5128 55.7921 21.1083 54.83 21.1083C53.8679 21.1083 53.0879 21.5128 53.0879 22.0117C53.0879 22.5107 53.8679 22.9152 54.83 22.9152Z" fill="#F68069"/>
<path d="M66.6147 67.817L78.3654 64.7985C79.4944 66.7025 84.9913 85.548 84.9913 85.548L66.8515 93.1808C67.0883 89.6093 67.8029 73.2883 66.6147 67.817Z" fill="#F8CDBA"/>
<path d="M25.413 64.866C25.413 66.2844 24.2164 71.684 23.5103 74.2212" stroke="#3C4047" stroke-miterlimit="10" stroke-linecap="round"/>
<path d="M66.6147 67.8169C66.3314 65.5836 64.6739 52.9988 61.8535 46.375" stroke="#3C4047" stroke-miterlimit="10" stroke-linecap="round"/>
<path d="M66.6147 67.817L78.3654 64.7985C79.4944 66.7025 84.9913 85.548 84.9913 85.548L66.8515 93.1808C67.0883 89.6093 67.8029 73.2883 66.6147 67.817Z" fill="#F8CDBA"/>
<path d="M161.102 135.866C161.364 136.267 164.865 140.573 166.104 140.624C167.343 140.675 174.865 135.583 174.535 134.49C174.205 133.396 169.486 134.106 168.675 133.726C167.863 133.346 166.057 131.539 165.77 130.733" fill="#3C4047"/>
<path d="M142.603 167.685C142.514 168.153 142.036 173.68 142.894 174.575C143.753 175.47 152.704 177.023 153.224 176.006C153.744 174.988 149.842 172.232 149.541 171.396C149.241 170.56 149.178 168.018 149.541 167.225" fill="#3C4047"/>
<path d="M128.569 86.7301H88.75L98.23 61.6491H138.049L128.569 86.7301Z" fill="#959FA6"/>
<path d="M95.3886 85.7845H55.5698V86.7301H95.3886V85.7845Z" fill="#959FA6"/>
<path d="M23.5103 74.2212C22.7449 77.0877 19.0113 89.3137 20.5504 91.4161C22.0895 93.5185 59.9759 88.7395 70.1198 85.5902C72.7034 84.7458 74.6188 82.5295 75.7647 82.2466C77.2326 81.9994 78.7402 82.301 79.9992 83.0939C81.2583 83.8868 82.1805 85.1152 82.5893 86.5443C78.5385 88.5031 20.0514 118.317 1.09979 105.048C-2.48165 102.502 3.80596 71.2618 4.08926 69.6829C7.29016 70.0797 23.5103 74.2212 23.5103 74.2212Z" fill="#F8CDBA"/>
<path d="M67.1558 86.3755C68.2974 86.1053 69.2953 85.8436 70.1156 85.5903C72.6992 84.7459 74.6146 82.5296 75.7605 82.2467C77.229 81.9983 78.7377 82.2995 79.9977 83.0924C81.2577 83.8854 82.1804 85.1145 82.5894 86.5444" stroke="#3C4047" stroke-miterlimit="10" stroke-linecap="round"/>
</svg>
