<svg width="9" height="9" viewBox="0 0 9 9" fill="none" xmlns="http://www.w3.org/2000/svg">
<path d="M5.76431 7.575C6.65113 7.575 7.39814 7.22917 8.00533 6.5375L9 7.5375C8.61651 8.0125 8.13715 8.375 7.56192 8.625C6.99467 8.875 6.36751 9 5.68043 9C4.98535 9 4.33822 8.86667 3.73901 8.6C3.1478 8.33333 2.64447 7.95833 2.22903 7.475C1.82157 6.99167 1.53395 6.43333 1.36618 5.8H0V4.925H1.21039C1.2024 4.83333 1.1984 4.69167 1.1984 4.5C1.1984 4.30833 1.2024 4.16667 1.21039 4.075H0V3.2H1.36618C1.53395 2.56667 1.82157 2.00833 2.22903 1.525C2.64447 1.04167 3.1478 0.666667 3.73901 0.4C4.33822 0.133333 4.98535 0 5.68043 0C6.36751 0 6.99467 0.125 7.56192 0.375C8.13715 0.625 8.61651 0.9875 9 1.4625L8.00533 2.45C7.39814 1.76667 6.65113 1.425 5.76431 1.425C5.12517 1.425 4.56192 1.58333 4.07457 1.9C3.59521 2.21667 3.23968 2.65 3.00799 3.2H6.4474V4.075H2.78029C2.76431 4.25833 2.75632 4.4 2.75632 4.5C2.75632 4.6 2.76431 4.74167 2.78029 4.925H6.4474V5.8H3.00799C3.23968 6.35 3.59521 6.78333 4.07457 7.1C4.56192 7.41667 5.12517 7.575 5.76431 7.575Z" fill="#4C9789"/>
</svg>
