<svg width="75" height="75" viewBox="0 0 75 75" fill="none" xmlns="http://www.w3.org/2000/svg">
<circle cx="37.5" cy="37.5" r="37.5" fill="#FCEAE0"/>
<path d="M47 56V53.7778C47 52.599 46.4996 51.4686 45.6088 50.6351C44.718 49.8016 43.5098 49.3333 42.25 49.3333H32.75C31.4902 49.3333 30.282 49.8016 29.3912 50.6351C28.5004 51.4686 28 52.599 28 53.7778V56M42.25 40.4444C42.25 42.899 40.1234 44.8889 37.5 44.8889C34.8766 44.8889 32.75 42.899 32.75 40.4444C32.75 37.9898 34.8766 36 37.5 36C40.1234 36 42.25 37.9898 42.25 40.4444Z" stroke="#3C4047" stroke-width="3" stroke-linecap="round" stroke-linejoin="round"/>
<path d="M47.0556 15V23.8M27.9444 15V23.8M16 32.6H59M20.7778 19.4H54.2222C56.8609 19.4 59 21.3699 59 23.8V54.6C59 57.0301 56.8609 59 54.2222 59H20.7778C18.1391 59 16 57.0301 16 54.6V23.8C16 21.3699 18.1391 19.4 20.7778 19.4Z" stroke="#3C4047" stroke-width="3" stroke-linecap="round" stroke-linejoin="round"/>
</svg>
