<svg width="89" height="65" viewBox="0 0 89 65" fill="none" xmlns="http://www.w3.org/2000/svg">
<path d="M23.2588 47.7875L25.647 45.4051C20.8706 42.3654 16.7529 38.1756 13.7882 33.0821C20.2117 21.9093 32.0705 15.0906 44.9999 15.0906C48.294 15.0906 51.5881 15.5835 54.6352 16.4051L57.2705 13.7762C53.3999 12.5439 49.2823 11.8045 44.9999 11.8045C29.7647 11.8045 16.5882 20.4306 10 33.0821C13.1294 38.9971 17.6588 44.0906 23.2588 47.7875Z" fill="#4C9789"/>
<path d="M66.7415 18.2946L64.3533 20.6771C69.2121 23.7167 73.3297 27.9065 76.2944 33C69.7885 44.1728 57.9297 50.9915 45.0004 50.9915C41.6239 50.9915 38.4122 50.4986 35.2827 49.6771L32.6475 52.3059C36.518 53.6204 40.718 54.2776 45.0004 54.2776C60.2356 54.2776 73.4121 45.6516 80.0003 33C76.8709 27.085 72.3415 21.9915 66.7415 18.2946Z" fill="#4C9789"/>
<path d="M38.5762 41.7904L53.8115 26.5921L56.1173 24.2096L61.3879 19.034L63.7761 16.5694L74.0702 6.38244L71.682 4L60.6467 15.0085L58.1762 17.5552L53.8115 21.9093L51.4232 24.2096L36.188 39.4079L33.8821 41.7904L28.5292 47.0482L26.1409 49.5127L15.9292 59.6176L18.3174 62L29.2703 50.9915L31.7409 48.5269L36.188 44.0906L38.5762 41.7904Z" fill="#4C9789"/>
<path d="M44.9996 22.1557C46.1526 22.1557 47.3055 22.3201 48.3761 22.7308L50.929 20.1841C49.1173 19.3625 47.1408 18.8696 44.9996 18.8696C37.1761 18.8696 30.835 25.1954 30.835 32.9999C30.835 35.1359 31.3291 37.1076 32.1526 38.915L34.7055 36.3682C34.3761 35.3002 34.1291 34.1501 34.1291 32.9999C34.1291 27.0028 38.9879 22.1557 44.9996 22.1557Z" fill="#4C9789"/>
<path d="M44.9997 43.8442C43.8468 43.8442 42.6938 43.6799 41.6232 43.2691L39.0703 45.8158C40.8821 46.6374 42.8585 47.1303 44.9997 47.1303C52.8232 47.1303 59.1644 40.8045 59.1644 33C59.1644 30.864 58.6703 28.8923 57.8467 27.085L55.2938 29.6317C55.6232 30.6997 55.8703 31.8498 55.8703 33C55.8703 38.9971 51.0115 43.8442 44.9997 43.8442Z" fill="#4C9789"/>
</svg>
