<svg width="697" height="792" viewBox="0 0 697 792" fill="none" xmlns="http://www.w3.org/2000/svg">
<path fill-rule="evenodd" clip-rule="evenodd" d="M33.5668 441.515C35.8172 439.264 38.8695 438 42.0521 438H139.456C142.638 438 145.691 439.264 147.941 441.515L178.485 472.059C180.736 474.309 182 477.362 182 480.544V576.687C182 579.87 180.736 582.922 178.485 585.172L147.172 616.485C144.922 618.736 141.87 620 138.687 620L42.5448 620C39.3622 620 36.31 618.736 34.0595 616.485L3.51472 585.941C1.26428 583.69 0 580.638 0 577.455V480.052C0 476.869 1.26428 473.817 3.51472 471.567L33.5668 441.515Z" fill="#FCEAE0"/>
<path fill-rule="evenodd" clip-rule="evenodd" d="M407.497 3.51472C409.748 1.26428 412.8 0 415.983 0H848.986C852.169 0 855.221 1.26428 857.471 3.51472L1005.49 151.529C1007.74 153.779 1009 156.831 1009 160.014V587.814C1009 590.997 1007.74 594.049 1005.49 596.299L854.299 747.485C852.049 749.736 848.997 751 845.814 751L418.016 751C414.833 751 411.781 749.736 409.531 747.485L261.515 599.469C259.264 597.219 258 594.167 258 590.984V157.983C258 154.8 259.264 151.748 261.515 149.497L407.497 3.51472Z" fill="#FFE6C2"/>
<path d="M474.055 402.601L453.885 402.509C447.008 402.417 441.416 398.2 441.324 393.157V391.415C441.232 386.373 446.733 382.339 453.518 382.339L473.688 382.43C480.565 382.522 486.157 386.739 486.249 391.782V393.524C486.341 398.567 480.84 402.692 474.055 402.601Z" fill="#FCB58A"/>
<path d="M124.376 401.409L104.206 401.317C97.3294 401.225 91.7367 397.008 91.6451 391.965V390.223C91.5534 385.181 97.0542 381.147 103.839 381.147L124.009 381.238C130.885 381.33 136.478 385.548 136.57 390.59V392.332C136.661 397.375 131.16 401.5 124.376 401.409Z" fill="#FCB58A"/>
<path d="M233.662 700.846C232.929 711.114 232.103 721.383 231.278 731.651C230.728 738.528 238.796 744.029 245.397 743.662C253.374 743.295 257.775 737.152 258.233 730.184C258.967 719.916 259.792 709.647 260.617 699.379C261.167 692.503 253.099 687.002 246.498 687.368C238.521 687.827 234.304 693.97 233.662 700.846Z" fill="#FCB58A"/>
<path d="M332.129 704.055C333.78 714.232 335.338 724.409 336.989 734.585C338.089 741.37 347.165 744.854 353.492 743.02C361.193 740.728 363.943 733.852 362.843 726.976C361.193 716.799 359.634 706.622 357.984 696.445C356.884 689.661 347.807 686.177 341.481 688.01C333.78 690.302 331.029 697.27 332.129 704.055Z" fill="#FCB58A"/>
<path d="M124.926 688.744C99.8961 688.744 79.5427 686.452 78.8092 683.61L82.4765 727.251C82.4765 747.971 101.547 764.841 124.834 764.841C148.122 764.841 167.192 747.879 167.192 727.251L170.859 683.518C170.492 686.452 150.047 688.744 124.926 688.744Z" fill="#DEC7B2"/>
<path d="M124.926 688.744C99.5294 688.744 78.9009 686.36 78.8092 683.426V683.334C78.9926 680.401 99.5294 678.017 124.926 678.017C150.23 678.017 170.767 680.401 171.042 683.334V683.426C170.859 686.36 150.322 688.744 124.926 688.744Z" fill="#E8D4C1"/>
<path d="M124.926 687.827C103.564 687.827 86.1442 685.81 86.0525 683.334V683.243C86.2359 680.767 103.564 678.75 124.926 678.75C146.288 678.75 163.616 680.767 163.8 683.243V683.334C163.708 685.81 146.288 687.827 124.926 687.827Z" fill="#BA9C7E"/>
<path d="M80.3679 702.221C83.3018 702.313 86.2356 703.413 88.8027 705.888C93.4786 710.473 96.5041 717.532 100.263 722.85C101.73 719.916 103.014 716.982 104.114 713.957C105.489 710.381 110.348 706.989 114.107 709.923C118.141 713.132 121.258 716.615 123.826 721.016C126.118 724.867 127.951 729.359 131.527 732.201C134.919 734.952 138.862 735.777 140.237 730.826C141.429 726.517 140.97 721.933 142.437 717.532C143.629 713.957 145.371 710.198 149.13 708.639C153.439 706.805 157.657 709.097 161.507 711.023C163.8 712.215 166.092 713.406 168.292 714.782L167.558 723.95C163.616 721.475 158.757 718.449 154.723 717.899C152.156 717.532 152.339 719.274 152.156 721.658C152.064 723.767 152.064 725.967 151.881 728.076C151.606 732.477 150.964 736.877 148.397 740.453C142.804 748.246 132.444 747.879 125.109 742.929C121.167 740.27 118.325 736.786 115.757 732.752C114.932 731.468 114.107 730.093 113.282 728.718C110.073 736.052 105.306 742.653 97.4208 739.811C92.47 738.069 89.2612 732.66 86.3273 728.718C85.4105 727.526 83.7602 724.408 82.0183 721.75L80.3679 702.221Z" fill="#FCEAE0"/>
<path d="M62.3065 539.667C63.315 535.908 67.624 535.358 70.2828 537.558C75.2337 541.684 77.8007 547.368 80.4595 552.961C83.3017 558.92 86.7857 564.33 90.8198 569.464C99.0713 580.008 108.24 589.726 114.291 601.828C126.026 625.207 128.868 652.712 120.709 677.742C120.434 678.475 121.992 674.533 119.517 681.501C117.225 687.735 108.331 684.435 108.423 677.1C108.515 669.949 106.589 663.256 103.472 656.93C97.2376 644.369 89.3528 632.542 83.21 619.89C76.9756 607.054 71.5663 593.943 67.1655 580.374C62.9481 567.355 58.8225 553.419 62.3065 539.667Z" fill="#4C9789"/>
<path d="M119.883 466.321C123.092 460.544 132.261 464.487 130.519 470.813C125.109 489.333 128.96 508.861 132.352 527.381C135.745 546.268 139.779 564.972 142.071 584.042C146.196 617.873 144.821 655.83 123.459 684.16C121.167 687.185 116.308 684.71 118.233 681.042C120.342 677.008 115.024 650.695 112.64 642.26C110.257 633.551 107.781 624.841 105.672 616.131C101.363 598.986 97.8794 581.566 97.0542 563.871C94.9455 529.49 103.472 496.301 119.883 466.321Z" fill="#548582"/>
<path d="M130.06 654.271C132.536 642.81 130.702 630.525 133.177 619.156C135.561 607.879 138.862 596.51 144.088 586.242C149.039 576.523 156.648 569.556 165.633 563.505C174.068 557.82 183.97 552.227 186.996 541.776C188.737 535.541 199.281 536.458 198.639 543.334C197.172 557.27 191.304 569.556 184.52 581.658C177.185 594.493 170.859 606.779 167.284 621.173C161.141 645.836 155.823 677.833 127.768 685.443C124.192 686.268 124.651 678.934 130.06 654.271Z" fill="#B6D5C6"/>
<path d="M124.101 404.159C144.546 414.611 165.358 420.662 188.554 420.204C210.283 419.745 231.37 413.969 243.656 394.441C251.724 381.514 231.279 369.595 223.211 382.522C214.959 395.724 198.456 396.641 184.337 396.55C166.917 396.458 151.423 391.599 136.02 383.714C122.542 376.838 110.532 397.283 124.101 404.159Z" fill="#FCB58A"/>
<path d="M439.399 383.806C423.996 391.69 408.593 396.458 391.082 396.641C376.229 396.733 362.752 395.083 354.409 381.514C346.432 368.586 325.987 380.505 333.963 393.432C339.189 401.867 346.341 409.293 355.234 413.786C365.227 418.829 375.771 420.02 386.865 420.204C410.06 420.662 430.781 414.611 451.318 404.159C464.887 397.283 452.876 376.838 439.399 383.806Z" fill="#FCB58A"/>
<path d="M511.003 479.981L502.935 523.989L467.545 494.742L511.003 479.981Z" fill="#F5B75B"/>
<path d="M192.221 162.574C205.332 162.574 215.967 151.939 215.967 138.828C215.967 125.718 205.332 115.082 192.221 115.082C179.11 115.082 168.475 125.718 168.475 138.828C168.475 151.939 179.11 162.574 192.221 162.574Z" fill="#FCEAE0"/>
<path d="M214.775 186.504C214.592 186.504 214.409 186.412 214.225 186.137C214.134 185.862 214.225 185.587 214.5 185.403L216.976 184.303L215.876 181.828C215.784 181.553 215.875 181.278 216.151 181.094C216.426 181.003 216.701 181.094 216.884 181.369L218.351 184.853L214.775 186.504C214.959 186.504 214.867 186.504 214.775 186.504Z" fill="#3C4047"/>
<path d="M164.349 208.508C164.166 208.508 163.983 208.416 163.799 208.141C163.708 207.866 163.799 207.591 164.074 207.407L170.401 204.657C170.676 204.565 170.951 204.657 171.134 204.932C171.226 205.207 171.134 205.482 170.859 205.665L164.533 208.416C164.533 208.508 164.441 208.508 164.349 208.508ZM177.002 203.007C176.818 203.007 176.635 202.915 176.452 202.64C176.36 202.365 176.452 202.09 176.727 201.906L183.053 199.156C183.328 199.064 183.603 199.156 183.786 199.431C183.878 199.706 183.786 199.981 183.511 200.164L177.185 202.915C177.093 203.007 177.093 203.007 177.002 203.007ZM189.562 197.506C189.379 197.506 189.196 197.414 189.012 197.139C188.921 196.864 189.012 196.589 189.287 196.405L195.613 193.655C195.888 193.563 196.164 193.655 196.347 193.93C196.439 194.205 196.347 194.48 196.072 194.663L189.746 197.414C189.746 197.506 189.654 197.506 189.562 197.506ZM202.215 191.913C202.031 191.913 201.848 191.821 201.665 191.546C201.573 191.271 201.664 190.996 201.939 190.813L208.266 188.062C208.541 187.971 208.816 188.062 208.999 188.337C209.091 188.612 208.999 188.887 208.724 189.071L202.398 191.821C202.306 191.913 202.306 191.913 202.215 191.913Z" fill="#3C4047"/>
<path d="M154.815 212.725L153.348 209.241C153.256 208.966 153.348 208.691 153.623 208.507C153.898 208.416 154.173 208.508 154.356 208.783L155.456 211.258L157.932 210.158C158.207 210.066 158.482 210.158 158.665 210.433C158.757 210.708 158.665 210.983 158.39 211.166L154.815 212.725Z" fill="#3C4047"/>
<path d="M151.239 203.74C151.055 203.74 150.872 203.648 150.688 203.373L148.121 197.506C148.03 197.23 148.121 196.956 148.396 196.772C148.671 196.68 148.947 196.772 149.13 197.047L151.697 202.915C151.789 203.19 151.697 203.465 151.422 203.648C151.422 203.74 151.33 203.74 151.239 203.74ZM146.104 192.005C145.921 192.005 145.738 191.913 145.554 191.638L142.987 185.77C142.896 185.495 142.987 185.22 143.262 185.037C143.537 184.945 143.812 185.037 143.996 185.312L146.563 191.179C146.654 191.455 146.563 191.73 146.288 191.913C146.288 192.005 146.196 192.005 146.104 192.005ZM140.97 180.361C140.787 180.361 140.603 180.269 140.42 179.994L137.853 174.126C137.761 173.851 137.853 173.576 138.128 173.393C138.403 173.301 138.678 173.393 138.861 173.668L141.428 179.536C141.52 179.811 141.429 180.086 141.154 180.269C141.154 180.361 141.062 180.361 140.97 180.361Z" fill="#3C4047"/>
<path d="M135.928 168.625C135.744 168.625 135.561 168.534 135.378 168.259L133.911 164.775L137.395 163.308C137.67 163.216 137.945 163.308 138.128 163.583C138.22 163.858 138.128 164.133 137.853 164.316L135.378 165.416L136.478 167.892C136.57 168.167 136.478 168.442 136.203 168.625C136.019 168.625 135.928 168.625 135.928 168.625Z" fill="#3C4047"/>
<path d="M143.813 161.657C143.629 161.657 143.446 161.566 143.263 161.291C143.171 161.016 143.263 160.741 143.538 160.557L149.864 157.807C150.139 157.715 150.414 157.807 150.597 158.082C150.689 158.357 150.597 158.632 150.322 158.815L143.996 161.566C143.996 161.566 143.905 161.657 143.813 161.657ZM156.465 156.065C156.282 156.065 156.098 155.973 155.915 155.698C155.823 155.423 155.915 155.148 156.19 154.965L162.516 152.214C162.791 152.123 163.066 152.214 163.25 152.489C163.341 152.764 163.25 153.039 162.975 153.223L156.648 155.973C156.648 156.065 156.465 156.065 156.465 156.065ZM169.026 150.564C168.842 150.564 168.659 150.472 168.476 150.197C168.384 149.922 168.476 149.647 168.751 149.464L175.077 146.713C175.352 146.622 175.627 146.713 175.81 146.988C175.902 147.263 175.81 147.538 175.535 147.722L169.209 150.472C169.209 150.564 169.209 150.564 169.026 150.564ZM181.678 145.063C181.495 145.063 181.311 144.971 181.128 144.696C181.036 144.421 181.128 144.146 181.403 143.963L187.729 141.212C188.004 141.121 188.279 141.212 188.462 141.487C188.554 141.762 188.462 142.037 188.187 142.221L181.861 144.971C181.861 145.063 181.77 145.063 181.678 145.063Z" fill="#3C4047"/>
<path d="M198.547 141.212C198.364 141.212 198.181 141.12 197.997 140.845L196.897 138.37L194.422 139.47C194.147 139.562 193.872 139.47 193.688 139.195C193.596 138.92 193.688 138.645 193.963 138.462L197.447 136.995L198.914 140.479C199.006 140.754 198.914 141.029 198.639 141.212C198.731 141.212 198.639 141.212 198.547 141.212Z" fill="#3C4047"/>
<path d="M213.859 176.418C213.675 176.418 213.492 176.327 213.309 176.052L210.741 170.184C210.65 169.909 210.741 169.634 211.017 169.451C211.292 169.267 211.567 169.451 211.75 169.726L214.317 175.593C214.409 175.868 214.317 176.143 214.042 176.327C214.134 176.327 213.95 176.418 213.859 176.418ZM208.816 164.591C208.633 164.591 208.449 164.5 208.266 164.225L205.699 158.357C205.607 158.082 205.699 157.807 205.974 157.623C206.249 157.532 206.524 157.623 206.707 157.898L209.274 163.766C209.366 164.041 209.275 164.316 209 164.5C208.908 164.591 208.816 164.591 208.816 164.591ZM203.682 152.948C203.499 152.948 203.315 152.856 203.132 152.581L200.565 146.713C200.473 146.438 200.565 146.163 200.84 145.98C201.115 145.888 201.39 145.98 201.573 146.255L204.14 152.122C204.232 152.397 204.14 152.673 203.865 152.856C203.774 152.948 203.774 152.948 203.682 152.948Z" fill="#3C4047"/>
<path d="M477.998 537.283L475.064 536.183C474.789 536.091 474.697 535.816 474.789 535.633C474.88 535.358 475.155 535.266 475.339 535.358L477.447 536.091L478.181 533.983C478.273 533.708 478.548 533.616 478.731 533.708C479.006 533.799 479.098 534.074 479.006 534.258L477.998 537.283Z" fill="#3C4047"/>
<path d="M470.571 534.533C470.479 534.533 470.479 534.533 470.479 534.533L465.987 532.882C465.712 532.791 465.62 532.516 465.712 532.332C465.804 532.057 466.079 531.966 466.262 532.057L470.755 533.708C471.03 533.799 471.121 534.074 471.029 534.258C471.029 534.441 470.846 534.533 470.571 534.533ZM461.586 531.14C461.495 531.14 461.494 531.14 461.494 531.14L457.002 529.49C456.727 529.399 456.635 529.123 456.727 528.94C456.819 528.665 457.094 528.573 457.277 528.665L461.77 530.315C462.045 530.407 462.136 530.682 462.045 530.865C461.861 530.957 461.77 531.14 461.586 531.14ZM452.418 527.748C452.326 527.748 452.326 527.748 452.326 527.748L447.834 526.098C447.559 526.006 447.467 525.731 447.559 525.548C447.65 525.273 447.925 525.181 448.109 525.273L452.601 526.923C452.876 527.015 452.968 527.29 452.876 527.473C452.876 527.656 452.601 527.748 452.418 527.748ZM443.341 524.356C443.249 524.356 443.25 524.356 443.25 524.356L438.757 522.706C438.482 522.614 438.39 522.339 438.482 522.156C438.574 521.881 438.849 521.789 439.032 521.88L443.524 523.531C443.8 523.622 443.891 523.898 443.8 524.081C443.708 524.173 443.525 524.356 443.341 524.356Z" fill="#3C4047"/>
<path d="M434.265 520.964C434.173 520.964 434.173 520.964 434.173 520.964L431.24 519.864L432.34 516.93C432.431 516.655 432.706 516.563 432.89 516.655C433.165 516.746 433.257 517.021 433.165 517.205L432.431 519.313L434.54 520.047C434.815 520.139 434.907 520.414 434.815 520.597C434.632 520.872 434.448 520.964 434.265 520.964Z" fill="#3C4047"/>
<path d="M434.448 512.987C434.356 512.987 434.356 512.987 434.356 512.987C434.081 512.896 433.99 512.62 434.082 512.437L435.732 507.945C435.823 507.67 436.098 507.578 436.282 507.67C436.557 507.761 436.649 508.036 436.557 508.22L434.907 512.712C434.723 512.804 434.54 512.987 434.448 512.987ZM437.749 503.911C437.657 503.911 437.657 503.911 437.657 503.911C437.382 503.819 437.29 503.544 437.382 503.361L439.032 498.868C439.124 498.593 439.399 498.501 439.583 498.593C439.858 498.685 439.949 498.96 439.857 499.143L438.207 503.636C438.116 503.819 437.932 503.911 437.749 503.911ZM441.141 494.834C441.049 494.834 441.049 494.834 441.049 494.834C440.774 494.742 440.683 494.467 440.774 494.284L442.425 489.791C442.516 489.516 442.791 489.425 442.975 489.516C443.25 489.608 443.342 489.883 443.25 490.067L441.6 494.559C441.508 494.651 441.324 494.834 441.141 494.834ZM444.533 485.666C444.442 485.666 444.442 485.666 444.442 485.666C444.166 485.574 444.075 485.299 444.167 485.116L445.817 480.623C445.908 480.348 446.184 480.256 446.367 480.348C446.642 480.44 446.734 480.715 446.642 480.898L444.992 485.391C444.9 485.666 444.717 485.666 444.533 485.666Z" fill="#3C4047"/>
<path d="M447.925 476.681C447.834 476.681 447.834 476.681 447.834 476.681C447.559 476.589 447.467 476.314 447.559 476.131L448.659 473.197L451.593 474.297C451.868 474.389 451.96 474.664 451.868 474.847C451.776 475.122 451.501 475.214 451.318 475.122L449.209 474.389L448.476 476.497C448.292 476.497 448.109 476.681 447.925 476.681Z" fill="#3C4047"/>
<path d="M487.716 488.599C487.624 488.599 487.624 488.599 487.624 488.599L483.132 486.949C482.857 486.858 482.765 486.582 482.857 486.399C482.948 486.124 483.223 486.032 483.407 486.124L487.899 487.774C488.174 487.866 488.266 488.141 488.174 488.324C488.083 488.508 487.899 488.599 487.716 488.599ZM478.639 485.207C478.548 485.207 478.548 485.207 478.548 485.207L474.055 483.557C473.78 483.465 473.688 483.19 473.78 483.007C473.872 482.732 474.147 482.64 474.33 482.732L478.823 484.382C479.098 484.474 479.189 484.749 479.098 484.932C479.006 485.115 478.823 485.207 478.639 485.207ZM469.563 481.815C469.471 481.815 469.471 481.815 469.471 481.815L464.979 480.165C464.704 480.073 464.612 479.798 464.703 479.615C464.795 479.34 465.07 479.248 465.254 479.339L469.746 480.99C470.021 481.081 470.113 481.357 470.021 481.54C469.929 481.723 469.746 481.815 469.563 481.815ZM460.486 478.423C460.394 478.423 460.394 478.423 460.394 478.423L455.902 476.772C455.627 476.681 455.535 476.406 455.627 476.222C455.719 475.947 455.994 475.856 456.177 475.947L460.67 477.597C460.945 477.689 461.036 477.964 460.944 478.148C460.853 478.331 460.669 478.423 460.486 478.423Z" fill="#3C4047"/>
<path d="M493.859 493.734C493.767 493.734 493.767 493.734 493.767 493.734C493.492 493.642 493.4 493.367 493.492 493.184L494.226 491.075L492.117 490.341C491.842 490.25 491.75 489.975 491.842 489.791C491.934 489.516 492.209 489.425 492.392 489.516L495.326 490.617L494.226 493.55C494.226 493.642 494.042 493.734 493.859 493.734Z" fill="#3C4047"/>
<path d="M480.29 530.132C480.198 530.132 480.198 530.132 480.198 530.132C479.923 530.04 479.832 529.765 479.923 529.582L481.573 525.089C481.665 524.814 481.94 524.723 482.124 524.814C482.399 524.906 482.49 525.181 482.399 525.365L480.748 529.857C480.657 529.949 480.473 530.132 480.29 530.132ZM483.682 520.964C483.591 520.964 483.591 520.964 483.591 520.964C483.316 520.872 483.224 520.597 483.316 520.414L484.966 515.921C485.058 515.646 485.332 515.554 485.516 515.646C485.791 515.738 485.883 516.013 485.791 516.196L484.141 520.689C484.049 520.872 483.866 520.964 483.682 520.964ZM487.074 511.979C486.983 511.979 486.983 511.979 486.983 511.979C486.708 511.887 486.616 511.612 486.708 511.429L488.358 506.936C488.45 506.661 488.725 506.569 488.908 506.661C489.183 506.753 489.275 507.028 489.183 507.211L487.533 511.704C487.441 511.795 487.258 511.979 487.074 511.979ZM490.467 502.81C490.375 502.81 490.375 502.81 490.375 502.81C490.1 502.719 490.008 502.444 490.1 502.26L491.75 497.768C491.842 497.493 492.117 497.401 492.301 497.493C492.576 497.585 492.667 497.86 492.575 498.043L490.925 502.535C490.834 502.719 490.65 502.81 490.467 502.81Z" fill="#3C4047"/>
<path d="M354.408 321.553C354.408 321.553 342.948 285.155 339.189 269.752C333.229 246.006 317.093 231.795 294.264 231.795C271.16 231.795 254.84 246.373 248.423 269.935C241.913 294.231 233.295 319.628 233.295 319.628C232.286 322.836 233.845 326.32 236.962 327.604C244.297 330.538 259.7 335.672 294.172 335.305C324.978 334.939 340.839 330.629 348.816 329.713C352.85 329.254 355.417 325.312 354.408 321.553Z" fill="#3C4047"/>
<path d="M307.375 310.001H281.062V354.742C281.062 358.501 284.088 361.527 287.847 361.527H300.591C304.35 361.527 307.375 358.501 307.375 354.742V310.001Z" fill="#FCB58A"/>
<path d="M293.806 228.311C302.883 228.311 310.217 220.976 310.217 211.9C310.217 202.823 302.883 195.489 293.806 195.489C284.729 195.489 277.395 202.823 277.395 211.9C277.395 220.976 284.821 228.311 293.806 228.311Z" fill="#3C4047"/>
<path d="M255.207 315.318C250.898 315.318 250.807 300.924 250.807 299.366C250.807 297.807 250.898 283.413 255.207 283.413C259.517 283.413 259.608 297.715 259.608 299.366C259.517 301.016 259.425 315.318 255.207 315.318ZM255.207 285.888C254.474 286.897 253.19 291.481 253.19 299.366C253.19 307.159 254.382 311.743 255.207 312.843C255.941 311.834 257.224 307.25 257.224 299.366C257.224 291.481 255.941 286.988 255.207 285.888Z" fill="white"/>
<path d="M332.404 315.318C328.095 315.318 328.003 300.924 328.003 299.366C328.003 297.807 328.095 283.413 332.404 283.413C336.713 283.413 336.805 297.715 336.805 299.366C336.805 301.016 336.622 315.318 332.404 315.318ZM332.404 285.888C331.671 286.897 330.387 291.481 330.387 299.366C330.387 307.159 331.579 311.743 332.404 312.843C333.138 311.834 334.421 307.25 334.421 299.366C334.421 291.481 333.229 286.988 332.404 285.888Z" fill="white"/>
<path d="M294.265 319.811C318.286 319.811 337.722 300.374 337.722 276.353C337.722 252.332 318.286 232.895 294.265 232.895C270.244 232.895 250.807 252.332 250.807 276.353C250.807 300.374 270.244 319.811 294.265 319.811Z" fill="#FCB58A"/>
<path d="M249.798 279.47C249.89 280.204 249.89 280.846 249.981 281.579C249.981 281.671 249.981 281.762 249.981 281.854C250.073 282.587 250.165 283.321 250.348 284.146V284.238C250.44 284.971 250.715 285.796 250.806 286.622C253.74 274.611 264.467 265.718 277.395 265.718C279.045 265.718 280.604 265.809 282.071 266.084C283.262 266.36 284.362 266.451 285.646 266.451C293.714 266.451 300.407 260.308 301.324 252.424C301.324 252.424 301.416 252.424 301.416 252.332C301.324 253.157 301.232 253.982 301.232 254.807C301.232 264.067 308.75 271.585 318.01 271.585H318.102C327.179 273.419 334.422 280.112 337.08 288.822C337.63 286.897 338.089 284.88 338.364 282.863C338.364 282.771 338.364 282.771 338.364 282.587C338.456 281.762 338.547 280.937 338.639 280.02C338.639 279.837 338.731 279.562 338.731 279.379C338.822 278.37 338.822 277.453 338.822 276.445C338.822 275.62 338.822 274.794 338.731 274.061C338.731 273.786 338.639 273.603 338.639 273.327C338.547 272.777 338.547 272.136 338.547 271.677C338.547 271.402 338.456 271.127 338.456 270.944C338.364 270.394 338.364 269.844 338.272 269.293C338.181 269.018 338.181 268.743 338.181 268.56C338.089 268.01 337.997 267.46 337.814 266.91C337.722 266.635 337.722 266.451 337.722 266.176C337.63 265.626 337.447 265.076 337.264 264.526C337.172 264.343 337.172 264.159 337.08 263.976C336.897 263.426 336.714 262.784 336.53 262.234C336.439 262.142 336.439 261.867 336.439 261.775C336.255 261.134 335.98 260.492 335.705 259.942C335.613 259.85 335.613 259.758 335.613 259.667C335.338 258.933 335.063 258.2 334.697 257.558C330.846 249.398 324.611 242.522 316.818 238.029C314.343 236.654 311.776 235.371 309.025 234.454C308.934 234.454 308.842 234.362 308.75 234.362C308.017 234.087 307.192 233.812 306.367 233.629C306.275 233.537 306.091 233.537 306 233.537C304.258 233.079 302.424 232.712 300.682 232.437C300.407 232.345 300.224 232.345 299.949 232.345C299.215 232.253 298.573 232.253 297.84 232.162C297.565 232.162 297.29 232.07 297.106 232.07C296.19 231.978 295.273 231.978 294.356 231.978C269.785 231.978 249.89 251.874 249.89 276.445C249.89 277.27 249.89 278.095 249.981 278.92C249.798 279.195 249.798 279.379 249.798 279.47Z" fill="#3C4047"/>
<path d="M336.622 348.599C325.528 341.998 312.876 339.706 307.375 338.881C305.633 346.124 301.966 350.158 293.806 350.158C285.555 350.158 282.712 346.032 281.154 338.606C279.504 338.697 274.369 339.706 273.177 339.981C258.141 342.915 252.09 346.766 244.572 352.358C233.02 360.976 221.651 378.946 219.268 383.072C218.901 383.622 218.901 384.264 219.268 384.722C220.643 386.831 224.402 392.149 229.72 395.633C237.238 400.584 246.131 403.334 246.131 403.334C246.131 403.334 249.706 396.733 250.807 394.258C252.182 390.957 255.941 379.863 255.941 379.863C255.941 379.863 252.549 387.29 252.274 394.991C252.09 402.051 254.474 410.027 254.291 414.611C253.741 425.246 250.623 434.415 249.523 438.632C249.248 439.641 249.89 440.649 250.898 440.832C256.674 442.116 273.819 445.967 291.331 445.967C313.976 445.967 329.563 443.491 335.064 442.666C336.072 442.483 336.714 441.474 336.439 440.466C335.522 436.89 333.963 430.656 332.405 416.812C331.213 405.993 332.496 403.884 332.405 396.275C332.405 390.682 330.113 379.405 330.113 379.405L332.313 400.859C332.313 400.859 340.289 401.225 351.658 396.275C355.6 394.533 360.551 390.04 362.66 388.023C363.21 387.473 363.394 386.556 363.027 385.823C360.093 379.863 347.441 355.109 336.622 348.599Z" fill="#FCF5F3"/>
<path d="M294.264 319.811C289.68 319.811 285.279 319.077 281.154 317.794V325.954C285.279 327.237 289.772 327.329 294.448 326.871C300.591 326.32 303.249 325.129 307.375 323.295V317.794C303.249 319.077 298.849 319.811 294.264 319.811Z" fill="#D85F47"/>
<path d="M256.858 442.208C256.858 442.208 278.311 445.784 293.347 445.784C309.209 445.784 328.92 443.491 328.92 443.491C328.92 443.491 330.662 454.768 331.396 457.244C332.129 459.719 318.377 464.579 293.989 464.12C261.992 463.57 254.382 458.986 254.382 457.702C254.199 456.785 256.858 442.208 256.858 442.208Z" fill="#FCB58A"/>
<path d="M339.189 464.762C358.993 504.186 368.344 528.94 373.662 581.841C378.154 626.308 372.47 685.718 371.553 719.641C371.553 720.649 371.278 721.75 370.728 722.575C369.078 725.142 358.809 727.251 355.967 727.526C341.664 728.534 328.279 726.426 326.995 721.383C319.661 691.494 313.885 660.047 309.759 628.875C306.367 603.02 302.424 574.232 300.132 552.961C299.949 551.219 297.382 551.127 297.198 552.961C296.832 556.537 296.373 576.34 295.823 582.208C294.356 598.894 291.606 615.306 288.947 631.809C284.638 658.03 274.552 695.07 266.851 720.008C266.301 721.658 264.559 724.042 262.634 724.317C259.242 724.867 250.99 725.509 246.681 725.234C240.263 724.684 226.877 722.85 226.144 719.641C216.425 679.209 216.15 601.37 230.178 520.414C233.57 501.16 241.272 479.615 248.423 466.687C248.423 466.687 271.344 471.18 292.431 471.18C317.735 470.996 339.189 464.762 339.189 464.762Z" fill="#B6D5C6"/>
<path d="M162.424 225.286L133.911 216.117C132.261 215.567 131.252 213.733 131.802 211.991L137.853 193.38C138.403 191.729 140.237 190.721 141.979 191.271L170.493 200.439C172.143 200.99 173.151 202.823 172.601 204.565L166.55 223.177C165.908 224.919 164.075 225.927 162.424 225.286Z" fill="#4C9789"/>
<path d="M175.627 209.699C174.435 209.699 173.427 210.433 173.151 211.533L172.143 214.65L171.134 217.768C170.768 218.868 171.134 220.06 172.143 220.701L179.844 226.477C181.311 227.669 183.512 226.936 184.062 225.102L186.079 218.959L188.096 212.817C188.646 210.983 187.362 209.241 185.437 209.241L175.627 209.699Z" fill="#4C9789"/>
<path d="M254.199 457.794C254.199 457.794 251.724 458.344 250.165 461.003C248.698 463.57 248.331 466.687 248.331 466.687C248.331 466.687 264.926 471.638 296.373 472.463C326.812 473.197 339.189 464.854 339.189 464.854C339.189 464.854 338.089 461.461 335.522 459.903C332.955 458.436 331.213 457.427 331.213 457.427C331.213 457.427 321.678 465.862 292.706 463.845C263.734 461.553 254.199 457.794 254.199 457.794Z" fill="#548582"/>
<path d="M122.084 270.944L112.182 271.677L116.583 331.821L126.485 331.088L122.084 270.944Z" fill="#DADAED"/>
<path d="M116.033 279.47L112.641 279.745L112.732 280.479L116.125 280.204L116.033 279.47Z" fill="#B6D5C6"/>
<path d="M116.582 286.163L113.19 286.438L113.282 287.172L116.674 286.897L116.582 286.163Z" fill="#B6D5C6"/>
<path d="M117.133 292.948L113.74 293.223L113.832 293.956L117.224 293.681L117.133 292.948Z" fill="#B6D5C6"/>
<path d="M117.591 299.64L114.199 299.916L114.291 300.649L117.683 300.374L117.591 299.64Z" fill="#B6D5C6"/>
<path d="M118.05 306.425L114.657 306.7L114.749 307.434L118.141 307.159L118.05 306.425Z" fill="#B6D5C6"/>
<path d="M118.508 313.118L115.116 313.393L115.207 314.126L118.6 313.851L118.508 313.118Z" fill="#B6D5C6"/>
<path d="M119.058 319.811L115.666 320.086L115.757 320.819L119.15 320.544L119.058 319.811Z" fill="#B6D5C6"/>
<path d="M111.907 291.572L105.581 292.673L113.924 340.165L120.25 339.064L111.907 291.572Z" fill="#F68069"/>
<path d="M111.907 291.572L105.581 292.673L106.589 283.596L107.873 283.321L111.907 291.572Z" fill="#FCEAE0"/>
<path d="M106.956 287.813L107.873 287.263L108.607 287.355L109.615 286.897L107.965 283.504L106.681 283.779L106.223 287.355L106.956 287.813Z" fill="#F68069"/>
<path d="M126.576 330.263C125.476 330.079 124.743 329.071 124.926 327.971L129.877 296.248C129.969 295.973 129.969 295.698 130.06 295.515L132.903 287.538C133.269 286.622 134.278 286.071 135.195 286.255L135.653 286.346C136.662 286.53 137.303 287.447 137.303 288.455L136.661 296.89C136.661 297.165 136.57 297.44 136.57 297.715L129.052 328.887C128.685 329.804 127.676 330.538 126.576 330.263Z" fill="#548582"/>
<path d="M163.708 351.992H122.542V365.744H163.708V351.992Z" fill="#F8D7BC"/>
<path d="M165.45 350.983V351.992H122.45V365.744H165.45V366.753H77.0673V350.891H165.45V350.983Z" fill="#F68069"/>
<path d="M109.615 390.407H170.401V368.22H109.615C106.589 368.22 104.206 370.695 104.206 373.629V384.906C104.206 388.023 106.589 390.407 109.615 390.407Z" fill="#F8ECE2"/>
<path d="M73.675 366.844H173.151C173.518 366.844 173.885 367.211 173.885 367.578C173.885 367.944 173.518 368.311 173.151 368.311H160.957H115.299C109.156 368.311 104.206 373.262 104.206 379.405C104.206 385.548 109.156 390.499 115.299 390.499H171.684H173.151C173.518 390.499 173.885 390.865 173.885 391.232C173.885 391.599 173.518 391.966 173.151 391.966H73.5833C67.4405 391.966 62.4897 387.015 62.4897 380.872V378.121C62.5814 371.795 67.5323 366.844 73.675 366.844Z" fill="#548582"/>
<path d="M170.492 371.795H112.824V372.529H170.492V371.795Z" fill="#FFE6C2"/>
<path d="M170.492 380.964H108.606V381.697H170.492V380.964Z" fill="#FFE6C2"/>
<path d="M170.492 385.731H116.216V386.465H170.492V385.731Z" fill="#FFE6C2"/>
<path d="M170.492 376.654H110.44V377.388H170.492V376.654Z" fill="#FFE6C2"/>
<path d="M123.276 350.433H85.4105V342.457H123.276C124.376 342.457 125.201 343.282 125.201 344.382V348.416C125.201 349.516 124.376 350.433 123.276 350.433Z" fill="#F5AF5B"/>
<path d="M146.838 341.906H83.852C83.7603 341.906 83.5769 341.998 83.5769 342.181C83.5769 342.365 83.6686 342.457 83.852 342.457H121.167C123.367 342.457 125.109 344.29 125.109 346.399C125.109 348.599 123.276 350.341 121.167 350.341H83.852C83.7603 350.341 83.5769 350.433 83.5769 350.616C83.5769 350.708 83.6686 350.891 83.852 350.891H146.838C149.039 350.891 150.781 349.058 150.781 346.949V345.757C150.781 343.648 149.039 341.906 146.838 341.906Z" fill="#B6D5C6"/>
<path d="M107.506 308.626H135.194C135.928 308.626 136.478 309.267 136.386 310.001L132.352 341.906H110.165L106.314 310.001C106.223 309.267 106.772 308.626 107.506 308.626Z" fill="#4C9789"/>
<path d="M135.744 285.98L135.286 285.888C134.277 285.705 133.269 286.255 132.902 287.172L129.968 295.331C129.877 295.423 129.877 295.515 129.877 295.698C130.794 296.432 131.985 297.073 133.269 297.257C134.461 297.44 135.653 297.349 136.661 297.073C136.661 296.982 136.753 296.89 136.753 296.707L137.395 288.088C137.486 287.08 136.753 286.255 135.744 285.98Z" fill="#D7D7E6"/>
<path d="M135.836 273.694C136.111 273.144 136.845 273.144 137.12 273.694C137.578 274.611 138.128 275.711 138.587 276.445C139.32 277.82 139.779 280.937 139.32 282.496C138.862 284.33 137.578 286.163 137.211 286.805C137.12 286.897 137.028 286.988 136.844 287.08C136.478 287.172 135.744 287.355 134.736 287.172C133.361 286.805 133.269 285.98 133.269 285.98C133.269 285.98 132.536 283.046 132.627 281.212C132.719 279.379 133.727 277.087 134.186 276.72C134.461 276.261 135.286 274.795 135.836 273.694Z" fill="#D85F47"/>
<path d="M242.922 735.869C251.999 735.96 257.866 733.118 257.866 733.118C257.866 733.118 261.534 740.911 262.267 745.037C263.001 749.071 265.109 762.915 261.901 765.482C258.508 768.325 259.15 767.591 254.749 769.425C248.606 771.992 245.948 770.8 237.604 775.018C234.487 776.668 221.101 789.137 207.532 790.237C196.072 791.245 193.046 785.744 191.671 782.719C190.296 779.693 192.771 773.826 200.839 767.775C210.65 760.44 220.46 749.988 222.477 747.329C228.528 739.169 231.278 731.651 231.278 731.651C231.278 731.651 233.57 735.685 242.922 735.869Z" fill="#D85F47"/>
<path d="M351.291 736.786C342.214 736.877 336.805 733.944 336.805 733.944C336.805 733.944 332.771 739.903 331.304 747.513C330.571 751.547 329.104 763.832 332.313 766.491C335.705 769.333 335.063 768.6 339.464 770.434C345.607 773.001 348.266 771.809 356.609 776.026C359.726 777.676 373.112 790.237 386.681 791.246C394.932 791.887 401.167 786.753 402.542 783.728C403.917 780.702 404.009 774.468 393.832 767.683C383.655 760.898 371.645 750.08 370.086 747.146C367.702 742.653 362.935 732.568 362.935 732.568C362.935 732.568 360.643 736.602 351.291 736.786Z" fill="#D85F47"/>
<path d="M468.646 292.673C462.228 294.415 455.535 290.564 453.793 284.238L450.676 272.869C448.934 266.451 452.785 259.758 459.111 258.016C465.529 256.274 472.222 260.125 473.964 266.451L477.081 277.82C478.914 284.238 475.155 290.931 468.646 292.673Z" fill="#4C9789"/>
<path d="M470.571 299.732C459.936 302.666 449.026 296.34 446.184 285.796L445.817 284.33C445.45 283.138 446.184 281.854 447.467 281.487C448.659 281.121 449.943 281.854 450.309 283.138L450.676 284.605C452.876 292.673 461.311 297.532 469.38 295.24C477.448 293.039 482.307 284.605 480.015 276.536L479.648 275.07C479.281 273.878 480.015 272.594 481.298 272.227C482.49 271.861 483.774 272.594 484.14 273.878L484.507 275.345C487.441 285.888 481.115 296.798 470.571 299.732Z" fill="#4C9789"/>
<path d="M484.415 302.758C485.607 302.391 485.974 301.107 485.149 300.191C481.298 295.881 475.247 293.773 469.379 295.423C463.42 297.073 459.294 301.841 458.194 307.617C458.01 308.809 459.019 309.726 460.211 309.451L484.415 302.758Z" fill="#4C9789"/>
<path d="M409.877 360.427C412.169 355.476 418.587 351.35 423.446 351.717C428.305 352.083 426.747 352.267 428.305 352.083C429.864 351.992 432.248 350.341 435.457 351.35C439.032 352.45 446.734 356.484 446.825 365.377C446.917 372.987 441.416 381.697 431.331 383.714C421.246 385.731 414.461 381.972 411.436 377.663C407.952 372.62 407.677 365.102 409.877 360.427Z" fill="#F68069"/>
<path d="M425.646 357.951C425.646 357.951 424.913 346.491 429.497 341.631C434.631 336.222 441.416 331.271 440.957 334.48C440.866 335.214 441.966 346.307 438.849 350.433C434.081 356.851 425.646 357.951 425.646 357.951Z" fill="#548582"/>
<path d="M424.362 357.493C424.362 357.493 423.446 352.542 422.621 349.791C420.787 344.107 419.687 341.356 419.687 341.356L424.729 340.256C424.729 340.256 426.563 346.949 426.93 349.608C427.571 354.192 427.205 357.218 427.205 357.218C427.205 357.218 426.563 358.226 425.646 358.134C424.546 358.226 424.362 357.493 424.362 357.493Z" fill="#6B4D3A"/>
<path d="M422.346 342.181C423.721 341.906 424.822 341.173 424.638 340.531C424.547 339.889 423.263 339.523 421.888 339.798C420.513 340.073 419.412 340.806 419.596 341.448C419.687 342.09 420.971 342.365 422.346 342.181Z" fill="#8A634B"/>
<path d="M519.805 391.782H402.176C401.167 391.782 400.342 390.957 400.342 389.948V385.273C400.342 384.264 401.167 383.439 402.176 383.439H519.713C520.722 383.439 521.547 384.264 521.547 385.273V389.948C521.639 390.957 520.722 391.782 519.805 391.782Z" fill="#C5C6E3"/>
<path d="M460.028 382.064H434.265V372.987H460.028C460.761 372.987 461.22 373.537 461.22 374.179V380.688C461.403 381.422 460.761 382.064 460.028 382.064Z" fill="#F8D0B3"/>
<path d="M506.419 371.52H455.352H432.889H432.156C431.789 371.52 431.422 371.887 431.422 372.254C431.422 372.62 431.789 372.987 432.156 372.987H434.264H458.652C460.119 372.987 461.128 374.179 461.128 375.463V379.496C461.128 380.963 459.936 382.064 458.652 382.064H453.059H432.247C431.881 382.064 431.514 382.43 431.514 382.797C431.514 383.164 431.881 383.531 432.247 383.531H432.797H455.352H506.236C507.703 383.531 508.711 382.339 508.711 381.055V374.271C508.894 372.62 507.794 371.52 506.419 371.52Z" fill="#F68069"/>
<path d="M472.588 370.878H431.056V362.168H472.588C473.78 362.168 474.788 363.177 474.788 364.369V368.678C474.788 369.962 473.872 370.878 472.588 370.878Z" fill="#F5AF5B"/>
<path d="M498.626 361.527H429.314C429.13 361.527 428.947 361.618 428.947 361.893C428.947 362.077 429.039 362.26 429.314 362.26H470.388C472.772 362.26 474.789 364.185 474.789 366.661C474.789 369.045 472.863 371.062 470.388 371.062H429.314C429.13 371.062 428.947 371.153 428.947 371.428C428.947 371.612 429.039 371.795 429.314 371.795H498.626C501.01 371.795 503.027 369.87 503.027 367.394V366.111C502.935 363.452 501.01 361.527 498.626 361.527Z" fill="#548582"/>
<path d="M462.686 368.311H431.056V367.944H462.686C462.778 367.944 462.87 368.036 462.87 368.128C462.87 368.22 462.778 368.311 462.686 368.311Z" fill="#548582"/>
<path d="M469.929 365.469H431.056V365.102H469.929C470.021 365.102 470.113 365.194 470.113 365.286C470.113 365.377 470.113 365.469 469.929 365.469Z" fill="#548582"/>
<path d="M412.719 233.354C414.003 230.787 409.694 226.019 403.092 222.627C396.491 219.235 389.982 218.501 388.698 221.068C387.415 223.635 391.724 228.403 398.325 231.795C405.018 235.187 411.435 235.921 412.719 233.354Z" fill="#F5B75B"/>
<path d="M391.173 216.759C393.649 212.266 395.666 207.682 396.674 202.731C398.783 192.005 395.941 179.536 402.725 171.101C407.676 164.958 416.386 163.124 424.179 164.225C433.714 165.6 442.699 171.101 447.1 179.627C451.409 188.154 450.309 199.522 443.524 206.215C437.748 211.808 429.13 213.642 423.171 218.959C419.779 221.893 417.395 225.836 414.919 229.595L414.094 230.786C395.666 228.769 391.173 216.759 391.173 216.759Z" fill="#FCEAE0"/>
<path d="M423.629 200.164C422.896 197.322 420.421 197.414 418.22 198.422C417.67 196.864 416.845 194.847 415.286 194.205C413.453 193.471 411.436 194.755 409.969 195.855C406.851 198.239 404.468 201.723 403.092 205.39C401.626 208.966 400.984 212.908 399.7 216.576C399.15 218.042 401.534 218.684 402.084 217.217C403.734 212.541 404.376 207.499 406.943 203.19C408.318 200.806 410.427 198.056 413.086 196.955C413.911 196.589 414.553 196.497 415.103 197.322C415.561 197.964 415.836 198.789 416.111 199.431C416.111 199.523 416.203 199.523 416.203 199.614C415.836 199.798 415.653 199.981 415.378 200.164C412.811 201.998 409.51 205.39 409.602 208.782C409.602 210.341 410.61 211.625 412.169 211.716C413.911 211.808 415.653 210.524 416.753 209.241C418.862 206.857 419.504 203.74 419.045 200.714C419.595 200.348 420.145 200.164 420.696 200.164C422.254 200.073 421.521 202.548 421.337 203.373C420.604 206.124 418.954 208.599 417.395 210.983C416.203 212.817 415.195 214.742 413.819 216.3C412.261 218.134 410.244 219.326 408.227 220.61C406.851 221.435 408.135 223.543 409.419 222.718C411.711 221.251 414.094 219.784 415.836 217.584C417.67 215.292 419.229 212.725 420.787 210.249C422.163 207.591 424.546 203.465 423.629 200.164ZM416.295 204.382C415.928 205.665 415.378 206.857 414.461 207.866C413.911 208.416 411.527 210.341 411.711 208.599C411.802 207.499 412.719 206.307 413.361 205.39C414.186 204.198 415.286 203.19 416.478 202.273C416.478 202.915 416.478 203.648 416.295 204.382Z" fill="#F5B75B"/>
<path d="M398.416 231.795C392.365 228.769 388.331 224.46 388.514 221.802L385.489 232.529C384.48 234.637 387.964 238.488 393.282 241.238C398.6 243.989 403.917 244.631 404.926 242.522C405.017 242.43 405.017 242.339 405.017 242.155L412.169 233.904C410.243 235.737 404.467 234.912 398.416 231.795Z" fill="#FFE6C2"/>
<path d="M331.671 149.372C331.58 149.372 331.58 149.372 331.488 149.28C331.213 149.189 331.121 148.822 331.213 148.547C331.671 147.538 332.221 146.53 332.863 145.613C333.047 145.338 333.413 145.246 333.597 145.521C333.872 145.705 333.964 146.071 333.688 146.255C333.047 147.08 332.496 147.997 332.13 149.005C332.13 149.28 331.946 149.372 331.671 149.372Z" fill="#3C4047"/>
<path d="M418.954 182.653C418.862 182.653 418.862 182.653 418.77 182.561L418.037 182.286C416.295 181.644 414.461 180.911 412.536 180.177C412.261 180.086 412.169 179.719 412.169 179.444C412.261 179.169 412.627 179.077 412.902 179.077C414.736 179.811 416.57 180.544 418.312 181.186L419.045 181.461C419.32 181.553 419.504 181.919 419.412 182.194C419.412 182.561 419.229 182.653 418.954 182.653ZM406.668 177.519C406.576 177.519 406.485 177.519 406.393 177.427C404.284 176.327 402.359 175.135 400.617 173.943C400.342 173.76 400.25 173.393 400.525 173.209C400.709 172.934 401.075 172.843 401.259 173.118C403.001 174.31 404.834 175.41 406.943 176.51C407.218 176.602 407.31 176.968 407.218 177.244C407.035 177.335 406.851 177.519 406.668 177.519ZM395.849 169.817C395.758 169.817 395.574 169.726 395.483 169.634C393.832 167.984 392.457 166.242 391.174 164.316C390.99 164.041 391.082 163.766 391.357 163.583C391.632 163.399 391.907 163.491 392.09 163.766C393.282 165.6 394.566 167.25 396.216 168.9C396.4 169.084 396.4 169.451 396.216 169.634C396.124 169.726 395.941 169.817 395.849 169.817ZM388.698 158.632C388.515 158.632 388.24 158.54 388.148 158.265C387.415 156.156 386.773 153.956 386.498 151.664C386.406 151.297 386.681 151.114 386.956 151.022C387.323 150.931 387.506 151.206 387.598 151.481C387.965 153.589 388.423 155.79 389.248 157.807C389.34 158.082 389.157 158.357 388.882 158.54C388.79 158.632 388.698 158.632 388.698 158.632ZM392.274 151.572C391.082 151.572 389.798 151.481 388.606 151.297C388.24 151.206 388.056 150.93 388.148 150.655C388.24 150.289 388.515 150.105 388.79 150.197C389.982 150.38 391.174 150.472 392.366 150.472C393.374 150.472 394.382 150.38 395.299 150.289C395.666 150.197 395.849 150.472 395.941 150.747C396.033 151.022 395.758 151.297 395.483 151.389C394.382 151.481 393.282 151.572 392.274 151.572ZM382.189 149.647C382.097 149.647 382.097 149.647 382.005 149.647C380.172 149.005 378.246 148.18 375.771 147.08C375.496 146.988 375.404 146.621 375.496 146.346C375.587 146.071 375.954 145.98 376.229 146.071C378.613 147.171 380.538 147.997 382.372 148.638C382.647 148.73 382.83 149.005 382.739 149.372C382.647 149.464 382.372 149.647 382.189 149.647ZM401.625 149.372C401.442 149.372 401.259 149.28 401.167 149.097C401.075 148.822 401.075 148.547 401.35 148.363C402.359 147.813 403.276 147.172 404.101 146.346C404.834 145.705 405.476 144.971 405.934 144.054C406.026 143.779 406.485 143.687 406.668 143.871C406.943 143.963 407.035 144.421 406.851 144.604C406.301 145.613 405.568 146.438 404.743 147.08C403.826 147.905 402.909 148.638 401.809 149.189C401.809 149.372 401.717 149.372 401.625 149.372ZM386.956 145.521C386.589 145.43 386.406 145.154 386.406 144.971C386.681 142.587 387.323 140.387 388.24 138.37C388.331 138.095 388.698 138.003 388.973 138.095C389.248 138.187 389.34 138.553 389.248 138.828C388.331 140.662 387.69 142.771 387.414 145.063C387.414 145.338 387.139 145.521 386.956 145.521ZM369.995 144.238C369.903 144.238 369.903 144.238 369.72 144.146C368.986 143.779 368.345 143.504 367.611 143.137C366.236 142.496 364.861 141.946 363.669 141.487C363.394 141.395 363.21 141.029 363.302 140.754C363.393 140.479 363.76 140.295 364.035 140.387C365.319 140.937 366.603 141.395 368.069 142.037C368.803 142.404 369.536 142.679 370.178 143.046C370.453 143.137 370.545 143.504 370.453 143.779C370.361 144.054 370.178 144.238 369.995 144.238ZM338.089 142.037C337.906 142.037 337.722 141.946 337.631 141.762C337.447 141.487 337.539 141.212 337.814 141.029C339.648 139.837 341.848 138.92 344.048 138.278C344.415 138.187 344.599 138.37 344.69 138.645C344.782 139.012 344.598 139.195 344.323 139.287C342.215 139.837 340.198 140.662 338.364 141.854C338.364 142.037 338.272 142.037 338.089 142.037ZM357.526 139.562C357.434 139.562 357.434 139.562 357.434 139.562C355.142 139.012 352.942 138.828 350.925 138.737C350.558 138.737 350.375 138.462 350.375 138.187C350.375 137.82 350.65 137.636 350.925 137.636C353.033 137.728 355.325 138.003 357.617 138.462C357.984 138.553 358.076 138.828 357.984 139.103C357.984 139.378 357.801 139.562 357.526 139.562ZM408.135 138.553C407.768 138.553 407.585 138.278 407.585 138.003C407.493 136.17 406.851 134.519 405.751 133.327C405.476 133.052 405.201 132.777 405.018 132.594C404.743 132.411 404.743 132.044 404.926 131.86C405.109 131.585 405.476 131.585 405.66 131.769C406.026 132.044 406.301 132.319 406.576 132.594C407.952 134.061 408.685 135.803 408.777 138.003C408.777 138.278 408.502 138.553 408.135 138.553C408.227 138.553 408.135 138.553 408.135 138.553ZM392.824 133.877C392.641 133.877 392.457 133.786 392.366 133.694C392.182 133.419 392.274 133.144 392.457 132.961C394.291 131.585 396.583 130.577 398.783 130.21C399.15 130.118 399.333 130.394 399.425 130.669C399.517 131.035 399.242 131.219 398.967 131.31C396.858 131.585 394.841 132.502 393.191 133.786C393.099 133.877 393.007 133.877 392.824 133.877Z" fill="#3C4047"/>
<path d="M427.847 186.962C427.755 186.962 427.571 186.87 427.48 186.87C426.93 186.32 426.013 185.77 424.913 185.22C424.638 185.128 424.546 184.762 424.638 184.487C424.729 184.211 425.096 184.12 425.371 184.211C426.563 184.853 427.48 185.403 428.213 186.045C428.397 186.228 428.488 186.595 428.305 186.779C428.213 186.87 428.03 186.962 427.847 186.962Z" fill="#3C4047"/>
<path d="M423.079 117.466C426.655 129.752 426.38 141.12 426.013 153.681C425.921 157.165 437.29 156.065 438.115 153.039C441.141 140.845 439.032 127.735 435.181 116.091C433.898 112.332 422.071 114.166 423.079 117.466Z" fill="#FCEAE0"/>
<path d="M471.58 141.671C466.079 151.572 459.202 159.732 452.143 168.442C449.026 172.293 459.936 171.651 461.861 169.817C470.479 162.208 477.264 151.939 482.398 141.671C483.957 138.737 473.23 138.737 471.58 141.671Z" fill="#FCEAE0"/>
<path d="M469.654 193.196C477.447 193.38 485.148 193.747 492.85 194.205C495.6 194.388 500.001 193.288 500.826 190.171C501.651 187.054 497.984 185.403 495.509 185.22C487.716 184.762 480.106 184.487 472.313 184.211C469.562 184.12 465.253 185.037 464.337 188.246C463.511 191.363 467.087 193.105 469.654 193.196Z" fill="#FCEAE0"/>
<path d="M330.479 379.038C330.479 379.038 332.13 388.573 332.313 393.249C332.405 396.091 332.313 400.584 332.313 400.584C332.313 400.584 334.422 400.584 335.522 400.492C336.622 400.4 337.905 400.125 337.905 400.125C337.905 400.125 336.622 395.816 335.247 391.599C333.963 387.931 330.479 379.038 330.479 379.038Z" fill="#A6B0B6"/>
<path d="M256.216 378.58C256.216 378.58 253.924 385.273 252.823 389.49C252.09 392.699 252.365 395.541 252.182 396.366C251.907 397.741 250.531 401.5 249.89 403.242C249.706 403.793 249.156 404.068 248.606 403.976C247.689 403.793 246.314 403.426 245.305 403.151C243.655 402.601 242.463 402.142 242.738 402.234C242.738 402.234 246.314 397.1 248.973 392.699C251.173 388.848 256.216 378.58 256.216 378.58Z" fill="#A6B0B6"/>
<path d="M331.855 466.412C346.524 495.476 355.509 527.198 360.368 559.287C365.502 593.302 365.961 627.866 364.402 662.156C363.486 681.959 361.835 701.763 359.91 721.566C359.726 723.858 363.21 723.767 363.394 721.566C366.786 686.085 369.445 650.512 368.528 614.847C367.703 581.566 363.761 548.194 354.776 516.196C349.825 498.501 343.223 481.173 334.972 464.67C333.872 462.653 330.846 464.395 331.855 466.412Z" fill="white"/>
<path d="M251.815 467.054C238.98 496.576 231.92 528.115 228.069 560.021C224.035 592.752 223.118 626.033 223.485 658.947C223.76 678.567 224.677 698.004 226.969 717.532C227.244 719.733 230.728 719.824 230.453 717.532C226.511 683.518 226.327 649.228 227.519 615.031C228.619 583.125 231.37 551.219 238.429 519.955C242.372 502.535 247.781 485.207 254.841 468.796C255.758 466.779 252.732 465.037 251.815 467.054Z" fill="white"/>
<path d="M173.151 390.407H171.684H166.825C166.458 390.957 166.092 391.415 165.633 391.782H173.059C173.426 391.782 173.793 391.415 173.793 391.049C173.793 390.774 173.518 390.407 173.151 390.407Z" fill="#548582"/>
<path d="M173.151 368.22C173.518 368.22 173.885 367.853 173.885 367.486C173.885 367.119 173.518 366.753 173.151 366.753H168.109V368.128L173.151 368.22Z" fill="#548582"/>
<path d="M163.983 394.258C161.049 393.616 158.024 392.791 155.09 391.782H91.5535V391.966C91.5535 393.432 92.1037 394.808 93.0205 396.091H160.316C161.691 396.091 162.883 395.449 163.983 394.258Z" fill="#D85F47"/>
<path d="M411.619 394.166C412.719 395.358 414.002 396.091 415.378 396.091H485.79C486.157 395.266 486.34 394.441 486.249 393.432V391.782H420.237C417.303 392.699 414.461 393.524 411.619 394.166Z" fill="#D85F47"/>
<path d="M293.348 445.784C278.312 445.784 256.858 442.208 256.858 442.208C256.858 442.208 256.491 443.858 256.125 446.15C265.843 449.176 278.954 450.734 293.348 450.184C306.917 449.634 319.202 447.25 328.462 443.858C328.554 443.767 328.646 443.766 328.829 443.675C328.829 443.583 328.829 443.583 328.829 443.583C328.829 443.583 309.117 445.875 293.348 445.784Z" fill="#F0A173"/>
</svg>
