<svg width="414" height="363" viewBox="0 0 414 363" fill="none" xmlns="http://www.w3.org/2000/svg">
<path fill-rule="evenodd" clip-rule="evenodd" d="M11.0691 3.51472C13.3195 1.26428 16.3718 0 19.5544 0H153.149C156.332 0 159.384 1.26428 161.635 3.51472L204.847 46.7275C207.098 48.9779 208.362 52.0302 208.362 55.2127V187.122C208.362 190.304 207.098 193.357 204.847 195.607L160.607 239.847C158.357 242.098 155.304 243.362 152.122 243.362H20.2132C17.0306 243.362 13.9784 242.098 11.728 239.847L-31.4853 196.634C-33.7357 194.384 -35 191.331 -35 188.149V54.5544C-35 51.3718 -33.7357 48.3195 -31.4853 46.0691L11.0691 3.51472Z" fill="#FFE6C2"/>
<path fill-rule="evenodd" clip-rule="evenodd" d="M278.46 73.436C280.71 71.1855 283.763 69.9213 286.945 69.9213H400.724C403.906 69.9213 406.959 71.1855 409.209 73.436L445.485 109.712C447.736 111.963 449 115.015 449 118.197V230.523C449 233.705 447.736 236.757 445.485 239.008L408.323 276.17C406.073 278.421 403.02 279.685 399.838 279.685H282.543C282.542 279.685 282.542 279.685 282.542 279.685C282.543 279.685 282.543 279.685 282.542 279.685L242.751 239.893C240.501 237.643 239.236 234.591 239.236 231.408V117.63C239.236 114.448 240.501 111.395 242.751 109.145L278.46 73.436Z" fill="#FCEAE0"/>
<path d="M103.845 285.887C103.593 286.523 101.932 290.209 102.225 291.055C102.76 292.582 110.928 295.178 111.45 294.955C111.971 294.732 112.501 294.026 112.255 293.683C112.008 293.339 109.095 291.458 108.783 290.994C108.471 290.53 108.499 288.719 109.062 287.958" fill="#3C4047"/>
<path d="M140.031 157.529C142.097 159.387 172.038 185.852 172.038 199.758C172.038 203.965 163.521 265.62 162.562 266.873H155.162C155.162 266.873 151.904 215.507 154.496 205.469C152.574 204.656 134.949 198.532 127.13 191.967C119.311 185.402 124.905 160.139 140.031 157.529Z" fill="#3C4047"/>
<path d="M140.031 157.529C142.358 157.938 110.184 288.139 110.184 288.139H102.193C102.193 288.139 105.227 164.907 106.968 158.908C115.257 156.42 133.771 156.42 140.031 157.529Z" fill="white"/>
<path d="M97.152 107.593C105.678 101.594 134.851 101.594 165.075 102.797C168.649 102.941 178.791 81.527 183.115 78.4811C187.876 75.1288 195.462 78.1561 195.462 79.9391C195.462 83.8299 190.054 83.9228 188.909 85.1811C187.764 86.4393 177.534 116.396 168.896 120.807C166.104 122.237 145.448 121.764 144.006 123.626C142.563 125.487 141.241 156.373 140.036 157.52C138.83 158.667 110.277 159.619 106.991 158.913C106.809 156.512 102.965 136.603 102.002 135.043C101.471 134.996 93.7871 147.848 93.7917 149.469C93.7917 151.605 106.94 169.499 112.45 172.563C113.879 173.353 113.67 175.6 113.409 176.148C113.148 176.696 111.18 179.398 109.951 179.398C108.722 179.398 80.0666 162.233 79.4196 149.297C79.2474 145.801 86.1635 115.347 97.152 107.593Z" fill="#FFD88C"/>
<path d="M156.153 266.089C156.153 266.771 155.92 270.811 156.502 271.493C157.549 272.724 166.104 272.232 166.508 271.837C166.913 271.442 167.165 270.602 166.806 270.36C166.448 270.119 163.055 269.399 162.618 269.079C162.18 268.759 161.538 267.055 161.784 266.145" fill="#3C4047"/>
<path d="M122.578 105.68C122.736 107.51 112.664 108.503 112.497 106.539L111.454 94.3094L121.535 93.4551L122.578 105.68Z" fill="#F8CDBA"/>
<path d="M112.078 101.613C111.985 100.526 114.158 96.5659 116.132 97.0349C113.693 96.3988 112.273 93.6501 111.478 94.3094L112.078 101.613Z" fill="#3C4047"/>
<path d="M120.204 97.6756C127.463 97.6756 133.348 91.8051 133.348 84.5636C133.348 77.322 127.463 71.4516 120.204 71.4516C112.945 71.4516 107.061 77.322 107.061 84.5636C107.061 91.8051 112.945 97.6756 120.204 97.6756Z" fill="#F8CDBA"/>
<path d="M133.696 86.3228C134.902 86.2202 135.837 85.6296 135.783 85.0037C135.73 84.3777 134.709 83.9533 133.502 84.0559C132.296 84.1584 131.361 84.749 131.415 85.375C131.468 86.001 132.49 86.4253 133.696 86.3228Z" fill="#F68069"/>
<path d="M119.956 87.4914C121.163 87.3889 122.097 86.7983 122.044 86.1723C121.99 85.5463 120.969 85.122 119.763 85.2245C118.557 85.327 117.622 85.9176 117.675 86.5436C117.729 87.1696 118.75 87.5939 119.956 87.4914Z" fill="#F68069"/>
<path d="M128.065 83.2914C128.53 83.8393 130.83 86.1005 128.698 87.2798" stroke="#3C4047" stroke-width="1.08" stroke-miterlimit="10" stroke-linecap="round"/>
<path d="M124.537 90.5068C123.881 90.5393 122.801 89.8336 122.21 89.1464" stroke="#3C4047" stroke-width="1.08" stroke-miterlimit="10" stroke-linecap="round"/>
<path d="M107.038 78.0123C106.651 73.476 112.702 69.5619 117.114 69.1905C124.132 68.5915 128.065 68.7494 131.914 67.4818C137.425 65.671 137.322 73.0535 137.397 73.8939C137.695 77.4273 136.592 79.7302 132.743 80.6217C132.373 79.4006 131.813 78.2457 131.081 77.1998C129.96 76.8736 128.76 76.9542 127.693 77.4273C126.729 77.8591 118.752 82.4696 112.604 82.9989C111.883 84.2108 110.682 91.3936 111.468 94.3141C109.672 94.5694 105.856 89.0071 105.418 85.9566C105.288 84.9112 105.406 83.85 105.761 82.8582C106.117 81.8664 106.701 80.9715 107.466 80.2456C107.345 79.6049 107.07 78.3698 107.038 78.0123Z" fill="#3C4047"/>
<path d="M112.273 88.7517C113.872 88.7517 115.168 87.4587 115.168 85.8638C115.168 84.2688 113.872 82.9758 112.273 82.9758C110.675 82.9758 109.378 84.2688 109.378 85.8638C109.378 87.4587 110.675 88.7517 112.273 88.7517Z" fill="#F8CDBA"/>
<path d="M112.427 172.559C106.917 169.494 93.7731 151.6 93.7685 149.464C93.7685 148.424 96.9194 142.774 99.3256 138.86L83.9296 130.553C80.9602 139.375 79.3359 147.584 79.4243 149.297C80.0666 162.233 108.699 179.37 109.928 179.37C111.156 179.37 113.125 176.691 113.386 176.12C113.646 175.549 113.861 173.348 112.427 172.559Z" fill="#F8CDBA"/>
<path d="M183.114 78.4997C178.791 81.5456 168.649 102.95 165.056 102.815C158.973 102.574 162.478 102.695 156.641 102.593L156.609 121.894C163.381 121.894 166.946 121.806 168.873 120.826C177.515 116.415 187.75 86.4672 188.886 85.1997C190.021 83.9321 195.439 83.8485 195.439 79.9577C195.462 78.1747 187.862 75.1474 183.114 78.4997Z" fill="#F8CDBA"/>
<path d="M333.775 353.66C333.886 354.517 334.783 359.515 334.16 360.451C333.042 362.15 322.294 362.818 321.73 362.381C321.166 361.945 320.728 360.945 321.139 360.588C321.551 360.23 325.675 358.831 326.197 358.357C326.719 357.884 327.252 355.675 326.793 354.575" fill="#3C4047"/>
<path d="M283.816 347.042C283.927 347.895 284.818 352.897 284.201 353.834C283.083 355.527 272.335 356.195 271.771 355.764C271.207 355.333 270.769 354.328 271.18 353.97C271.592 353.613 275.716 352.208 276.238 351.735C276.76 351.261 277.293 349.052 276.834 347.958" fill="#3C4047"/>
<path d="M301.388 216.056C300.603 218.413 287.798 289.237 286.991 293.077C286.184 296.917 273.891 345.201 274.956 346.8C276.021 348.399 283.515 350.535 285.388 349.467C287.26 348.399 319.889 275.823 322.304 266.776C324.72 257.728 322.304 210.412 322.304 210.412L301.388 216.056Z" fill="#3C4047"/>
<path d="M311.156 216.582C311.652 220.459 319.162 284.377 321.372 294.477C323.581 304.576 321.556 353.392 323.191 354.154C325.301 355.89 336.26 355.89 336.26 355.89C338.248 354.154 345.278 221.322 345.278 221.322C345.278 221.322 327.811 205.678 311.156 216.582Z" fill="#F68069"/>
<path d="M317.606 165.053C317.606 166.42 325.169 166.499 325.163 165.053V155.889H317.606V165.053Z" fill="#F8CDBA"/>
<path d="M325.153 161.339C325.153 160.524 322.669 157.041 321.229 157.515C323.006 156.884 324.483 155.411 325.137 155.868L325.153 161.339Z" fill="#3C4047"/>
<path d="M317.822 159.503C323.242 159.503 327.636 155.12 327.636 149.714C327.636 144.307 323.242 139.925 317.822 139.925C312.401 139.925 308.007 144.307 308.007 149.714C308.007 155.12 312.401 159.503 317.822 159.503Z" fill="#F8CDBA"/>
<path d="M308.581 153.662C309.478 153.572 310.167 153.121 310.12 152.655C310.072 152.189 309.307 151.884 308.41 151.975C307.514 152.065 306.825 152.516 306.872 152.982C306.919 153.448 307.684 153.752 308.581 153.662Z" fill="#F68069"/>
<path d="M319.095 152.608C319.996 152.514 320.686 152.059 320.638 151.591C320.589 151.123 319.819 150.819 318.918 150.912C318.017 151.006 317.326 151.461 317.375 151.929C317.424 152.397 318.194 152.701 319.095 152.608Z" fill="#F68069"/>
<path d="M312.564 150.655C312.3 151.118 310.929 153.101 312.654 153.67" stroke="#3C4047" stroke-width="0.69" stroke-miterlimit="10" stroke-linecap="round"/>
<path d="M316.161 155.442C316.646 155.379 317.342 154.711 317.685 154.122" stroke="#3C4047" stroke-width="0.69" stroke-miterlimit="10" stroke-linecap="round"/>
<path d="M325.759 150.655C326.953 150.655 327.921 149.69 327.921 148.499C327.921 147.308 326.953 146.342 325.759 146.342C324.565 146.342 323.597 147.308 323.597 148.499C323.597 149.69 324.565 150.655 325.759 150.655Z" fill="#F8CDBA"/>
<path d="M324.283 150.403C324.283 153.27 327.447 155.137 328.533 155.137C328.706 155.16 328.882 155.146 329.048 155.094C329.214 155.042 329.367 154.954 329.495 154.836C329.624 154.719 329.725 154.575 329.791 154.414C329.857 154.253 329.887 154.08 329.878 153.906C329.878 152.707 329.166 151.676 327.679 150.377C327.938 149.929 329.878 147.568 329.878 144.238C329.878 140.713 327.711 137.762 326.26 137.762C325.64 137.804 325.051 138.049 324.585 138.461C324.119 138.872 323.803 139.425 323.687 140.035C323.687 135.111 318.413 131.587 315.249 131.587C312.316 131.587 311.815 132.86 311.815 133.896C311.815 136.158 313.603 138.583 314.278 139.156C312.638 137.952 310.059 136.737 307.86 136.737C306.468 136.737 304.696 137.131 304.696 139.046C304.696 142.555 307.992 144.585 309.094 145.153C309.514 144.335 310.047 143.579 310.676 142.907C310.476 143.57 311.288 144.774 312.844 145.048C313.735 145.243 324.283 143.822 324.283 150.403Z" fill="#3C4047"/>
<path d="M297.106 135.243C295.386 134.694 293.7 134.048 292.054 133.307C291.321 132.876 294.469 127.589 295.93 126.058C297.391 124.528 300.408 123.744 301.985 125.111C303.561 126.479 302.586 129.846 297.106 135.243Z" fill="#F8CDBA"/>
<path d="M340.231 164.143C349.898 169.645 361.152 202.38 361.152 204.889C361.152 207.398 340.584 244.967 339.35 244.967C338.295 243.846 333.828 238.539 333.828 238.539C334.946 236.829 342.266 220.385 342.525 219.696C340.742 219.991 303.161 221.227 299.997 219.844C296.832 218.46 298.066 182.901 297.228 181.717C296.389 180.534 273.939 178.882 271.17 174.637C272.309 153.669 290.599 133.554 291.938 133.012C293.278 132.471 297.623 133.949 297.819 134.927C297.291 136.305 287.387 162.102 288.278 163.333C292.924 162.854 336.201 161.844 340.231 164.143Z" fill="white"/>
<path d="M335.226 186.657C336.138 188.277 345.378 203.968 345.277 205.283C345.177 206.599 343.954 215.688 342.525 219.67" stroke="#3C4047" stroke-width="0.55" stroke-miterlimit="10" stroke-linecap="round"/>
<path d="M297.386 181.996C297.256 178.958 297.417 175.914 297.866 172.906" stroke="#3C4047" stroke-width="0.55" stroke-miterlimit="10" stroke-linecap="round"/>
</svg>
