<svg width="24" height="24" viewBox="0 0 24 24" fill="none" xmlns="http://www.w3.org/2000/svg">
<path fill-rule="evenodd" clip-rule="evenodd" d="M24 12C24 18.6274 18.6274 24 12 24C5.37258 24 0 18.6274 0 12C0 5.37258 5.37258 0 12 0C18.6274 0 24 5.37258 24 12ZM12 5.6C10.2622 5.6 10.0441 5.60738 9.36123 5.6384C8.67988 5.66942 8.21465 5.77772 7.80751 5.93575C7.38054 6.09656 6.99378 6.34858 6.67422 6.67422C6.34852 6.99393 6.0965 7.38085 5.93575 7.808C5.77772 8.21465 5.66991 8.67988 5.6384 9.36123C5.60738 10.0441 5.6 10.2622 5.6 12C5.6 13.7378 5.60738 13.9559 5.6384 14.6388C5.66942 15.3201 5.77772 15.7854 5.93575 16.192C6.09969 16.6129 6.31828 16.9698 6.67422 17.3258C6.99378 17.6514 7.38054 17.9034 7.80751 18.0642C8.21465 18.2218 8.67988 18.3301 9.36123 18.3616C10.0441 18.3926 10.2622 18.4 12 18.4C13.7378 18.4 13.9559 18.3926 14.6388 18.3616C15.3201 18.3306 15.7854 18.2223 16.192 18.0642C16.6192 17.9035 17.0061 17.6515 17.3258 17.3258C17.6515 17.0061 17.9035 16.6191 18.0642 16.192C18.2218 15.7854 18.3301 15.3201 18.3616 14.6388C18.3926 13.9559 18.4 13.7378 18.4 12C18.4 10.2622 18.3926 10.0441 18.3616 9.36123C18.3306 8.67988 18.2223 8.21465 18.0638 7.808C17.9032 7.3809 17.6513 6.99397 17.3258 6.67422C17.0061 6.3485 16.6192 6.09649 16.192 5.93575C15.7854 5.77822 15.3201 5.66991 14.6388 5.6384C13.9559 5.60738 13.7378 5.6 12 5.6ZM12 6.75298C13.7088 6.75298 13.9111 6.75988 14.5861 6.7904C15.2098 6.81895 15.549 6.92332 15.7745 7.01095C16.0734 7.12714 16.2865 7.26548 16.5105 7.48948C16.7345 7.71348 16.8729 7.92665 16.989 8.22548C17.0767 8.45095 17.181 8.78966 17.2096 9.41391C17.2401 10.0884 17.247 10.2912 17.247 12C17.247 13.7088 17.2401 13.9111 17.2096 14.5861C17.181 15.2103 17.0767 15.549 16.989 15.7745C16.8865 16.0525 16.723 16.304 16.5105 16.5105C16.304 16.723 16.0525 16.8865 15.7745 16.989C15.549 17.0767 15.2098 17.181 14.5861 17.2096C13.9116 17.2401 13.7088 17.247 12 17.247C10.2912 17.247 10.0884 17.2401 9.41391 17.2096C8.78966 17.181 8.45095 17.0767 8.22548 16.989C7.94747 16.8865 7.69597 16.723 7.48948 16.5105C7.27701 16.304 7.1135 16.0525 7.01095 15.7745C6.92332 15.549 6.81895 15.2103 6.7904 14.5861C6.75988 13.9116 6.75298 13.7088 6.75298 12C6.75298 10.2912 6.75988 10.0889 6.7904 9.41391C6.81895 8.78966 6.92332 8.45095 7.01095 8.22548C7.12714 7.92665 7.26548 7.71348 7.48948 7.48948C7.69598 7.27699 7.94747 7.11347 8.22548 7.01095C8.45095 6.92332 8.78966 6.81895 9.41391 6.7904C10.0884 6.75988 10.2912 6.75298 12 6.75298ZM9.14919 9.83239C9.885 9.15484 10.883 8.77419 11.9236 8.77419C12.9642 8.77419 13.9621 9.15484 14.6979 9.83239C15.4338 10.5099 15.8471 11.4289 15.8471 12.3871C15.8471 13.3453 15.4338 14.2643 14.6979 14.9418C13.9621 15.6194 12.9642 16 11.9236 16C10.883 16 9.885 15.6194 9.14919 14.9418C8.41337 14.2643 8 13.3453 8 12.3871C8 11.4289 8.41337 10.5099 9.14919 9.83239ZM10.14 14.0294C10.6131 14.465 11.2546 14.7097 11.9236 14.7097C12.5925 14.7097 13.2341 14.465 13.7071 14.0294C14.1801 13.5938 14.4459 13.0031 14.4459 12.3871C14.4459 11.7711 14.1801 11.1804 13.7071 10.7448C13.2341 10.3092 12.5925 10.0645 11.9236 10.0645C11.2546 10.0645 10.6131 10.3092 10.14 10.7448C9.66702 11.1804 9.40127 11.7711 9.40127 12.3871C9.40127 13.0031 9.66702 13.5938 10.14 14.0294ZM16.7317 9.14183C16.7768 9.04164 16.8 8.93425 16.8 8.82581C16.8 8.60679 16.7055 8.39674 16.5373 8.24187C16.3691 8.087 16.141 8 15.9032 8C15.6653 8 15.4372 8.087 15.269 8.24187C15.1009 8.39674 15.0064 8.60679 15.0064 8.82581C15.0064 8.93425 15.0296 9.04164 15.0746 9.14183C15.1197 9.24202 15.1858 9.33306 15.269 9.40974C15.3523 9.48642 15.4512 9.54725 15.56 9.58875C15.6688 9.63025 15.7854 9.65161 15.9032 9.65161C16.021 9.65161 16.1376 9.63025 16.2464 9.58875C16.3552 9.54725 16.4541 9.48642 16.5373 9.40974C16.6206 9.33306 16.6867 9.24202 16.7317 9.14183Z" fill="white"/>
</svg>
