<svg width="173" height="28" viewBox="0 0 173 28" fill="none" xmlns="http://www.w3.org/2000/svg">
<path d="M36.78 10.8879L40.6492 8.86967H42.2998V27.3703H36.78V10.8879ZM36.5493 2.92115C36.5493 2.55527 36.6262 2.20709 36.78 1.87662C36.9339 1.54614 37.1469 1.26288 37.419 1.02683C37.6911 0.790776 38.0047 0.601934 38.3597 0.460302C38.7146 0.318671 39.0992 0.247855 39.5133 0.247855C39.9275 0.247855 40.312 0.318671 40.667 0.460302C41.0338 0.601934 41.3473 0.790776 41.6076 1.02683C41.8798 1.26288 42.0928 1.54614 42.2466 1.87662C42.4004 2.20709 42.4773 2.55527 42.4773 2.92115C42.4773 3.28703 42.4004 3.63521 42.2466 3.96568C42.0928 4.28435 41.8798 4.56171 41.6076 4.79777C41.3473 5.03382 41.0338 5.22266 40.667 5.36429C40.312 5.50592 39.9275 5.57674 39.5133 5.57674C39.0992 5.57674 38.7146 5.50592 38.3597 5.36429C38.0047 5.22266 37.6911 5.03382 37.419 4.79777C37.1469 4.56171 36.9339 4.28435 36.78 3.96568C36.6262 3.63521 36.5493 3.28703 36.5493 2.92115Z" fill="#548582"/>
<path d="M53.0555 27.3703H47.5712V2.01825L51.4048 0H53.0555V27.3703Z" fill="#548582"/>
<path d="M63.7756 27.3703H58.2913V2.01825L62.125 0H63.7756V27.3703Z" fill="#548582"/>
<path d="M77.4774 18.0226C76.945 18.2469 76.4066 18.5183 75.8623 18.837C75.318 19.1557 74.827 19.5156 74.3892 19.9169C73.9632 20.3064 73.6083 20.7431 73.3243 21.227C73.0521 21.6991 72.9161 22.2066 72.9161 22.7496C72.9161 23.3515 73.0699 23.8236 73.3775 24.1659C73.697 24.5081 74.123 24.6793 74.6554 24.6793C75.105 24.6793 75.5488 24.5494 75.9866 24.2898C76.4244 24.0183 76.9213 23.6702 77.4774 23.2453V18.0226ZM67.3963 13.8445C67.5856 13.0891 67.9169 12.4046 68.3902 11.7908C68.8635 11.1653 69.4492 10.6401 70.1473 10.2152C70.8572 9.77847 71.6618 9.4421 72.5611 9.20604C73.4722 8.96999 74.4543 8.85197 75.5073 8.85197C76.8089 8.85197 77.933 8.96999 78.8796 9.20604C79.8262 9.4421 80.6012 9.77847 81.2046 10.2152C81.8199 10.6401 82.2695 11.1594 82.5535 11.7731C82.8493 12.375 82.9972 13.0537 82.9972 13.8091V24.1836C82.9972 24.9271 83.228 25.5586 83.6894 26.0779C84.1509 26.5972 84.8017 27.028 85.6418 27.3703H79.1103C78.921 27.3703 78.7376 27.3172 78.5601 27.2109C78.3826 27.1047 78.2229 26.969 78.0809 26.8038C77.9389 26.6267 77.8147 26.4379 77.7082 26.2372C77.6017 26.0366 77.5248 25.8418 77.4774 25.653C77.1461 25.9599 76.8326 26.2431 76.5368 26.5028C76.241 26.7506 75.9156 26.9631 75.5606 27.1401C75.2056 27.3172 74.8092 27.4529 74.3714 27.5473C73.9336 27.6535 73.4071 27.7067 72.7918 27.7067C71.9517 27.7067 71.1945 27.5886 70.52 27.3526C69.8574 27.1165 69.2894 26.7919 68.8162 26.3789C68.3547 25.954 67.9997 25.4583 67.7512 24.8917C67.5028 24.3134 67.3785 23.6879 67.3785 23.0151C67.3785 21.9765 67.6684 21.0854 68.2482 20.3418C68.828 19.5983 69.5912 18.9491 70.5378 18.3944C71.4962 17.8397 72.5788 17.3558 73.7857 16.9427C74.9926 16.5296 76.2232 16.1342 77.4774 15.7565V13.9861C77.4774 13.4078 77.4183 12.918 77.2999 12.5167C77.1816 12.1036 77.016 11.7731 76.803 11.5253C76.59 11.2656 76.3297 11.0827 76.0221 10.9764C75.7262 10.8584 75.3949 10.7994 75.0281 10.7994C74.5903 10.7994 74.1999 10.882 73.8567 11.0473C73.5136 11.2125 73.2178 11.4367 72.9693 11.72C72.7208 12.0033 72.5197 12.3278 72.3659 12.6937C72.212 13.0596 72.0996 13.4432 72.0286 13.8445H67.3963Z" fill="#548582"/>
<path d="M101.047 14.588C101 14.4346 100.9 14.169 100.746 13.7914C100.592 13.4137 100.355 13.0301 100.036 12.6406C99.7282 12.2393 99.314 11.8852 98.7934 11.5784C98.2846 11.2715 97.6457 11.1181 96.8766 11.1181C96.285 11.1181 95.7525 11.2656 95.2792 11.5607C94.8059 11.8557 94.4036 12.2511 94.0723 12.7468C93.741 13.2425 93.4807 13.8209 93.2914 14.4818C93.1139 15.1428 93.0251 15.8332 93.0251 16.5532C93.0251 17.5682 93.1376 18.536 93.3624 19.4566C93.599 20.3772 93.9244 21.1916 94.3385 21.8998C94.7527 22.5961 95.2555 23.1508 95.8472 23.5639C96.4388 23.977 97.0955 24.1836 97.8172 24.1836C98.4325 24.1836 98.9827 24.0655 99.4679 23.8295C99.9648 23.5816 100.414 23.2512 100.817 22.8381C101.219 22.4132 101.58 21.9234 101.899 21.3686C102.219 20.8021 102.521 20.2002 102.805 19.5628L105.431 20.271C105.124 21.4513 104.698 22.5017 104.153 23.4223C103.609 24.3429 102.958 25.1219 102.201 25.7592C101.456 26.3966 100.61 26.8805 99.6631 27.2109C98.7165 27.5414 97.6871 27.7067 96.5749 27.7067C95.3206 27.7067 94.1433 27.4706 93.0429 26.9985C91.9425 26.5146 90.9841 25.8654 90.1676 25.0511C89.3512 24.2249 88.7063 23.2689 88.233 22.183C87.7597 21.0854 87.5231 19.9228 87.5231 18.6954C87.5231 17.8102 87.6355 16.9545 87.8603 16.1283C88.097 15.2903 88.4224 14.5113 88.8365 13.7914C89.2625 13.0596 89.7653 12.3987 90.3451 11.8085C90.9367 11.2066 91.5875 10.6932 92.2975 10.2683C93.0192 9.84339 93.7883 9.51291 94.6048 9.27686C95.4212 9.04081 96.2672 8.92278 97.1428 8.92278C98.0776 8.92278 98.894 8.98179 99.5921 9.09982C100.29 9.21785 100.905 9.40669 101.438 9.66635C101.982 9.926 102.473 10.2683 102.911 10.6932C103.361 11.1063 103.804 11.6138 104.242 12.2157L101.047 14.588Z" fill="#548582"/>
<path d="M107.774 11.5076V10.2152L110.703 9.24145V5.55903L114.554 3.54079H116.205V9.24145H120.66V11.5076H116.205V23.1744C116.205 23.5403 116.299 23.859 116.489 24.1305C116.678 24.4019 116.926 24.5376 117.234 24.5376C117.423 24.5376 117.631 24.4727 117.855 24.3429C118.092 24.2131 118.311 24.0655 118.512 23.9003C118.725 23.7233 118.908 23.5462 119.062 23.3692C119.228 23.1922 119.346 23.0564 119.417 22.962L121.299 24.4491C120.991 24.9212 120.654 25.3638 120.287 25.7769C119.92 26.1782 119.5 26.5264 119.027 26.8215C118.553 27.1165 118.009 27.3467 117.394 27.5119C116.779 27.6889 116.069 27.7775 115.264 27.7775C114.495 27.7775 113.826 27.6653 113.258 27.4411C112.691 27.2286 112.217 26.9277 111.839 26.5382C111.46 26.1487 111.176 25.6825 110.987 25.1396C110.797 24.5967 110.703 23.9947 110.703 23.3338V11.5076H107.774Z" fill="#548582"/>
<path d="M124.6 10.8879L128.469 8.86967H130.12V27.3703H124.6V10.8879ZM124.369 2.92115C124.369 2.55527 124.446 2.20709 124.6 1.87662C124.754 1.54614 124.967 1.26288 125.239 1.02683C125.511 0.790776 125.824 0.601934 126.179 0.460302C126.534 0.318671 126.919 0.247855 127.333 0.247855C127.747 0.247855 128.132 0.318671 128.487 0.460302C128.854 0.601934 129.167 0.790776 129.427 1.02683C129.7 1.26288 129.913 1.54614 130.066 1.87662C130.22 2.20709 130.297 2.55527 130.297 2.92115C130.297 3.28703 130.22 3.63521 130.066 3.96568C129.913 4.28435 129.7 4.56171 129.427 4.79777C129.167 5.03382 128.854 5.22266 128.487 5.36429C128.132 5.50592 127.747 5.57674 127.333 5.57674C126.919 5.57674 126.534 5.50592 126.179 5.36429C125.824 5.22266 125.511 5.03382 125.239 4.79777C124.967 4.56171 124.754 4.28435 124.6 3.96568C124.446 3.63521 124.369 3.28703 124.369 2.92115Z" fill="#548582"/>
<path d="M138.958 9.24145L144.283 20.2887L149.678 9.24145H153.441L144.496 27.7775H141.993L133.19 9.24145H138.958Z" fill="#548582"/>
<path d="M164.836 18.0226C164.303 18.2469 163.765 18.5183 163.221 18.837C162.676 19.1557 162.185 19.5156 161.747 19.9169C161.321 20.3064 160.967 20.7431 160.683 21.227C160.41 21.6991 160.274 22.2066 160.274 22.7496C160.274 23.3515 160.428 23.8236 160.736 24.1659C161.055 24.5081 161.481 24.6793 162.014 24.6793C162.463 24.6793 162.907 24.5494 163.345 24.2898C163.783 24.0183 164.28 23.6702 164.836 23.2453V18.0226ZM154.755 13.8445C154.944 13.0891 155.275 12.4046 155.748 11.7908C156.222 11.1653 156.807 10.6401 157.506 10.2152C158.216 9.77847 159.02 9.4421 159.919 9.20604C160.83 8.96999 161.813 8.85197 162.866 8.85197C164.167 8.85197 165.291 8.96999 166.238 9.20604C167.184 9.4421 167.959 9.77847 168.563 10.2152C169.178 10.6401 169.628 11.1594 169.912 11.7731C170.208 12.375 170.355 13.0537 170.355 13.8091V24.1836C170.355 24.9271 170.586 25.5586 171.048 26.0779C171.509 26.5972 172.16 27.028 173 27.3703H166.469C166.279 27.3703 166.096 27.3172 165.918 27.2109C165.741 27.1047 165.581 26.969 165.439 26.8038C165.297 26.6267 165.173 26.4379 165.066 26.2372C164.96 26.0366 164.883 25.8418 164.836 25.653C164.504 25.9599 164.191 26.2431 163.895 26.5028C163.599 26.7506 163.274 26.9631 162.919 27.1401C162.564 27.3172 162.168 27.4529 161.73 27.5473C161.292 27.6535 160.765 27.7067 160.15 27.7067C159.31 27.7067 158.553 27.5886 157.878 27.3526C157.216 27.1165 156.648 26.7919 156.174 26.3789C155.713 25.954 155.358 25.4583 155.11 24.8917C154.861 24.3134 154.737 23.6879 154.737 23.0151C154.737 21.9765 155.027 21.0854 155.606 20.3418C156.186 19.5983 156.949 18.9491 157.896 18.3944C158.854 17.8397 159.937 17.3558 161.144 16.9427C162.351 16.5296 163.581 16.1342 164.836 15.7565V13.9861C164.836 13.4078 164.777 12.918 164.658 12.5167C164.54 12.1036 164.374 11.7731 164.161 11.5253C163.948 11.2656 163.688 11.0827 163.38 10.9764C163.085 10.8584 162.753 10.7994 162.386 10.7994C161.949 10.7994 161.558 10.882 161.215 11.0473C160.872 11.2125 160.576 11.4367 160.328 11.72C160.079 12.0033 159.878 12.3278 159.724 12.6937C159.57 13.0596 159.458 13.4432 159.387 13.8445H154.755Z" fill="#548582"/>
<path fill-rule="evenodd" clip-rule="evenodd" d="M17.2763 15.25C17.4638 15.0625 17.7182 14.9571 17.9834 14.9571H24.7165C24.9817 14.9571 25.236 15.0625 25.4236 15.25L27.7774 17.6039C27.7774 17.6039 27.7775 17.6039 27.7775 17.6039C27.7775 17.6038 27.7776 17.6039 27.7776 17.6039V24.6623C27.7776 24.9275 27.6722 25.1819 27.4847 25.3694L25.3695 27.4846C25.182 27.6721 24.9276 27.7775 24.6624 27.7775H17.6039C17.6039 27.7775 17.6039 27.7775 17.6039 27.7775C17.6039 27.7775 17.6039 27.7774 17.6039 27.7774L15.2501 25.4236C15.0626 25.2361 14.9572 24.9817 14.9572 24.7165V17.9833C14.9572 17.7181 15.0626 17.4638 15.2501 17.2762L17.2763 15.25Z" fill="#F68069"/>
<path fill-rule="evenodd" clip-rule="evenodd" d="M17.2763 0.292893C17.4639 0.105357 17.7182 0 17.9834 0H24.7164C24.9817 0 25.236 0.105357 25.4235 0.292893L27.7774 2.64677C27.7774 2.64679 27.7775 2.64679 27.7775 2.64677C27.7775 2.64674 27.7776 2.64676 27.7776 2.64681V9.70518C27.7776 9.9704 27.6722 10.2248 27.4847 10.4123L25.3695 12.5275C25.182 12.715 24.9276 12.8204 24.6624 12.8204H17.6039C17.6039 12.8204 17.6039 12.8204 17.6039 12.8204C17.6039 12.8204 17.6039 12.8204 17.6039 12.8204L15.2501 10.4665C15.0626 10.279 14.9572 10.0246 14.9572 9.75943V3.02623C14.9572 2.76102 15.0626 2.50666 15.2501 2.31913L17.2763 0.292893Z" fill="#F68069"/>
<path fill-rule="evenodd" clip-rule="evenodd" d="M2.31922 15.25C2.50675 15.0625 2.76111 14.9571 3.02632 14.9571H9.75944C10.0247 14.9571 10.279 15.0625 10.4665 15.25L12.5275 17.311C12.715 17.4985 12.8204 17.7528 12.8204 18.0181V24.6623C12.8204 24.9275 12.715 25.1819 12.5275 25.3694L10.4123 27.4846C10.2248 27.6721 9.97041 27.7775 9.70519 27.7775H2.64685C2.64683 27.7775 2.64682 27.7775 2.64683 27.7775C2.64684 27.7775 2.64684 27.7774 2.64683 27.7774L0.292893 25.4235C0.105357 25.236 0 24.9816 0 24.7164V17.9834C0 17.7182 0.105357 17.4639 0.292893 17.2763L2.31922 15.25Z" fill="#F68069"/>
<path fill-rule="evenodd" clip-rule="evenodd" d="M2.31925 0.292893C2.50679 0.105357 2.76114 0 3.02636 0H9.7594C10.0246 0 10.279 0.105357 10.4665 0.292893L12.5275 2.35387C12.715 2.5414 12.8204 2.79576 12.8204 3.06097V9.7052C12.8204 9.97042 12.715 10.2248 12.5275 10.4123L10.4123 12.5275C10.2248 12.715 9.97042 12.8204 9.7052 12.8204H2.64685C2.64684 12.8204 2.64684 12.8204 2.64684 12.8204C2.64684 12.8204 2.64684 12.8204 2.64684 12.8204L0.292893 10.4664C0.105357 10.2789 0 10.0245 0 9.7593V3.02636C0 2.76114 0.105357 2.50679 0.292893 2.31925L2.31925 0.292893Z" fill="#F68069"/>
</svg>
