<svg width="89" height="65" viewBox="0 0 89 65" fill="none" xmlns="http://www.w3.org/2000/svg">
<path d="M45 12C29.7647 12 16.5882 20.6471 10 33.3294C16.5882 46.0118 29.7647 54.6588 45 54.6588C60.2353 54.6588 73.4118 46.0118 80 33.3294C73.4118 20.6471 60.2353 12 45 12ZM45 51.2824C32.0706 51.2824 20.2118 44.4471 13.7882 33.2471C20.2118 22.1294 32.0706 15.2941 45 15.2941C57.9294 15.2941 69.7882 22.1294 76.2118 33.3294C69.7882 44.4471 57.9294 51.2824 45 51.2824Z" fill="#4C9789"/>
<path d="M44.9997 19.0823C37.1761 19.0823 30.835 25.4235 30.835 33.247C30.835 41.0706 37.1761 47.4117 44.9997 47.4117C52.8232 47.4117 59.1644 41.0706 59.1644 33.247C59.1644 25.4235 52.8232 19.0823 44.9997 19.0823ZM44.9997 44.1176C38.9879 44.1176 34.1291 39.2588 34.1291 33.247C34.1291 27.2353 38.9879 22.3765 44.9997 22.3765C51.0114 22.3765 55.8703 27.2353 55.8703 33.247C55.8703 39.2588 51.0114 44.1176 44.9997 44.1176Z" fill="#4C9789"/>
</svg>
