<svg width="141" height="125" viewBox="0 0 141 125" fill="none" xmlns="http://www.w3.org/2000/svg">
<path d="M9.42822 108.84L24.7431 34.8848" stroke="#C1CBD2" stroke-width="4" stroke-linecap="round" stroke-linejoin="round"/>
<path d="M51.1596 38.6982C49.6314 40.1687 46.3131 45.3396 44.7526 45.3396C40.4231 45.3396 27.1696 37.2277 26.2617 34.9977C26.0323 34.3869 27.5928 32.8259 28.0258 32.8259C28.4587 32.8259 36.184 37.4571 40.9271 37.0273C43.5119 36.7946 45.2243 31.6462 48.0159 28.6568" fill="#3C4047"/>
<path d="M132.054 44.5384C132.377 44.1764 134.096 41.9529 134.713 41.8689C135.824 41.7008 140.063 45.8764 140.096 46.2707C140.128 46.665 139.869 47.2144 139.572 47.1788C139.275 47.1433 137.175 45.9604 136.784 45.9216C136.393 45.8828 135.294 46.484 135.007 47.0754" fill="#3C4047"/>
<path d="M50.2609 47.014C48.9071 48.2551 34.9072 74.9374 34.9072 78.3631C34.9072 81.7889 46.1446 107.473 47.0848 108.022C48.025 108.571 50.8004 108.132 51.508 107.359C52.2156 106.587 47.9539 79.0224 47.9539 79.0224L68.7615 57.6339L50.2609 47.014Z" fill="#3C4047"/>
<path d="M66.8945 36.7593C68.4098 37.6546 90.2448 49.9906 96.2318 55.5494C99.4822 54.6962 131.64 43.4881 132.067 43.7434C132.493 43.9987 135.66 46.4388 135.66 47.014C135.66 47.5893 102.661 74.0292 93.7601 74.0292C90.5097 74.0292 59.2952 55.7595 50.271 47.014C49.3599 42.1178 62.7006 34.2773 66.8945 36.7593Z" fill="#F68069"/>
<path d="M52.8817 18.8097C56.1677 17.6494 66.8654 35.9386 66.8654 36.7595C66.8654 37.5803 51.7574 47.124 50.2291 47.0142C48.7009 46.9043 37.3924 24.2812 52.8817 18.8097Z" fill="#FCF5F3"/>
<path d="M42.3871 11.9579C41.9445 11.9191 40.4744 10.0867 41.2595 5.98867C42.2094 4.7444 45.3564 4.35012 45.4598 5.75921C45.5632 7.1683 43.7377 12.084 42.3871 11.9579Z" fill="#3C4047"/>
<path d="M48.9785 23.2308C49.0883 24.042 53.5535 23.4894 53.434 22.62L52.6909 17.2034L48.2354 17.8142L48.9785 23.2308Z" fill="#F8CDBA"/>
<path d="M53.1335 20.4384C53.0689 19.9569 51.7377 18.4476 50.9268 18.8419C51.9251 18.328 52.2709 16.9965 52.6909 17.2033L53.1335 20.4384Z" fill="#3C4047"/>
<path d="M47.9412 19.6627C51.1675 19.6627 53.7829 17.0466 53.7829 13.8195C53.7829 10.5924 51.1675 7.97626 47.9412 7.97626C44.715 7.97626 42.0996 10.5924 42.0996 13.8195C42.0996 17.0466 44.715 19.6627 47.9412 19.6627Z" fill="#F8CDBA"/>
<path d="M42.2991 15.7301C42.8327 15.6546 43.2335 15.3685 43.1942 15.091C43.155 14.8135 42.6907 14.6498 42.1571 14.7252C41.6235 14.8007 41.2227 15.0868 41.2619 15.3643C41.3012 15.6418 41.7655 15.8055 42.2991 15.7301Z" fill="#F68069"/>
<path d="M48.3371 15.0671C48.871 14.9938 49.2729 14.7093 49.2348 14.4316C49.1967 14.154 48.733 13.9884 48.1991 14.0618C47.6652 14.1351 47.2633 14.4196 47.3014 14.6972C47.3396 14.9749 47.8033 15.1405 48.3371 15.0671Z" fill="#F68069"/>
<path d="M44.41 14.0327C44.2646 14.3139 43.486 15.5258 44.5264 15.8264" stroke="#3C4047" stroke-width="0.69" stroke-miterlimit="10" stroke-linecap="round"/>
<path d="M46.6426 16.8251C46.9334 16.7767 47.3308 16.363 47.5246 16.0042" stroke="#3C4047" stroke-width="0.69" stroke-miterlimit="10" stroke-linecap="round"/>
<path d="M50.064 1.22811C57.7957 1.22811 63.3465 2.49823 66.962 2.49823C72.529 2.49823 76.9232 0 83.1654 0C86.0087 0 93.2881 2.41743 93.2881 10.6005C93.2881 15.2382 90.7033 24.4491 79.6307 24.4491C70.151 24.4491 68.5 20.4383 64.6551 20.4383C60.6034 20.4383 53.0688 22.3483 51.799 17.1806C51.5211 15.807 51.211 14.1232 50.4517 12.74C46.2223 11.263 44.8492 11.3923 42.8492 10.2095C39.9607 8.83592 39.8217 1.22811 50.064 1.22811Z" fill="#3C4047"/>
<path d="M51.5086 14.8956C52.2188 14.8956 52.7945 14.3197 52.7945 13.6093C52.7945 12.8989 52.2188 12.323 51.5086 12.323C50.7984 12.323 50.2227 12.8989 50.2227 13.6093C50.2227 14.3197 50.7984 14.8956 51.5086 14.8956Z" fill="#F8CDBA"/>
<path d="M51.2113 107.204C51.3147 107.67 52.0514 110.384 51.7574 110.934C51.2242 111.923 45.3406 112.821 45.0111 112.608C44.6815 112.395 44.3875 111.865 44.5943 111.638C44.801 111.412 47.0046 110.443 47.2695 110.158C47.5345 109.874 47.7122 108.623 47.4117 108.041" fill="#3C4047"/>
<path d="M15.9512 115.19H76.0152" stroke="#C1CBD2" stroke-width="4" stroke-linecap="round" stroke-linejoin="round"/>
<path d="M24.291 34.3064L28.6625 31.5012" stroke="#959FA6" stroke-width="4" stroke-miterlimit="10" stroke-linecap="round"/>
<path d="M25.693 34.7038C27.0527 34.7038 28.155 34.0759 28.155 33.3012C28.155 32.5266 27.0527 31.8986 25.693 31.8986C24.3332 31.8986 23.231 32.5266 23.231 33.3012C23.231 34.0759 24.3332 34.7038 25.693 34.7038Z" fill="#F8CDBA"/>
<path d="M23.777 36.2872C25.1367 36.2872 26.239 35.6592 26.239 34.8846C26.239 34.1099 25.1367 33.482 23.777 33.482C22.4172 33.482 21.3149 34.1099 21.3149 34.8846C21.3149 35.6592 22.4172 36.2872 23.777 36.2872Z" fill="#F8CDBA"/>
<path d="M19.6089 37.309L22.9077 35.1921" stroke="#959FA6" stroke-width="4" stroke-miterlimit="10" stroke-linecap="round"/>
<path d="M52.7944 39.0833C51.2661 40.5505 44.8106 46.6361 43.2565 46.6361C38.927 46.6361 25.6767 38.5241 24.7656 36.2942C24.5362 35.6833 26.0967 34.1223 26.5297 34.1223C26.9626 34.1223 36.41 39.1059 41.1531 38.6663C43.7379 38.4336 48.733 29.3586 51.5246 26.3659" fill="#FCF5F3"/>
<path d="M8.9757 122.216C12.8283 122.216 15.9514 119.092 15.9514 115.239C15.9514 111.385 12.8283 108.261 8.9757 108.261C5.12313 108.261 2 111.385 2 115.239C2 119.092 5.12313 122.216 8.9757 122.216Z" stroke="#959FA6" stroke-width="4" stroke-miterlimit="10"/>
<path d="M82.9913 122.216C86.8439 122.216 89.967 119.092 89.967 115.239C89.967 111.385 86.8439 108.261 82.9913 108.261C79.1387 108.261 76.0156 111.385 76.0156 115.239C76.0156 119.092 79.1387 122.216 82.9913 122.216Z" stroke="#959FA6" stroke-width="4" stroke-miterlimit="10"/>
<path d="M45.0137 35.0172C46.1833 33.4853 47.5112 31.5462 48.6453 29.9238" stroke="#3C4047" stroke-linecap="round" stroke-linejoin="round"/>
<path d="M52.7944 39.083C52.0287 39.8167 50.0351 41.7041 48.0352 43.4105" stroke="#3C4047" stroke-linecap="round" stroke-linejoin="round"/>
<path d="M51.0139 40.9636C50.5777 41.3611 48.3257 44.5607 48.9816 45.5335C48.1447 43.9919 47.9121 43.5135 47.9121 43.5135" fill="#3C4047"/>
</svg>
