<svg width="24" height="24" viewBox="0 0 24 24" fill="none" xmlns="http://www.w3.org/2000/svg">
<path fill-rule="evenodd" clip-rule="evenodd" d="M24 12C24 18.6274 18.6274 24 12 24C5.37258 24 0 18.6274 0 12C0 5.37258 5.37258 0 12 0C18.6274 0 24 5.37258 24 12ZM15.9416 12C15.9397 11.3793 15.8731 10.7606 15.7431 10.1538H17.4047C17.3191 9.90067 17.2158 9.65391 17.0954 9.41534H15.5493C15.2586 8.44429 14.8078 7.52861 14.2154 6.70611C13.837 6.54697 13.4423 6.42936 13.0385 6.35534C13.85 7.22729 14.4626 8.26504 14.8339 9.39687H12.3462V6.27687H11.6539V9.40149H9.1662C9.53823 8.2676 10.1524 7.2282 10.9662 6.35534C10.5641 6.42812 10.171 6.54418 9.79389 6.70149C9.19917 7.52055 8.74525 8.43307 8.45081 9.40149H6.89543C6.77292 9.64441 6.66803 9.89583 6.58158 10.1538H8.25697C8.12694 10.7606 8.06043 11.3793 8.0585 12C8.05978 12.6788 8.13719 13.3553 8.28927 14.0169H6.65543C6.75091 14.2756 6.86506 14.527 6.99696 14.7692H8.48773C8.77029 15.6534 9.18918 16.4881 9.72927 17.243C10.116 17.4089 10.5201 17.5312 10.9339 17.6076C10.1806 16.786 9.60132 15.8205 9.23081 14.7692H11.6585V17.6953H12.3508V14.7692H14.7693C14.3975 15.8209 13.8166 16.7865 13.0616 17.6076C13.4774 17.5286 13.883 17.4032 14.2708 17.2338C14.81 16.4817 15.2289 15.6502 15.5124 14.7692H16.9893C17.1206 14.5315 17.2347 14.2847 17.3308 14.0307H15.6923C15.8517 13.3654 15.9353 12.6841 15.9416 12ZM11.6539 14.0169H9.00466C8.67972 12.7466 8.66547 11.4168 8.96312 10.14H11.6539V14.0169ZM14.9954 14.0169H12.3462V10.1538H15.037C15.1695 10.7601 15.2346 11.3793 15.2308 12C15.2346 12.6793 15.1555 13.3566 14.9954 14.0169ZM7.89733 5.85992C9.11172 5.04848 10.5395 4.61538 12 4.61538C13.9585 4.61538 15.8368 5.3934 17.2217 6.77829C18.6066 8.16317 19.3846 10.0415 19.3846 12C19.3846 13.4605 18.9515 14.8883 18.1401 16.1027C17.3287 17.3171 16.1753 18.2636 14.826 18.8225C13.4766 19.3814 11.9918 19.5277 10.5593 19.2427C9.12686 18.9578 7.81105 18.2545 6.77829 17.2217C5.74553 16.189 5.04222 14.8731 4.75728 13.4407C4.47234 12.0082 4.61858 10.5234 5.17751 9.17403C5.73643 7.82467 6.68294 6.67135 7.89733 5.85992ZM8.41016 17.3726C9.47276 18.0826 10.722 18.4615 12 18.4615C13.7137 18.4615 15.3572 17.7808 16.569 16.569C17.7808 15.3572 18.4615 13.7137 18.4615 12C18.4615 10.722 18.0826 9.47276 17.3726 8.41016C16.6626 7.34757 15.6534 6.51938 14.4727 6.03032C13.292 5.54126 11.9928 5.4133 10.7394 5.66262C9.486 5.91194 8.33467 6.52734 7.43101 7.431C6.52734 8.33466 5.91194 9.486 5.66262 10.7394C5.4133 11.9928 5.54126 13.292 6.03032 14.4727C6.51938 15.6534 7.34757 16.6626 8.41016 17.3726Z" fill="white"/>
</svg>
